M48
; DRILL file {KiCad 7.0.5} date Tue Dec 19 10:57:01 2023
; FORMAT={-:-/ absolute / inch / decimal}
; #@! TF.CreationDate,2023-12-19T10:57:01-08:00
; #@! TF.GenerationSoftware,Kicad,Pcbnew,7.0.5
; #@! TF.FileFunction,Plated,1,2,PTH
FMAT,2
INCH
; #@! TA.AperFunction,Plated,PTH,ComponentDrill
T1C0.0350
; #@! TA.AperFunction,Plated,PTH,ComponentDrill
T2C0.0374
%
G90
G05
T1
X4.35Y-1.1
X4.35Y-1.2
X4.35Y-1.3
X4.35Y-1.4
X4.35Y-1.5
X4.35Y-1.6
X4.35Y-1.7
X4.35Y-1.8
X4.35Y-1.9
X4.35Y-2.0
X4.35Y-2.1
X4.35Y-2.2
X4.35Y-2.3
X4.35Y-2.4
X4.35Y-2.5
X4.35Y-2.6
X4.35Y-2.7
X4.35Y-2.8
X4.35Y-2.9
X4.35Y-3.0
X4.45Y-1.1
X4.45Y-1.2
X4.45Y-1.3
X4.45Y-1.4
X4.45Y-1.5
X4.45Y-1.6
X4.45Y-1.7
X4.45Y-1.8
X4.45Y-1.9
X4.45Y-2.0
X4.45Y-2.1
X4.45Y-2.2
X4.45Y-2.3
X4.45Y-2.4
X4.45Y-2.5
X4.45Y-2.6
X4.45Y-2.7
X4.45Y-2.8
X4.45Y-2.9
X4.45Y-3.0
X4.7Y-1.1
X4.7Y-1.2
X4.7Y-1.3
X4.7Y-1.4
X4.7Y-1.5
X4.7Y-1.6
X4.7Y-1.7
X4.7Y-1.8
X4.7Y-1.9
X4.7Y-2.0
X4.7Y-2.1
X4.7Y-2.2
X4.7Y-2.3
X4.7Y-2.4
X4.7Y-2.5
X4.7Y-2.6
X4.7Y-2.7
X4.7Y-2.8
X4.7Y-2.9
X4.7Y-3.0
X4.8Y-1.1
X4.8Y-1.2
X4.8Y-1.3
X4.8Y-1.4
X4.8Y-1.5
X4.8Y-1.6
X4.8Y-1.7
X4.8Y-1.8
X4.8Y-1.9
X4.8Y-2.0
X4.8Y-2.1
X4.8Y-2.2
X4.8Y-2.3
X4.8Y-2.4
X4.8Y-2.5
X4.8Y-2.6
X4.8Y-2.7
X4.8Y-2.8
X4.8Y-2.9
X4.8Y-3.0
T2
X5.1382Y-1.2031
X5.1382Y-1.3016
X5.1382Y-1.4
X5.1382Y-1.4984
X5.1382Y-1.5969
T0
M30
