%TF.GenerationSoftware,KiCad,Pcbnew,7.0.5*%
%TF.CreationDate,2023-12-19T10:56:59-08:00*%
%TF.ProjectId,PiN_PiHat,50694e5f-5069-4486-9174-2e6b69636164,rev?*%
%TF.SameCoordinates,Original*%
%TF.FileFunction,Copper,L1,Top*%
%TF.FilePolarity,Positive*%
%FSLAX46Y46*%
G04 Gerber Fmt 4.6, Leading zero omitted, Abs format (unit mm)*
G04 Created by KiCad (PCBNEW 7.0.5) date 2023-12-19 10:56:59*
%MOMM*%
%LPD*%
G01*
G04 APERTURE LIST*
G04 Aperture macros list*
%AMRoundRect*
0 Rectangle with rounded corners*
0 $1 Rounding radius*
0 $2 $3 $4 $5 $6 $7 $8 $9 X,Y pos of 4 corners*
0 Add a 4 corners polygon primitive as box body*
4,1,4,$2,$3,$4,$5,$6,$7,$8,$9,$2,$3,0*
0 Add four circle primitives for the rounded corners*
1,1,$1+$1,$2,$3*
1,1,$1+$1,$4,$5*
1,1,$1+$1,$6,$7*
1,1,$1+$1,$8,$9*
0 Add four rect primitives between the rounded corners*
20,1,$1+$1,$2,$3,$4,$5,0*
20,1,$1+$1,$4,$5,$6,$7,0*
20,1,$1+$1,$6,$7,$8,$9,0*
20,1,$1+$1,$8,$9,$2,$3,0*%
G04 Aperture macros list end*
%TA.AperFunction,ComponentPad*%
%ADD10C,1.398000*%
%TD*%
%TA.AperFunction,ComponentPad*%
%ADD11R,1.398000X1.398000*%
%TD*%
%TA.AperFunction,ComponentPad*%
%ADD12RoundRect,0.250000X0.725000X-0.600000X0.725000X0.600000X-0.725000X0.600000X-0.725000X-0.600000X0*%
%TD*%
%TA.AperFunction,ComponentPad*%
%ADD13O,1.950000X1.700000*%
%TD*%
%TA.AperFunction,Conductor*%
%ADD14C,0.250000*%
%TD*%
G04 APERTURE END LIST*
D10*
%TO.P,PI_to_Header1,1,Pin_1*%
%TO.N,Net-(Out1-Pin_1)*%
X110490000Y-27940000D03*
D11*
%TO.P,PI_to_Header1,2,Pin_2*%
%TO.N,Net-(Out1-Pin_2)*%
X113030000Y-27940000D03*
D10*
%TO.P,PI_to_Header1,3,Pin_3*%
%TO.N,Net-(Out1-Pin_3)*%
X110490000Y-30480000D03*
%TO.P,PI_to_Header1,4,Pin_4*%
%TO.N,Net-(Out1-Pin_4)*%
X113030000Y-30480000D03*
%TO.P,PI_to_Header1,5,Pin_5*%
%TO.N,Net-(Out1-Pin_5)*%
X110490000Y-33020000D03*
%TO.P,PI_to_Header1,6,Pin_6*%
%TO.N,Net-(Out1-Pin_6)*%
X113030000Y-33020000D03*
%TO.P,PI_to_Header1,7,Pin_7*%
%TO.N,Net-(Out1-Pin_7)*%
X110490000Y-35560000D03*
%TO.P,PI_to_Header1,8,Pin_8*%
%TO.N,Net-(Out1-Pin_8)*%
X113030000Y-35560000D03*
%TO.P,PI_to_Header1,9,Pin_9*%
%TO.N,Net-(Out1-Pin_9)*%
X110490000Y-38100000D03*
%TO.P,PI_to_Header1,10,Pin_10*%
%TO.N,Net-(Out1-Pin_10)*%
X113030000Y-38100000D03*
%TO.P,PI_to_Header1,11,Pin_11*%
%TO.N,Net-(Out1-Pin_11)*%
X110490000Y-40640000D03*
%TO.P,PI_to_Header1,12,Pin_12*%
%TO.N,Net-(Out1-Pin_12)*%
X113030000Y-40640000D03*
%TO.P,PI_to_Header1,13,Pin_13*%
%TO.N,Net-(Out1-Pin_13)*%
X110490000Y-43180000D03*
%TO.P,PI_to_Header1,14,Pin_14*%
%TO.N,Net-(Out1-Pin_14)*%
X113030000Y-43180000D03*
%TO.P,PI_to_Header1,15,Pin_15*%
%TO.N,Net-(Out1-Pin_15)*%
X110490000Y-45720000D03*
%TO.P,PI_to_Header1,16,Pin_16*%
%TO.N,Net-(Out1-Pin_16)*%
X113030000Y-45720000D03*
%TO.P,PI_to_Header1,17,Pin_17*%
%TO.N,Net-(Out1-Pin_17)*%
X110490000Y-48260000D03*
%TO.P,PI_to_Header1,18,Pin_18*%
%TO.N,Net-(Out1-Pin_18)*%
X113030000Y-48260000D03*
%TO.P,PI_to_Header1,19,Pin_19*%
%TO.N,Net-(Out1-Pin_19)*%
X110490000Y-50800000D03*
%TO.P,PI_to_Header1,20,Pin_20*%
%TO.N,Net-(Out1-Pin_20)*%
X113030000Y-50800000D03*
%TO.P,PI_to_Header1,21,Pin_21*%
%TO.N,Net-(Out1-Pin_21)*%
X110490000Y-53340000D03*
%TO.P,PI_to_Header1,22,Pin_22*%
%TO.N,Net-(Out1-Pin_22)*%
X113030000Y-53340000D03*
%TO.P,PI_to_Header1,23,Pin_23*%
%TO.N,Net-(Out1-Pin_23)*%
X110490000Y-55880000D03*
%TO.P,PI_to_Header1,24,Pin_24*%
%TO.N,Net-(Out1-Pin_24)*%
X113030000Y-55880000D03*
%TO.P,PI_to_Header1,25,Pin_25*%
%TO.N,Net-(Out1-Pin_25)*%
X110490000Y-58420000D03*
%TO.P,PI_to_Header1,26,Pin_26*%
%TO.N,Net-(Out1-Pin_26)*%
X113030000Y-58420000D03*
%TO.P,PI_to_Header1,27,Pin_27*%
%TO.N,Net-(Out1-Pin_27)*%
X110490000Y-60960000D03*
%TO.P,PI_to_Header1,28,Pin_28*%
%TO.N,Net-(Out1-Pin_28)*%
X113030000Y-60960000D03*
%TO.P,PI_to_Header1,29,Pin_29*%
%TO.N,Net-(Out1-Pin_29)*%
X110490000Y-63500000D03*
%TO.P,PI_to_Header1,30,Pin_30*%
%TO.N,Net-(Out1-Pin_30)*%
X113030000Y-63500000D03*
%TO.P,PI_to_Header1,31,Pin_31*%
%TO.N,Net-(Out1-Pin_31)*%
X110490000Y-66040000D03*
%TO.P,PI_to_Header1,32,Pin_32*%
%TO.N,Net-(Out1-Pin_32)*%
X113030000Y-66040000D03*
%TO.P,PI_to_Header1,33,Pin_33*%
%TO.N,Net-(Out1-Pin_33)*%
X110490000Y-68580000D03*
%TO.P,PI_to_Header1,34,Pin_34*%
%TO.N,Net-(Out1-Pin_34)*%
X113030000Y-68580000D03*
%TO.P,PI_to_Header1,35,Pin_35*%
%TO.N,Net-(Out1-Pin_35)*%
X110490000Y-71120000D03*
%TO.P,PI_to_Header1,36,Pin_36*%
%TO.N,Net-(Out1-Pin_36)*%
X113030000Y-71120000D03*
%TO.P,PI_to_Header1,37,Pin_37*%
%TO.N,Net-(Out1-Pin_37)*%
X110490000Y-73660000D03*
%TO.P,PI_to_Header1,38,Pin_38*%
%TO.N,Net-(Out1-Pin_38)*%
X113030000Y-73660000D03*
%TO.P,PI_to_Header1,39,Pin_39*%
%TO.N,Net-(Out1-Pin_39)*%
X110490000Y-76200000D03*
%TO.P,PI_to_Header1,40,Pin_40*%
%TO.N,Net-(Out1-Pin_40)*%
X113030000Y-76200000D03*
%TD*%
%TO.P,Out1,1,Pin_1*%
%TO.N,Net-(Out1-Pin_1)*%
X119380000Y-27940000D03*
D11*
%TO.P,Out1,2,Pin_2*%
%TO.N,Net-(Out1-Pin_2)*%
X121920000Y-27940000D03*
D10*
%TO.P,Out1,3,Pin_3*%
%TO.N,Net-(Out1-Pin_3)*%
X119380000Y-30480000D03*
%TO.P,Out1,4,Pin_4*%
%TO.N,Net-(Out1-Pin_4)*%
X121920000Y-30480000D03*
%TO.P,Out1,5,Pin_5*%
%TO.N,Net-(Out1-Pin_5)*%
X119380000Y-33020000D03*
%TO.P,Out1,6,Pin_6*%
%TO.N,Net-(Out1-Pin_6)*%
X121920000Y-33020000D03*
%TO.P,Out1,7,Pin_7*%
%TO.N,Net-(Out1-Pin_7)*%
X119380000Y-35560000D03*
%TO.P,Out1,8,Pin_8*%
%TO.N,Net-(Out1-Pin_8)*%
X121920000Y-35560000D03*
%TO.P,Out1,9,Pin_9*%
%TO.N,Net-(Out1-Pin_9)*%
X119380000Y-38100000D03*
%TO.P,Out1,10,Pin_10*%
%TO.N,Net-(Out1-Pin_10)*%
X121920000Y-38100000D03*
%TO.P,Out1,11,Pin_11*%
%TO.N,Net-(Out1-Pin_11)*%
X119380000Y-40640000D03*
%TO.P,Out1,12,Pin_12*%
%TO.N,Net-(Out1-Pin_12)*%
X121920000Y-40640000D03*
%TO.P,Out1,13,Pin_13*%
%TO.N,Net-(Out1-Pin_13)*%
X119380000Y-43180000D03*
%TO.P,Out1,14,Pin_14*%
%TO.N,Net-(Out1-Pin_14)*%
X121920000Y-43180000D03*
%TO.P,Out1,15,Pin_15*%
%TO.N,Net-(Out1-Pin_15)*%
X119380000Y-45720000D03*
%TO.P,Out1,16,Pin_16*%
%TO.N,Net-(Out1-Pin_16)*%
X121920000Y-45720000D03*
%TO.P,Out1,17,Pin_17*%
%TO.N,Net-(Out1-Pin_17)*%
X119380000Y-48260000D03*
%TO.P,Out1,18,Pin_18*%
%TO.N,Net-(Out1-Pin_18)*%
X121920000Y-48260000D03*
%TO.P,Out1,19,Pin_19*%
%TO.N,Net-(Out1-Pin_19)*%
X119380000Y-50800000D03*
%TO.P,Out1,20,Pin_20*%
%TO.N,Net-(Out1-Pin_20)*%
X121920000Y-50800000D03*
%TO.P,Out1,21,Pin_21*%
%TO.N,Net-(Out1-Pin_21)*%
X119380000Y-53340000D03*
%TO.P,Out1,22,Pin_22*%
%TO.N,Net-(Out1-Pin_22)*%
X121920000Y-53340000D03*
%TO.P,Out1,23,Pin_23*%
%TO.N,Net-(Out1-Pin_23)*%
X119380000Y-55880000D03*
%TO.P,Out1,24,Pin_24*%
%TO.N,Net-(Out1-Pin_24)*%
X121920000Y-55880000D03*
%TO.P,Out1,25,Pin_25*%
%TO.N,Net-(Out1-Pin_25)*%
X119380000Y-58420000D03*
%TO.P,Out1,26,Pin_26*%
%TO.N,Net-(Out1-Pin_26)*%
X121920000Y-58420000D03*
%TO.P,Out1,27,Pin_27*%
%TO.N,Net-(Out1-Pin_27)*%
X119380000Y-60960000D03*
%TO.P,Out1,28,Pin_28*%
%TO.N,Net-(Out1-Pin_28)*%
X121920000Y-60960000D03*
%TO.P,Out1,29,Pin_29*%
%TO.N,Net-(Out1-Pin_29)*%
X119380000Y-63500000D03*
%TO.P,Out1,30,Pin_30*%
%TO.N,Net-(Out1-Pin_30)*%
X121920000Y-63500000D03*
%TO.P,Out1,31,Pin_31*%
%TO.N,Net-(Out1-Pin_31)*%
X119380000Y-66040000D03*
%TO.P,Out1,32,Pin_32*%
%TO.N,Net-(Out1-Pin_32)*%
X121920000Y-66040000D03*
%TO.P,Out1,33,Pin_33*%
%TO.N,Net-(Out1-Pin_33)*%
X119380000Y-68580000D03*
%TO.P,Out1,34,Pin_34*%
%TO.N,Net-(Out1-Pin_34)*%
X121920000Y-68580000D03*
%TO.P,Out1,35,Pin_35*%
%TO.N,Net-(Out1-Pin_35)*%
X119380000Y-71120000D03*
%TO.P,Out1,36,Pin_36*%
%TO.N,Net-(Out1-Pin_36)*%
X121920000Y-71120000D03*
%TO.P,Out1,37,Pin_37*%
%TO.N,Net-(Out1-Pin_37)*%
X119380000Y-73660000D03*
%TO.P,Out1,38,Pin_38*%
%TO.N,Net-(Out1-Pin_38)*%
X121920000Y-73660000D03*
%TO.P,Out1,39,Pin_39*%
%TO.N,Net-(Out1-Pin_39)*%
X119380000Y-76200000D03*
%TO.P,Out1,40,Pin_40*%
%TO.N,Net-(Out1-Pin_40)*%
X121920000Y-76200000D03*
%TD*%
D12*
%TO.P,Pi1_to_PiN,1,Pin_1*%
%TO.N,Net-(Out1-Pin_32)*%
X130510000Y-40560000D03*
D13*
%TO.P,Pi1_to_PiN,2,Pin_2*%
%TO.N,Net-(Out1-Pin_36)*%
X130510000Y-38060000D03*
%TO.P,Pi1_to_PiN,3,Pin_3*%
%TO.N,Net-(Out1-Pin_10)*%
X130510000Y-35560000D03*
%TO.P,Pi1_to_PiN,4,Pin_4*%
%TO.N,Net-(Out1-Pin_6)*%
X130510000Y-33060000D03*
%TO.P,Pi1_to_PiN,5,Pin_5*%
%TO.N,Net-(Out1-Pin_15)*%
X130510000Y-30560000D03*
%TD*%
D14*
%TO.N,Net-(Out1-Pin_1)*%
X118256000Y-26816000D02*
X119380000Y-27940000D01*
X111174000Y-26816000D02*
X118256000Y-26816000D01*
X110150000Y-27840000D02*
X111174000Y-26816000D01*
%TO.N,Net-(Out1-Pin_3)*%
X118256000Y-29356000D02*
X119380000Y-30480000D01*
X111174000Y-29356000D02*
X118256000Y-29356000D01*
X110150000Y-30380000D02*
X111174000Y-29356000D01*
%TO.N,Net-(Out1-Pin_5)*%
X118256000Y-31896000D02*
X119380000Y-33020000D01*
X110150000Y-32920000D02*
X111174000Y-31896000D01*
X111174000Y-31896000D02*
X118256000Y-31896000D01*
%TO.N,Net-(Out1-Pin_7)*%
X118256000Y-34436000D02*
X119380000Y-35560000D01*
X110150000Y-35460000D02*
X111174000Y-34436000D01*
X111174000Y-34436000D02*
X118256000Y-34436000D01*
%TO.N,Net-(Out1-Pin_9)*%
X118256000Y-36976000D02*
X119380000Y-38100000D01*
X110150000Y-38000000D02*
X111174000Y-36976000D01*
X111174000Y-36976000D02*
X118256000Y-36976000D01*
%TO.N,Net-(Out1-Pin_11)*%
X111174000Y-39516000D02*
X118256000Y-39516000D01*
X110150000Y-40540000D02*
X111174000Y-39516000D01*
X118256000Y-39516000D02*
X119380000Y-40640000D01*
%TO.N,Net-(Out1-Pin_13)*%
X118256000Y-42056000D02*
X119380000Y-43180000D01*
X111174000Y-42056000D02*
X118256000Y-42056000D01*
X110150000Y-43080000D02*
X111174000Y-42056000D01*
%TO.N,Net-(Out1-Pin_17)*%
X111174000Y-47136000D02*
X118256000Y-47136000D01*
X110150000Y-48160000D02*
X111174000Y-47136000D01*
X118256000Y-47136000D02*
X119380000Y-48260000D01*
%TO.N,Net-(Out1-Pin_19)*%
X110150000Y-50700000D02*
X111174000Y-49676000D01*
X118256000Y-49676000D02*
X119380000Y-50800000D01*
X111174000Y-49676000D02*
X118256000Y-49676000D01*
%TO.N,Net-(Out1-Pin_21)*%
X110150000Y-53240000D02*
X111174000Y-52216000D01*
X111174000Y-52216000D02*
X118256000Y-52216000D01*
X118256000Y-52216000D02*
X119380000Y-53340000D01*
%TO.N,Net-(Out1-Pin_23)*%
X118256000Y-54756000D02*
X119380000Y-55880000D01*
X111174000Y-54756000D02*
X118256000Y-54756000D01*
X110150000Y-55780000D02*
X111174000Y-54756000D01*
%TO.N,Net-(Out1-Pin_25)*%
X110150000Y-58320000D02*
X111174000Y-57296000D01*
X111174000Y-57296000D02*
X118256000Y-57296000D01*
X118256000Y-57296000D02*
X119380000Y-58420000D01*
%TO.N,Net-(Out1-Pin_27)*%
X110150000Y-60860000D02*
X111174000Y-59836000D01*
X118256000Y-59836000D02*
X119380000Y-60960000D01*
X111174000Y-59836000D02*
X118256000Y-59836000D01*
%TO.N,Net-(Out1-Pin_29)*%
X110150000Y-63400000D02*
X111174000Y-62376000D01*
X111174000Y-62376000D02*
X118256000Y-62376000D01*
X118256000Y-62376000D02*
X119380000Y-63500000D01*
%TO.N,Net-(Out1-Pin_31)*%
X110150000Y-65940000D02*
X111174000Y-64916000D01*
X118256000Y-64916000D02*
X119380000Y-66040000D01*
X111174000Y-64916000D02*
X118256000Y-64916000D01*
%TO.N,Net-(Out1-Pin_33)*%
X118256000Y-67456000D02*
X119380000Y-68580000D01*
X110150000Y-68480000D02*
X111174000Y-67456000D01*
X111174000Y-67456000D02*
X118256000Y-67456000D01*
%TO.N,Net-(Out1-Pin_35)*%
X110150000Y-71020000D02*
X111174000Y-69996000D01*
X118256000Y-69996000D02*
X119380000Y-71120000D01*
X111174000Y-69996000D02*
X118256000Y-69996000D01*
%TO.N,Net-(Out1-Pin_37)*%
X110150000Y-73560000D02*
X111174000Y-72536000D01*
X118256000Y-72536000D02*
X119380000Y-73660000D01*
X111174000Y-72536000D02*
X118256000Y-72536000D01*
%TO.N,Net-(Out1-Pin_39)*%
X118256000Y-75076000D02*
X119380000Y-76200000D01*
X111174000Y-75076000D02*
X118256000Y-75076000D01*
X110150000Y-76100000D02*
X111174000Y-75076000D01*
%TO.N,Net-(Out1-Pin_36)*%
X127000000Y-41570000D02*
X127000000Y-66040000D01*
X127000000Y-66040000D02*
X121920000Y-71120000D01*
X130510000Y-38060000D02*
X127000000Y-41570000D01*
%TO.N,Net-(Out1-Pin_15)*%
X111174000Y-44596000D02*
X118256000Y-44596000D01*
X118256000Y-44596000D02*
X119380000Y-45720000D01*
X110150000Y-45620000D02*
X111174000Y-44596000D01*
%TO.N,Net-(Out1-Pin_10)*%
X124460000Y-35560000D02*
X121920000Y-38100000D01*
X130510000Y-35560000D02*
X124460000Y-35560000D01*
%TO.N,Net-(Out1-Pin_6)*%
X121960000Y-33060000D02*
X121920000Y-33020000D01*
X130510000Y-33060000D02*
X121960000Y-33060000D01*
%TD*%
M02*
