%TF.GenerationSoftware,KiCad,Pcbnew,7.0.5*%
%TF.CreationDate,2023-12-19T10:50:23-08:00*%
%TF.ProjectId,Pi1_PiHat,5069315f-5069-4486-9174-2e6b69636164,rev?*%
%TF.SameCoordinates,Original*%
%TF.FileFunction,Soldermask,Bot*%
%TF.FilePolarity,Negative*%
%FSLAX46Y46*%
G04 Gerber Fmt 4.6, Leading zero omitted, Abs format (unit mm)*
G04 Created by KiCad (PCBNEW 7.0.5) date 2023-12-19 10:50:23*
%MOMM*%
%LPD*%
G01*
G04 APERTURE LIST*
G04 Aperture macros list*
%AMRoundRect*
0 Rectangle with rounded corners*
0 $1 Rounding radius*
0 $2 $3 $4 $5 $6 $7 $8 $9 X,Y pos of 4 corners*
0 Add a 4 corners polygon primitive as box body*
4,1,4,$2,$3,$4,$5,$6,$7,$8,$9,$2,$3,0*
0 Add four circle primitives for the rounded corners*
1,1,$1+$1,$2,$3*
1,1,$1+$1,$4,$5*
1,1,$1+$1,$6,$7*
1,1,$1+$1,$8,$9*
0 Add four rect primitives between the rounded corners*
20,1,$1+$1,$2,$3,$4,$5,0*
20,1,$1+$1,$4,$5,$6,$7,0*
20,1,$1+$1,$6,$7,$8,$9,0*
20,1,$1+$1,$8,$9,$2,$3,0*%
G04 Aperture macros list end*
%ADD10RoundRect,0.250000X0.725000X-0.600000X0.725000X0.600000X-0.725000X0.600000X-0.725000X-0.600000X0*%
%ADD11O,1.950000X1.700000*%
%ADD12C,1.398000*%
%ADD13R,1.398000X1.398000*%
%ADD14R,1.700000X1.700000*%
%ADD15O,1.700000X1.700000*%
%ADD16RoundRect,0.250000X0.750000X-0.600000X0.750000X0.600000X-0.750000X0.600000X-0.750000X-0.600000X0*%
%ADD17O,2.000000X1.700000*%
%ADD18RoundRect,0.250000X0.600000X0.725000X-0.600000X0.725000X-0.600000X-0.725000X0.600000X-0.725000X0*%
%ADD19O,1.700000X1.950000*%
%ADD20RoundRect,0.250000X-0.725000X0.600000X-0.725000X-0.600000X0.725000X-0.600000X0.725000X0.600000X0*%
%ADD21C,1.524000*%
%ADD22O,2.500000X5.000000*%
%ADD23O,2.250000X4.500000*%
%ADD24O,4.500000X2.250000*%
G04 APERTURE END LIST*
D10*
%TO.C,AS5600JST1*%
X191470000Y-119320000D03*
D11*
X191470000Y-116820000D03*
X191470000Y-114320000D03*
%TD*%
D12*
%TO.C,J1*%
X182615000Y-86360000D03*
D13*
X185155000Y-86360000D03*
D12*
X182615000Y-88900000D03*
X185155000Y-88900000D03*
X182615000Y-91440000D03*
X185155000Y-91440000D03*
X182615000Y-93980000D03*
X185155000Y-93980000D03*
X182615000Y-96520000D03*
X185155000Y-96520000D03*
X182615000Y-99060000D03*
X185155000Y-99060000D03*
X182615000Y-101600000D03*
X185155000Y-101600000D03*
X182615000Y-104140000D03*
X185155000Y-104140000D03*
X182615000Y-106680000D03*
X185155000Y-106680000D03*
X182615000Y-109220000D03*
X185155000Y-109220000D03*
X182615000Y-111760000D03*
X185155000Y-111760000D03*
X182615000Y-114300000D03*
X185155000Y-114300000D03*
X182615000Y-116840000D03*
X185155000Y-116840000D03*
X182615000Y-119380000D03*
X185155000Y-119380000D03*
X182615000Y-121920000D03*
X185155000Y-121920000D03*
X182615000Y-124460000D03*
X185155000Y-124460000D03*
X182615000Y-127000000D03*
X185155000Y-127000000D03*
X182615000Y-129540000D03*
X185155000Y-129540000D03*
X182615000Y-132080000D03*
X185155000Y-132080000D03*
X182615000Y-134620000D03*
X185155000Y-134620000D03*
%TD*%
D10*
%TO.C,ULTRASONIC1*%
X191470000Y-96460000D03*
D11*
X191470000Y-93960000D03*
X191470000Y-91460000D03*
X191470000Y-88960000D03*
%TD*%
D14*
%TO.C,MOTOR_BP_DISPLAY1*%
X123215000Y-83830000D03*
D15*
X123215000Y-86370000D03*
X123215000Y-88910000D03*
X123215000Y-91450000D03*
%TD*%
D16*
%TO.C,LimitSwitch1*%
X191470000Y-106580000D03*
D17*
X191470000Y-104080000D03*
%TD*%
D14*
%TO.C,AS5600REC_BP_Display1*%
X123215000Y-107950000D03*
D15*
X123215000Y-110490000D03*
X123215000Y-113030000D03*
X123215000Y-115570000D03*
%TD*%
D12*
%TO.C,J2*%
X175260000Y-86360000D03*
D13*
X177800000Y-86360000D03*
D12*
X175260000Y-88900000D03*
X177800000Y-88900000D03*
X175260000Y-91440000D03*
X177800000Y-91440000D03*
X175260000Y-93980000D03*
X177800000Y-93980000D03*
X175260000Y-96520000D03*
X177800000Y-96520000D03*
X175260000Y-99060000D03*
X177800000Y-99060000D03*
X175260000Y-101600000D03*
X177800000Y-101600000D03*
X175260000Y-104140000D03*
X177800000Y-104140000D03*
X175260000Y-106680000D03*
X177800000Y-106680000D03*
X175260000Y-109220000D03*
X177800000Y-109220000D03*
X175260000Y-111760000D03*
X177800000Y-111760000D03*
X175260000Y-114300000D03*
X177800000Y-114300000D03*
X175260000Y-116840000D03*
X177800000Y-116840000D03*
X175260000Y-119380000D03*
X177800000Y-119380000D03*
X175260000Y-121920000D03*
X177800000Y-121920000D03*
X175260000Y-124460000D03*
X177800000Y-124460000D03*
X175260000Y-127000000D03*
X177800000Y-127000000D03*
X175260000Y-129540000D03*
X177800000Y-129540000D03*
X175260000Y-132080000D03*
X177800000Y-132080000D03*
X175260000Y-134620000D03*
X177800000Y-134620000D03*
%TD*%
D18*
%TO.C,Pi3*%
X187920000Y-78740000D03*
D19*
X185420000Y-78740000D03*
X182920000Y-78740000D03*
X180420000Y-78740000D03*
X177920000Y-78740000D03*
%TD*%
D20*
%TO.C,BP_TO_MOTOR1*%
X201930000Y-127080000D03*
D11*
X201930000Y-129580000D03*
X201930000Y-132080000D03*
%TD*%
D18*
%TO.C,Pi4*%
X143510000Y-78740000D03*
D19*
X141010000Y-78740000D03*
X138510000Y-78740000D03*
X136010000Y-78740000D03*
X133510000Y-78740000D03*
%TD*%
D21*
%TO.C,AS5600REC_BP1*%
X129540000Y-134620000D03*
X144780000Y-91440000D03*
X129540000Y-129540000D03*
X129540000Y-132080000D03*
X144780000Y-86360000D03*
X144780000Y-88900000D03*
X144780000Y-93980000D03*
X144780000Y-124460000D03*
X144780000Y-121920000D03*
X144780000Y-119380000D03*
X144780000Y-116840000D03*
X144780000Y-114300000D03*
X144780000Y-111760000D03*
X144780000Y-109220000D03*
X144780000Y-106680000D03*
X129540000Y-96520000D03*
X129540000Y-99060000D03*
X129540000Y-101600000D03*
X129540000Y-104140000D03*
X129540000Y-106680000D03*
X129540000Y-109220000D03*
X144780000Y-104140000D03*
X144780000Y-101600000D03*
X129540000Y-111760000D03*
X129540000Y-114300000D03*
X129540000Y-116840000D03*
X129540000Y-119380000D03*
X129540000Y-121920000D03*
X129540000Y-124460000D03*
X129540000Y-127000000D03*
X144780000Y-99060000D03*
X144780000Y-96520000D03*
X129540000Y-86360000D03*
X129540000Y-88900000D03*
X129540000Y-91440000D03*
X129540000Y-93980000D03*
X144780000Y-132080000D03*
X144780000Y-129540000D03*
X144780000Y-127000000D03*
X144780000Y-134620000D03*
%TD*%
D16*
%TO.C,LimitSwitch2*%
X201295000Y-106680000D03*
D17*
X201295000Y-104180000D03*
%TD*%
D22*
%TO.C,BP_POWER1*%
X123444000Y-130810000D03*
D23*
X117444000Y-130810000D03*
D24*
X120444000Y-135510000D03*
%TD*%
D21*
%TO.C,MOTOR_BP1*%
X153670000Y-134620000D03*
X168910000Y-91440000D03*
X153670000Y-129540000D03*
X153670000Y-132080000D03*
X168910000Y-86360000D03*
X168910000Y-88900000D03*
X168910000Y-93980000D03*
X168910000Y-124460000D03*
X168910000Y-121920000D03*
X168910000Y-119380000D03*
X168910000Y-116840000D03*
X168910000Y-114300000D03*
X168910000Y-111760000D03*
X168910000Y-109220000D03*
X168910000Y-106680000D03*
X153670000Y-96520000D03*
X153670000Y-99060000D03*
X153670000Y-101600000D03*
X153670000Y-104140000D03*
X153670000Y-106680000D03*
X153670000Y-109220000D03*
X168910000Y-104140000D03*
X168910000Y-101600000D03*
X153670000Y-111760000D03*
X153670000Y-114300000D03*
X153670000Y-116840000D03*
X153670000Y-119380000D03*
X153670000Y-121920000D03*
X153670000Y-124460000D03*
X153670000Y-127000000D03*
X168910000Y-99060000D03*
X168910000Y-96520000D03*
X153670000Y-86360000D03*
X153670000Y-88900000D03*
X153670000Y-91440000D03*
X153670000Y-93980000D03*
X168910000Y-132080000D03*
X168910000Y-129540000D03*
X168910000Y-127000000D03*
X168910000Y-134620000D03*
%TD*%
D18*
%TO.C,Pi2*%
X166370000Y-78740000D03*
D19*
X163870000Y-78740000D03*
X161370000Y-78740000D03*
X158870000Y-78740000D03*
X156370000Y-78740000D03*
%TD*%
D10*
%TO.C,AS5600JST2*%
X191470000Y-134560000D03*
D11*
X191470000Y-132060000D03*
X191470000Y-129560000D03*
X191470000Y-127060000D03*
%TD*%
M02*
