%TF.GenerationSoftware,KiCad,Pcbnew,7.0.5*%
%TF.CreationDate,2023-12-19T10:50:23-08:00*%
%TF.ProjectId,Pi1_PiHat,5069315f-5069-4486-9174-2e6b69636164,rev?*%
%TF.SameCoordinates,Original*%
%TF.FileFunction,Copper,L1,Top*%
%TF.FilePolarity,Positive*%
%FSLAX46Y46*%
G04 Gerber Fmt 4.6, Leading zero omitted, Abs format (unit mm)*
G04 Created by KiCad (PCBNEW 7.0.5) date 2023-12-19 10:50:23*
%MOMM*%
%LPD*%
G01*
G04 APERTURE LIST*
G04 Aperture macros list*
%AMRoundRect*
0 Rectangle with rounded corners*
0 $1 Rounding radius*
0 $2 $3 $4 $5 $6 $7 $8 $9 X,Y pos of 4 corners*
0 Add a 4 corners polygon primitive as box body*
4,1,4,$2,$3,$4,$5,$6,$7,$8,$9,$2,$3,0*
0 Add four circle primitives for the rounded corners*
1,1,$1+$1,$2,$3*
1,1,$1+$1,$4,$5*
1,1,$1+$1,$6,$7*
1,1,$1+$1,$8,$9*
0 Add four rect primitives between the rounded corners*
20,1,$1+$1,$2,$3,$4,$5,0*
20,1,$1+$1,$4,$5,$6,$7,0*
20,1,$1+$1,$6,$7,$8,$9,0*
20,1,$1+$1,$8,$9,$2,$3,0*%
G04 Aperture macros list end*
%TA.AperFunction,ComponentPad*%
%ADD10RoundRect,0.250000X0.725000X-0.600000X0.725000X0.600000X-0.725000X0.600000X-0.725000X-0.600000X0*%
%TD*%
%TA.AperFunction,ComponentPad*%
%ADD11O,1.950000X1.700000*%
%TD*%
%TA.AperFunction,ComponentPad*%
%ADD12C,1.398000*%
%TD*%
%TA.AperFunction,ComponentPad*%
%ADD13R,1.398000X1.398000*%
%TD*%
%TA.AperFunction,SMDPad,CuDef*%
%ADD14R,0.970000X1.730000*%
%TD*%
%TA.AperFunction,ComponentPad*%
%ADD15R,1.700000X1.700000*%
%TD*%
%TA.AperFunction,ComponentPad*%
%ADD16O,1.700000X1.700000*%
%TD*%
%TA.AperFunction,ComponentPad*%
%ADD17RoundRect,0.250000X0.750000X-0.600000X0.750000X0.600000X-0.750000X0.600000X-0.750000X-0.600000X0*%
%TD*%
%TA.AperFunction,ComponentPad*%
%ADD18O,2.000000X1.700000*%
%TD*%
%TA.AperFunction,ComponentPad*%
%ADD19RoundRect,0.250000X0.600000X0.725000X-0.600000X0.725000X-0.600000X-0.725000X0.600000X-0.725000X0*%
%TD*%
%TA.AperFunction,ComponentPad*%
%ADD20O,1.700000X1.950000*%
%TD*%
%TA.AperFunction,ComponentPad*%
%ADD21RoundRect,0.250000X-0.725000X0.600000X-0.725000X-0.600000X0.725000X-0.600000X0.725000X0.600000X0*%
%TD*%
%TA.AperFunction,ComponentPad*%
%ADD22C,1.524000*%
%TD*%
%TA.AperFunction,ComponentPad*%
%ADD23O,2.500000X5.000000*%
%TD*%
%TA.AperFunction,ComponentPad*%
%ADD24O,2.250000X4.500000*%
%TD*%
%TA.AperFunction,ComponentPad*%
%ADD25O,4.500000X2.250000*%
%TD*%
%TA.AperFunction,ViaPad*%
%ADD26C,0.800000*%
%TD*%
%TA.AperFunction,Conductor*%
%ADD27C,0.250000*%
%TD*%
G04 APERTURE END LIST*
D10*
%TO.P,AS5600JST1,1,Pin_1*%
%TO.N,Net-(AS5600JST1-Pin_1)*%
X191470000Y-119320000D03*
D11*
%TO.P,AS5600JST1,2,Pin_2*%
%TO.N,unconnected-(AS5600JST1-Pin_2-Pad2)*%
X191470000Y-116820000D03*
%TO.P,AS5600JST1,3,Pin_3*%
%TO.N,Net-(AS5600JST1-Pin_3)*%
X191470000Y-114320000D03*
%TD*%
D12*
%TO.P,J1,1,Pin_1*%
%TO.N,Net-(J1-Pin_1)*%
X182615000Y-86360000D03*
D13*
%TO.P,J1,2,Pin_2*%
%TO.N,Net-(J1-Pin_2)*%
X185155000Y-86360000D03*
D12*
%TO.P,J1,3,Pin_3*%
%TO.N,Net-(J1-Pin_3)*%
X182615000Y-88900000D03*
%TO.P,J1,4,Pin_4*%
%TO.N,Net-(J1-Pin_4)*%
X185155000Y-88900000D03*
%TO.P,J1,5,Pin_5*%
%TO.N,Net-(J1-Pin_5)*%
X182615000Y-91440000D03*
%TO.P,J1,6,Pin_6*%
%TO.N,Net-(J1-Pin_6)*%
X185155000Y-91440000D03*
%TO.P,J1,7,Pin_7*%
%TO.N,Net-(J1-Pin_7)*%
X182615000Y-93980000D03*
%TO.P,J1,8,Pin_8*%
%TO.N,Net-(J1-Pin_8)*%
X185155000Y-93980000D03*
%TO.P,J1,9,Pin_9*%
%TO.N,Net-(J1-Pin_9)*%
X182615000Y-96520000D03*
%TO.P,J1,10,Pin_10*%
%TO.N,Net-(J1-Pin_10)*%
X185155000Y-96520000D03*
%TO.P,J1,11,Pin_11*%
%TO.N,Net-(J1-Pin_11)*%
X182615000Y-99060000D03*
%TO.P,J1,12,Pin_12*%
%TO.N,Net-(J1-Pin_12)*%
X185155000Y-99060000D03*
%TO.P,J1,13,Pin_13*%
%TO.N,Net-(J1-Pin_13)*%
X182615000Y-101600000D03*
%TO.P,J1,14,Pin_14*%
%TO.N,Net-(J1-Pin_14)*%
X185155000Y-101600000D03*
%TO.P,J1,15,Pin_15*%
%TO.N,Net-(J1-Pin_15)*%
X182615000Y-104140000D03*
%TO.P,J1,16,Pin_16*%
%TO.N,Net-(J1-Pin_16)*%
X185155000Y-104140000D03*
%TO.P,J1,17,Pin_17*%
%TO.N,Net-(J1-Pin_17)*%
X182615000Y-106680000D03*
%TO.P,J1,18,Pin_18*%
%TO.N,Net-(J1-Pin_18)*%
X185155000Y-106680000D03*
%TO.P,J1,19,Pin_19*%
%TO.N,Net-(J1-Pin_19)*%
X182615000Y-109220000D03*
%TO.P,J1,20,Pin_20*%
%TO.N,Net-(J1-Pin_20)*%
X185155000Y-109220000D03*
%TO.P,J1,21,Pin_21*%
%TO.N,Net-(J1-Pin_21)*%
X182615000Y-111760000D03*
%TO.P,J1,22,Pin_22*%
%TO.N,Net-(J1-Pin_22)*%
X185155000Y-111760000D03*
%TO.P,J1,23,Pin_23*%
%TO.N,Net-(J1-Pin_23)*%
X182615000Y-114300000D03*
%TO.P,J1,24,Pin_24*%
%TO.N,Net-(J1-Pin_24)*%
X185155000Y-114300000D03*
%TO.P,J1,25,Pin_25*%
%TO.N,Net-(J1-Pin_25)*%
X182615000Y-116840000D03*
%TO.P,J1,26,Pin_26*%
%TO.N,Net-(J1-Pin_26)*%
X185155000Y-116840000D03*
%TO.P,J1,27,Pin_27*%
%TO.N,Net-(J1-Pin_27)*%
X182615000Y-119380000D03*
%TO.P,J1,28,Pin_28*%
%TO.N,Net-(J1-Pin_28)*%
X185155000Y-119380000D03*
%TO.P,J1,29,Pin_29*%
%TO.N,Net-(J1-Pin_29)*%
X182615000Y-121920000D03*
%TO.P,J1,30,Pin_30*%
%TO.N,Net-(J1-Pin_30)*%
X185155000Y-121920000D03*
%TO.P,J1,31,Pin_31*%
%TO.N,Net-(J1-Pin_31)*%
X182615000Y-124460000D03*
%TO.P,J1,32,Pin_32*%
%TO.N,Net-(J1-Pin_32)*%
X185155000Y-124460000D03*
%TO.P,J1,33,Pin_33*%
%TO.N,Net-(J1-Pin_33)*%
X182615000Y-127000000D03*
%TO.P,J1,34,Pin_34*%
%TO.N,Net-(AS5600JST1-Pin_3)*%
X185155000Y-127000000D03*
%TO.P,J1,35,Pin_35*%
%TO.N,Net-(J1-Pin_35)*%
X182615000Y-129540000D03*
%TO.P,J1,36,Pin_36*%
%TO.N,Net-(J1-Pin_36)*%
X185155000Y-129540000D03*
%TO.P,J1,37,Pin_37*%
%TO.N,Net-(J1-Pin_37)*%
X182615000Y-132080000D03*
%TO.P,J1,38,Pin_38*%
%TO.N,Net-(J1-Pin_38)*%
X185155000Y-132080000D03*
%TO.P,J1,39,Pin_39*%
%TO.N,Net-(J1-Pin_39)*%
X182615000Y-134620000D03*
%TO.P,J1,40,Pin_40*%
%TO.N,Net-(J1-Pin_40)*%
X185155000Y-134620000D03*
%TD*%
D14*
%TO.P,SDA_Pull_Up1,1*%
%TO.N,Net-(AS5600JST1-Pin_1)*%
X200240000Y-116840000D03*
%TO.P,SDA_Pull_Up1,2*%
%TO.N,Net-(AS5600JST2-Pin_3)*%
X203200000Y-116840000D03*
%TD*%
D10*
%TO.P,ULTRASONIC1,1,Pin_1*%
%TO.N,Net-(J1-Pin_2)*%
X191470000Y-96460000D03*
D11*
%TO.P,ULTRASONIC1,2,Pin_2*%
%TO.N,Net-(J1-Pin_11)*%
X191470000Y-93960000D03*
%TO.P,ULTRASONIC1,3,Pin_3*%
%TO.N,Net-(J1-Pin_13)*%
X191470000Y-91460000D03*
%TO.P,ULTRASONIC1,4,Pin_4*%
%TO.N,Net-(J1-Pin_39)*%
X191470000Y-88960000D03*
%TD*%
D15*
%TO.P,MOTOR_BP_DISPLAY1,1,Pin_1*%
%TO.N,Net-(AS5600JST1-Pin_3)*%
X123215000Y-83830000D03*
D16*
%TO.P,MOTOR_BP_DISPLAY1,2,Pin_2*%
%TO.N,Net-(AS5600JST1-Pin_1)*%
X123215000Y-86370000D03*
%TO.P,MOTOR_BP_DISPLAY1,3,Pin_3*%
%TO.N,Net-(MOTOR_BP_DISPLAY1-Pin_3)*%
X123215000Y-88910000D03*
%TO.P,MOTOR_BP_DISPLAY1,4,Pin_4*%
%TO.N,Net-(MOTOR_BP_DISPLAY1-Pin_4)*%
X123215000Y-91450000D03*
%TD*%
D17*
%TO.P,LimitSwitch1,1,Pin_1*%
%TO.N,Net-(J1-Pin_1)*%
X191470000Y-106580000D03*
D18*
%TO.P,LimitSwitch1,2,Pin_2*%
%TO.N,Net-(J1-Pin_15)*%
X191470000Y-104080000D03*
%TD*%
D15*
%TO.P,AS5600REC_BP_Display1,1,Pin_1*%
%TO.N,Net-(AS5600JST1-Pin_3)*%
X123215000Y-107950000D03*
D16*
%TO.P,AS5600REC_BP_Display1,2,Pin_2*%
%TO.N,Net-(AS5600JST1-Pin_1)*%
X123215000Y-110490000D03*
%TO.P,AS5600REC_BP_Display1,3,Pin_3*%
%TO.N,Net-(AS5600REC_BP_Display1-Pin_3)*%
X123215000Y-113030000D03*
%TO.P,AS5600REC_BP_Display1,4,Pin_4*%
%TO.N,Net-(AS5600REC_BP_Display1-Pin_4)*%
X123215000Y-115570000D03*
%TD*%
D12*
%TO.P,J2,1,Pin_1*%
%TO.N,Net-(J1-Pin_1)*%
X175260000Y-86360000D03*
D13*
%TO.P,J2,2,Pin_2*%
%TO.N,Net-(J1-Pin_2)*%
X177800000Y-86360000D03*
D12*
%TO.P,J2,3,Pin_3*%
%TO.N,Net-(J1-Pin_3)*%
X175260000Y-88900000D03*
%TO.P,J2,4,Pin_4*%
%TO.N,Net-(J1-Pin_4)*%
X177800000Y-88900000D03*
%TO.P,J2,5,Pin_5*%
%TO.N,Net-(J1-Pin_5)*%
X175260000Y-91440000D03*
%TO.P,J2,6,Pin_6*%
%TO.N,Net-(J1-Pin_6)*%
X177800000Y-91440000D03*
%TO.P,J2,7,Pin_7*%
%TO.N,Net-(J1-Pin_7)*%
X175260000Y-93980000D03*
%TO.P,J2,8,Pin_8*%
%TO.N,Net-(J1-Pin_8)*%
X177800000Y-93980000D03*
%TO.P,J2,9,Pin_9*%
%TO.N,Net-(J1-Pin_9)*%
X175260000Y-96520000D03*
%TO.P,J2,10,Pin_10*%
%TO.N,Net-(J1-Pin_10)*%
X177800000Y-96520000D03*
%TO.P,J2,11,Pin_11*%
%TO.N,Net-(J1-Pin_11)*%
X175260000Y-99060000D03*
%TO.P,J2,12,Pin_12*%
%TO.N,Net-(J1-Pin_12)*%
X177800000Y-99060000D03*
%TO.P,J2,13,Pin_13*%
%TO.N,Net-(J1-Pin_13)*%
X175260000Y-101600000D03*
%TO.P,J2,14,Pin_14*%
%TO.N,Net-(J1-Pin_14)*%
X177800000Y-101600000D03*
%TO.P,J2,15,Pin_15*%
%TO.N,Net-(J1-Pin_15)*%
X175260000Y-104140000D03*
%TO.P,J2,16,Pin_16*%
%TO.N,Net-(J1-Pin_16)*%
X177800000Y-104140000D03*
%TO.P,J2,17,Pin_17*%
%TO.N,Net-(J1-Pin_17)*%
X175260000Y-106680000D03*
%TO.P,J2,18,Pin_18*%
%TO.N,Net-(J1-Pin_18)*%
X177800000Y-106680000D03*
%TO.P,J2,19,Pin_19*%
%TO.N,Net-(J1-Pin_19)*%
X175260000Y-109220000D03*
%TO.P,J2,20,Pin_20*%
%TO.N,Net-(J1-Pin_20)*%
X177800000Y-109220000D03*
%TO.P,J2,21,Pin_21*%
%TO.N,Net-(J1-Pin_21)*%
X175260000Y-111760000D03*
%TO.P,J2,22,Pin_22*%
%TO.N,Net-(J1-Pin_22)*%
X177800000Y-111760000D03*
%TO.P,J2,23,Pin_23*%
%TO.N,Net-(J1-Pin_23)*%
X175260000Y-114300000D03*
%TO.P,J2,24,Pin_24*%
%TO.N,Net-(J1-Pin_24)*%
X177800000Y-114300000D03*
%TO.P,J2,25,Pin_25*%
%TO.N,Net-(J1-Pin_25)*%
X175260000Y-116840000D03*
%TO.P,J2,26,Pin_26*%
%TO.N,Net-(J1-Pin_26)*%
X177800000Y-116840000D03*
%TO.P,J2,27,Pin_27*%
%TO.N,Net-(J1-Pin_27)*%
X175260000Y-119380000D03*
%TO.P,J2,28,Pin_28*%
%TO.N,Net-(J1-Pin_28)*%
X177800000Y-119380000D03*
%TO.P,J2,29,Pin_29*%
%TO.N,Net-(J1-Pin_29)*%
X175260000Y-121920000D03*
%TO.P,J2,30,Pin_30*%
%TO.N,Net-(J1-Pin_30)*%
X177800000Y-121920000D03*
%TO.P,J2,31,Pin_31*%
%TO.N,Net-(J1-Pin_31)*%
X175260000Y-124460000D03*
%TO.P,J2,32,Pin_32*%
%TO.N,Net-(J1-Pin_32)*%
X177800000Y-124460000D03*
%TO.P,J2,33,Pin_33*%
%TO.N,Net-(J1-Pin_33)*%
X175260000Y-127000000D03*
%TO.P,J2,34,Pin_34*%
%TO.N,Net-(AS5600JST1-Pin_3)*%
X177800000Y-127000000D03*
%TO.P,J2,35,Pin_35*%
%TO.N,Net-(J1-Pin_35)*%
X175260000Y-129540000D03*
%TO.P,J2,36,Pin_36*%
%TO.N,Net-(J1-Pin_36)*%
X177800000Y-129540000D03*
%TO.P,J2,37,Pin_37*%
%TO.N,Net-(J1-Pin_37)*%
X175260000Y-132080000D03*
%TO.P,J2,38,Pin_38*%
%TO.N,Net-(J1-Pin_38)*%
X177800000Y-132080000D03*
%TO.P,J2,39,Pin_39*%
%TO.N,Net-(J1-Pin_39)*%
X175260000Y-134620000D03*
%TO.P,J2,40,Pin_40*%
%TO.N,Net-(J1-Pin_40)*%
X177800000Y-134620000D03*
%TD*%
D19*
%TO.P,Pi3,1,Pin_1*%
%TO.N,Net-(Pi3-Pin_1)*%
X187920000Y-78740000D03*
D20*
%TO.P,Pi3,2,Pin_2*%
%TO.N,Net-(Pi3-Pin_2)*%
X185420000Y-78740000D03*
%TO.P,Pi3,3,Pin_3*%
%TO.N,Net-(J1-Pin_10)*%
X182920000Y-78740000D03*
%TO.P,Pi3,4,Pin_4*%
%TO.N,Net-(AS5600JST1-Pin_3)*%
X180420000Y-78740000D03*
%TO.P,Pi3,5,Pin_5*%
%TO.N,Net-(J1-Pin_15)*%
X177920000Y-78740000D03*
%TD*%
D21*
%TO.P,BP_TO_MOTOR1,1,Pin_1*%
%TO.N,Net-(BP_TO_MOTOR1-Pin_1)*%
X201930000Y-127080000D03*
D11*
%TO.P,BP_TO_MOTOR1,2,Pin_2*%
%TO.N,Net-(BP_TO_MOTOR1-Pin_2)*%
X201930000Y-129580000D03*
%TO.P,BP_TO_MOTOR1,3,Pin_3*%
%TO.N,Net-(AS5600JST1-Pin_3)*%
X201930000Y-132080000D03*
%TD*%
D19*
%TO.P,Pi4,1,Pin_1*%
%TO.N,Net-(Pi4-Pin_1)*%
X143510000Y-78740000D03*
D20*
%TO.P,Pi4,2,Pin_2*%
%TO.N,Net-(Pi4-Pin_2)*%
X141010000Y-78740000D03*
%TO.P,Pi4,3,Pin_3*%
%TO.N,Net-(J1-Pin_10)*%
X138510000Y-78740000D03*
%TO.P,Pi4,4,Pin_4*%
%TO.N,Net-(AS5600JST1-Pin_3)*%
X136010000Y-78740000D03*
%TO.P,Pi4,5,Pin_5*%
%TO.N,Net-(J1-Pin_15)*%
X133510000Y-78740000D03*
%TD*%
D22*
%TO.P,AS5600REC_BP1,3V3,3.3V*%
%TO.N,Net-(AS5600JST1-Pin_1)*%
X129540000Y-134620000D03*
X144780000Y-91440000D03*
%TO.P,AS5600REC_BP1,5V,5V*%
%TO.N,unconnected-(AS5600REC_BP1-Pad5V)*%
X129540000Y-129540000D03*
%TO.P,AS5600REC_BP1,GND,GND*%
%TO.N,Net-(AS5600JST1-Pin_3)*%
X129540000Y-132080000D03*
X144780000Y-86360000D03*
X144780000Y-88900000D03*
%TO.P,AS5600REC_BP1,NRST,RESET*%
%TO.N,unconnected-(AS5600REC_BP1-RESET-PadNRST)*%
X144780000Y-93980000D03*
%TO.P,AS5600REC_BP1,PA0,PA0*%
%TO.N,unconnected-(AS5600REC_BP1-PadPA0)*%
X144780000Y-124460000D03*
%TO.P,AS5600REC_BP1,PA1,20*%
%TO.N,unconnected-(AS5600REC_BP1-20-PadPA1)*%
X144780000Y-121920000D03*
%TO.P,AS5600REC_BP1,PA2,PA2*%
%TO.N,unconnected-(AS5600REC_BP1-PadPA2)*%
X144780000Y-119380000D03*
%TO.P,AS5600REC_BP1,PA3,PA3*%
%TO.N,unconnected-(AS5600REC_BP1-PadPA3)*%
X144780000Y-116840000D03*
%TO.P,AS5600REC_BP1,PA4,PA4*%
%TO.N,unconnected-(AS5600REC_BP1-PadPA4)*%
X144780000Y-114300000D03*
%TO.P,AS5600REC_BP1,PA5,PA5*%
%TO.N,unconnected-(AS5600REC_BP1-PadPA5)*%
X144780000Y-111760000D03*
%TO.P,AS5600REC_BP1,PA6,PA6*%
%TO.N,unconnected-(AS5600REC_BP1-PadPA6)*%
X144780000Y-109220000D03*
%TO.P,AS5600REC_BP1,PA7,PA7*%
%TO.N,unconnected-(AS5600REC_BP1-PadPA7)*%
X144780000Y-106680000D03*
%TO.P,AS5600REC_BP1,PA8,PA8*%
%TO.N,unconnected-(AS5600REC_BP1-PadPA8)*%
X129540000Y-96520000D03*
%TO.P,AS5600REC_BP1,PA9,PA9*%
%TO.N,Net-(J1-Pin_10)*%
X129540000Y-99060000D03*
%TO.P,AS5600REC_BP1,PA10,PA10*%
%TO.N,unconnected-(AS5600REC_BP1-PadPA10)*%
X129540000Y-101600000D03*
%TO.P,AS5600REC_BP1,PA11,PA11*%
%TO.N,unconnected-(AS5600REC_BP1-PadPA11)*%
X129540000Y-104140000D03*
%TO.P,AS5600REC_BP1,PA12,PA12*%
%TO.N,unconnected-(AS5600REC_BP1-PadPA12)*%
X129540000Y-106680000D03*
%TO.P,AS5600REC_BP1,PA15,PA15*%
%TO.N,unconnected-(AS5600REC_BP1-PadPA15)*%
X129540000Y-109220000D03*
%TO.P,AS5600REC_BP1,PB0,PB0*%
%TO.N,unconnected-(AS5600REC_BP1-PadPB0)*%
X144780000Y-104140000D03*
%TO.P,AS5600REC_BP1,PB1,PB1*%
%TO.N,unconnected-(AS5600REC_BP1-PadPB1)*%
X144780000Y-101600000D03*
%TO.P,AS5600REC_BP1,PB3,PB3*%
%TO.N,unconnected-(AS5600REC_BP1-PadPB3)*%
X129540000Y-111760000D03*
%TO.P,AS5600REC_BP1,PB4,PB4*%
%TO.N,unconnected-(AS5600REC_BP1-PadPB4)*%
X129540000Y-114300000D03*
%TO.P,AS5600REC_BP1,PB5,PB5*%
%TO.N,unconnected-(AS5600REC_BP1-PadPB5)*%
X129540000Y-116840000D03*
%TO.P,AS5600REC_BP1,PB6,PB6*%
%TO.N,Net-(AS5600JST2-Pin_3)*%
X129540000Y-119380000D03*
%TO.P,AS5600REC_BP1,PB7,PB7*%
%TO.N,Net-(AS5600JST2-Pin_2)*%
X129540000Y-121920000D03*
%TO.P,AS5600REC_BP1,PB8,PB8*%
%TO.N,unconnected-(AS5600REC_BP1-PadPB8)*%
X129540000Y-124460000D03*
%TO.P,AS5600REC_BP1,PB9,PB9*%
%TO.N,unconnected-(AS5600REC_BP1-PadPB9)*%
X129540000Y-127000000D03*
%TO.P,AS5600REC_BP1,PB10,PB10*%
%TO.N,Net-(AS5600REC_BP_Display1-Pin_3)*%
X144780000Y-99060000D03*
%TO.P,AS5600REC_BP1,PB11,PB11*%
%TO.N,Net-(AS5600REC_BP_Display1-Pin_4)*%
X144780000Y-96520000D03*
%TO.P,AS5600REC_BP1,PB12,PB12*%
%TO.N,unconnected-(AS5600REC_BP1-PadPB12)*%
X129540000Y-86360000D03*
%TO.P,AS5600REC_BP1,PB13,PB13*%
%TO.N,unconnected-(AS5600REC_BP1-PadPB13)*%
X129540000Y-88900000D03*
%TO.P,AS5600REC_BP1,PB14,PB14*%
%TO.N,unconnected-(AS5600REC_BP1-PadPB14)*%
X129540000Y-91440000D03*
%TO.P,AS5600REC_BP1,PB15,PB15*%
%TO.N,unconnected-(AS5600REC_BP1-PadPB15)*%
X129540000Y-93980000D03*
%TO.P,AS5600REC_BP1,PC13,PC13*%
%TO.N,unconnected-(AS5600REC_BP1-PadPC13)*%
X144780000Y-132080000D03*
%TO.P,AS5600REC_BP1,PC14,PC14*%
%TO.N,unconnected-(AS5600REC_BP1-PadPC14)*%
X144780000Y-129540000D03*
%TO.P,AS5600REC_BP1,PC15,PC15*%
%TO.N,unconnected-(AS5600REC_BP1-PadPC15)*%
X144780000Y-127000000D03*
%TO.P,AS5600REC_BP1,VBAT,Vbat*%
%TO.N,unconnected-(AS5600REC_BP1-Vbat-PadVBAT)*%
X144780000Y-134620000D03*
%TD*%
D14*
%TO.P,SCL_Pull_Up1,1*%
%TO.N,Net-(AS5600JST1-Pin_1)*%
X200240000Y-113030000D03*
%TO.P,SCL_Pull_Up1,2*%
%TO.N,Net-(AS5600JST2-Pin_2)*%
X203200000Y-113030000D03*
%TD*%
D17*
%TO.P,LimitSwitch2,1,Pin_1*%
%TO.N,Net-(J1-Pin_1)*%
X201295000Y-106680000D03*
D18*
%TO.P,LimitSwitch2,2,Pin_2*%
%TO.N,Net-(J1-Pin_15)*%
X201295000Y-104180000D03*
%TD*%
D23*
%TO.P,BP_POWER1,1*%
%TO.N,Net-(AS5600JST1-Pin_1)*%
X123444000Y-130810000D03*
D24*
%TO.P,BP_POWER1,2*%
%TO.N,Net-(AS5600JST1-Pin_3)*%
X117444000Y-130810000D03*
D25*
%TO.P,BP_POWER1,3*%
%TO.N,unconnected-(BP_POWER1-Pad3)*%
X120444000Y-135510000D03*
%TD*%
D22*
%TO.P,MOTOR_BP1,3V3,3.3V*%
%TO.N,Net-(AS5600JST1-Pin_1)*%
X153670000Y-134620000D03*
X168910000Y-91440000D03*
%TO.P,MOTOR_BP1,5V,5V*%
%TO.N,unconnected-(MOTOR_BP1-Pad5V)*%
X153670000Y-129540000D03*
%TO.P,MOTOR_BP1,GND,GND*%
%TO.N,Net-(AS5600JST1-Pin_3)*%
X153670000Y-132080000D03*
X168910000Y-86360000D03*
X168910000Y-88900000D03*
%TO.P,MOTOR_BP1,NRST,RESET*%
%TO.N,unconnected-(MOTOR_BP1-RESET-PadNRST)*%
X168910000Y-93980000D03*
%TO.P,MOTOR_BP1,PA0,PA0*%
%TO.N,unconnected-(MOTOR_BP1-PadPA0)*%
X168910000Y-124460000D03*
%TO.P,MOTOR_BP1,PA1,20*%
%TO.N,unconnected-(MOTOR_BP1-20-PadPA1)*%
X168910000Y-121920000D03*
%TO.P,MOTOR_BP1,PA2,PA2*%
%TO.N,unconnected-(MOTOR_BP1-PadPA2)*%
X168910000Y-119380000D03*
%TO.P,MOTOR_BP1,PA3,PA3*%
%TO.N,unconnected-(MOTOR_BP1-PadPA3)*%
X168910000Y-116840000D03*
%TO.P,MOTOR_BP1,PA4,PA4*%
%TO.N,unconnected-(MOTOR_BP1-PadPA4)*%
X168910000Y-114300000D03*
%TO.P,MOTOR_BP1,PA5,PA5*%
%TO.N,unconnected-(MOTOR_BP1-PadPA5)*%
X168910000Y-111760000D03*
%TO.P,MOTOR_BP1,PA6,PA6*%
%TO.N,unconnected-(MOTOR_BP1-PadPA6)*%
X168910000Y-109220000D03*
%TO.P,MOTOR_BP1,PA7,PA7*%
%TO.N,unconnected-(MOTOR_BP1-PadPA7)*%
X168910000Y-106680000D03*
%TO.P,MOTOR_BP1,PA8,PA8*%
%TO.N,Net-(Pi2-Pin_1)*%
X153670000Y-96520000D03*
%TO.P,MOTOR_BP1,PA9,PA9*%
%TO.N,unconnected-(MOTOR_BP1-PadPA9)*%
X153670000Y-99060000D03*
%TO.P,MOTOR_BP1,PA10,PA10*%
%TO.N,Net-(Pi3-Pin_1)*%
X153670000Y-101600000D03*
%TO.P,MOTOR_BP1,PA11,PA11*%
%TO.N,Net-(Pi3-Pin_2)*%
X153670000Y-104140000D03*
%TO.P,MOTOR_BP1,PA12,PA12*%
%TO.N,unconnected-(MOTOR_BP1-PadPA12)*%
X153670000Y-106680000D03*
%TO.P,MOTOR_BP1,PA15,PA15*%
%TO.N,Net-(Pi4-Pin_1)*%
X153670000Y-109220000D03*
%TO.P,MOTOR_BP1,PB0,PB0*%
%TO.N,unconnected-(MOTOR_BP1-PadPB0)*%
X168910000Y-104140000D03*
%TO.P,MOTOR_BP1,PB1,PB1*%
%TO.N,unconnected-(MOTOR_BP1-PadPB1)*%
X168910000Y-101600000D03*
%TO.P,MOTOR_BP1,PB3,PB3*%
%TO.N,Net-(Pi4-Pin_2)*%
X153670000Y-111760000D03*
%TO.P,MOTOR_BP1,PB4,PB4*%
%TO.N,unconnected-(MOTOR_BP1-PadPB4)*%
X153670000Y-114300000D03*
%TO.P,MOTOR_BP1,PB5,PB5*%
%TO.N,unconnected-(MOTOR_BP1-PadPB5)*%
X153670000Y-116840000D03*
%TO.P,MOTOR_BP1,PB6,PB6*%
%TO.N,Net-(BP_TO_MOTOR1-Pin_2)*%
X153670000Y-119380000D03*
%TO.P,MOTOR_BP1,PB7,PB7*%
%TO.N,Net-(BP_TO_MOTOR1-Pin_1)*%
X153670000Y-121920000D03*
%TO.P,MOTOR_BP1,PB8,PB8*%
%TO.N,unconnected-(MOTOR_BP1-PadPB8)*%
X153670000Y-124460000D03*
%TO.P,MOTOR_BP1,PB9,PB9*%
%TO.N,unconnected-(MOTOR_BP1-PadPB9)*%
X153670000Y-127000000D03*
%TO.P,MOTOR_BP1,PB10,PB10*%
%TO.N,Net-(MOTOR_BP_DISPLAY1-Pin_3)*%
X168910000Y-99060000D03*
%TO.P,MOTOR_BP1,PB11,PB11*%
%TO.N,Net-(MOTOR_BP_DISPLAY1-Pin_4)*%
X168910000Y-96520000D03*
%TO.P,MOTOR_BP1,PB12,PB12*%
%TO.N,Net-(J1-Pin_32)*%
X153670000Y-86360000D03*
%TO.P,MOTOR_BP1,PB13,PB13*%
%TO.N,Net-(J1-Pin_36)*%
X153670000Y-88900000D03*
%TO.P,MOTOR_BP1,PB14,PB14*%
%TO.N,unconnected-(MOTOR_BP1-PadPB14)*%
X153670000Y-91440000D03*
%TO.P,MOTOR_BP1,PB15,PB15*%
%TO.N,Net-(Pi2-Pin_2)*%
X153670000Y-93980000D03*
%TO.P,MOTOR_BP1,PC13,PC13*%
%TO.N,unconnected-(MOTOR_BP1-PadPC13)*%
X168910000Y-132080000D03*
%TO.P,MOTOR_BP1,PC14,PC14*%
%TO.N,unconnected-(MOTOR_BP1-PadPC14)*%
X168910000Y-129540000D03*
%TO.P,MOTOR_BP1,PC15,PC15*%
%TO.N,unconnected-(MOTOR_BP1-PadPC15)*%
X168910000Y-127000000D03*
%TO.P,MOTOR_BP1,VBAT,Vbat*%
%TO.N,unconnected-(MOTOR_BP1-Vbat-PadVBAT)*%
X168910000Y-134620000D03*
%TD*%
D19*
%TO.P,Pi2,1,Pin_1*%
%TO.N,Net-(Pi2-Pin_1)*%
X166370000Y-78740000D03*
D20*
%TO.P,Pi2,2,Pin_2*%
%TO.N,Net-(Pi2-Pin_2)*%
X163870000Y-78740000D03*
%TO.P,Pi2,3,Pin_3*%
%TO.N,Net-(J1-Pin_10)*%
X161370000Y-78740000D03*
%TO.P,Pi2,4,Pin_4*%
%TO.N,Net-(AS5600JST1-Pin_3)*%
X158870000Y-78740000D03*
%TO.P,Pi2,5,Pin_5*%
%TO.N,Net-(J1-Pin_15)*%
X156370000Y-78740000D03*
%TD*%
D10*
%TO.P,AS5600JST2,1,Pin_1*%
%TO.N,unconnected-(AS5600JST2-Pin_1-Pad1)*%
X191470000Y-134560000D03*
D11*
%TO.P,AS5600JST2,2,Pin_2*%
%TO.N,Net-(AS5600JST2-Pin_2)*%
X191470000Y-132060000D03*
%TO.P,AS5600JST2,3,Pin_3*%
%TO.N,Net-(AS5600JST2-Pin_3)*%
X191470000Y-129560000D03*
%TO.P,AS5600JST2,4,Pin_4*%
%TO.N,unconnected-(AS5600JST2-Pin_4-Pad4)*%
X191470000Y-127060000D03*
%TD*%
D26*
%TO.N,Net-(J1-Pin_1)*%
X198610500Y-107315000D03*
X191770000Y-110490000D03*
%TO.N,Net-(J1-Pin_2)*%
X191770000Y-100330000D03*
X189409500Y-100330000D03*
%TO.N,Net-(J1-Pin_10)*%
X158750000Y-90170000D03*
X167446075Y-92903924D03*
%TO.N,Net-(J1-Pin_13)*%
X187960000Y-107950000D03*
%TO.N,Net-(J1-Pin_39)*%
X187960000Y-88900000D03*
%TO.N,Net-(AS5600JST1-Pin_3)*%
X180340000Y-127000000D03*
X125730000Y-106680000D03*
%TD*%
D27*
%TO.N,Net-(J1-Pin_1)*%
X195435500Y-110490000D02*
X198610500Y-107315000D01*
X183639000Y-87384000D02*
X182615000Y-86360000D01*
X185087155Y-87384000D02*
X183639000Y-87384000D01*
X191770000Y-110490000D02*
X195435500Y-110490000D01*
X181591000Y-87384000D02*
X182615000Y-86360000D01*
X188618223Y-105255000D02*
X190145000Y-105255000D01*
X191470000Y-106580000D02*
X190145000Y-105255000D01*
X187096612Y-89393457D02*
X187096612Y-103733389D01*
X175260000Y-86360000D02*
X176284000Y-87384000D01*
X176284000Y-87384000D02*
X181591000Y-87384000D01*
X185087155Y-87384000D02*
X187096612Y-89393457D01*
X187096612Y-103733389D02*
X188618223Y-105255000D01*
%TO.N,Net-(J1-Pin_2)*%
X178824000Y-85336000D02*
X184131000Y-85336000D01*
X177800000Y-86360000D02*
X178824000Y-85336000D01*
X189409500Y-100330000D02*
X191770000Y-100330000D01*
X184131000Y-85336000D02*
X185155000Y-86360000D01*
%TO.N,Net-(J1-Pin_3)*%
X176284000Y-87876000D02*
X181591000Y-87876000D01*
X175260000Y-88900000D02*
X176284000Y-87876000D01*
X181591000Y-87876000D02*
X182615000Y-88900000D01*
%TO.N,Net-(J1-Pin_4)*%
X177800000Y-88900000D02*
X178824000Y-89924000D01*
X184131000Y-89924000D02*
X185155000Y-88900000D01*
X178824000Y-89924000D02*
X184131000Y-89924000D01*
%TO.N,Net-(J1-Pin_5)*%
X176284000Y-90416000D02*
X181591000Y-90416000D01*
X175260000Y-91440000D02*
X176284000Y-90416000D01*
X181591000Y-90416000D02*
X182615000Y-91440000D01*
%TO.N,Net-(J1-Pin_6)*%
X184131000Y-92464000D02*
X185155000Y-91440000D01*
X178824000Y-92464000D02*
X184131000Y-92464000D01*
X177800000Y-91440000D02*
X178824000Y-92464000D01*
%TO.N,Net-(J1-Pin_7)*%
X175260000Y-93980000D02*
X176284000Y-92956000D01*
X181591000Y-92956000D02*
X182615000Y-93980000D01*
X176284000Y-92956000D02*
X181591000Y-92956000D01*
%TO.N,Net-(J1-Pin_8)*%
X183885000Y-95250000D02*
X185155000Y-93980000D01*
X180711396Y-93980000D02*
X181981396Y-95250000D01*
X177800000Y-93980000D02*
X180711396Y-93980000D01*
X181981396Y-95250000D02*
X183885000Y-95250000D01*
%TO.N,Net-(J1-Pin_9)*%
X175260000Y-96520000D02*
X176284000Y-95496000D01*
X176284000Y-95496000D02*
X181591000Y-95496000D01*
X181591000Y-95496000D02*
X182615000Y-96520000D01*
%TO.N,Net-(J1-Pin_10)*%
X181981396Y-97790000D02*
X183885000Y-97790000D01*
X177800000Y-96520000D02*
X180711396Y-96520000D01*
X183885000Y-97790000D02*
X185155000Y-96520000D01*
X150653299Y-90170000D02*
X158750000Y-90170000D01*
X167446075Y-92903924D02*
X167456999Y-92893000D01*
X170184845Y-92893000D02*
X174835845Y-97544000D01*
X167456999Y-92893000D02*
X170184845Y-92893000D01*
X140523299Y-80040000D02*
X150653299Y-90170000D01*
X180711396Y-96520000D02*
X181981396Y-97790000D01*
X139810000Y-80040000D02*
X140523299Y-80040000D01*
X176776000Y-97544000D02*
X177800000Y-96520000D01*
X174835845Y-97544000D02*
X176776000Y-97544000D01*
X138510000Y-78740000D02*
X139810000Y-80040000D01*
%TO.N,Net-(J1-Pin_11)*%
X181591000Y-98036000D02*
X182615000Y-99060000D01*
X176284000Y-98036000D02*
X181591000Y-98036000D01*
X192770000Y-95260000D02*
X192770000Y-97298173D01*
X192795000Y-107418173D02*
X192458173Y-107755000D01*
X192795000Y-97323173D02*
X192795000Y-107418173D01*
X192458173Y-107755000D02*
X190481827Y-107755000D01*
X184730845Y-98036000D02*
X183706845Y-99060000D01*
X186179000Y-98635845D02*
X185579155Y-98036000D01*
X175260000Y-99060000D02*
X176284000Y-98036000D01*
X192770000Y-97298173D02*
X192795000Y-97323173D01*
X183706845Y-99060000D02*
X182615000Y-99060000D01*
X190481827Y-107755000D02*
X186179000Y-103452173D01*
X185579155Y-98036000D02*
X184730845Y-98036000D01*
X191470000Y-93960000D02*
X192770000Y-95260000D01*
X186179000Y-103452173D02*
X186179000Y-98635845D01*
%TO.N,Net-(J1-Pin_12)*%
X184131000Y-100084000D02*
X185155000Y-99060000D01*
X177800000Y-99060000D02*
X178824000Y-100084000D01*
X178824000Y-100084000D02*
X184131000Y-100084000D01*
%TO.N,Net-(J1-Pin_13)*%
X191470000Y-91460000D02*
X193245000Y-93235000D01*
X191629569Y-109220000D02*
X189230000Y-109220000D01*
X176284000Y-100576000D02*
X181591000Y-100576000D01*
X175260000Y-101600000D02*
X176284000Y-100576000D01*
X193245000Y-93235000D02*
X193245000Y-107604569D01*
X189230000Y-109220000D02*
X187960000Y-107950000D01*
X181591000Y-100576000D02*
X182615000Y-101600000D01*
X193245000Y-107604569D02*
X191629569Y-109220000D01*
%TO.N,Net-(J1-Pin_14)*%
X177800000Y-101600000D02*
X178824000Y-102624000D01*
X184131000Y-102624000D02*
X185155000Y-101600000D01*
X178824000Y-102624000D02*
X184131000Y-102624000D01*
%TO.N,Net-(J1-Pin_15)*%
X176284000Y-103116000D02*
X181591000Y-103116000D01*
X157670000Y-80040000D02*
X176620000Y-80040000D01*
X133510000Y-78740000D02*
X134810000Y-77440000D01*
X156370000Y-78740000D02*
X157670000Y-80040000D01*
X181591000Y-103116000D02*
X182615000Y-104140000D01*
X176620000Y-80040000D02*
X177920000Y-78740000D01*
X155070000Y-77440000D02*
X156370000Y-78740000D01*
X175260000Y-104140000D02*
X176284000Y-103116000D01*
X134810000Y-77440000D02*
X155070000Y-77440000D01*
%TO.N,Net-(J1-Pin_16)*%
X178824000Y-105164000D02*
X184131000Y-105164000D01*
X184131000Y-105164000D02*
X185155000Y-104140000D01*
X177800000Y-104140000D02*
X178824000Y-105164000D01*
%TO.N,Net-(J1-Pin_17)*%
X181591000Y-105656000D02*
X182615000Y-106680000D01*
X175260000Y-106680000D02*
X176284000Y-105656000D01*
X176284000Y-105656000D02*
X181591000Y-105656000D01*
%TO.N,Net-(J1-Pin_18)*%
X178824000Y-107704000D02*
X184131000Y-107704000D01*
X177800000Y-106680000D02*
X178824000Y-107704000D01*
X184131000Y-107704000D02*
X185155000Y-106680000D01*
%TO.N,Net-(J1-Pin_19)*%
X175260000Y-109220000D02*
X176284000Y-108196000D01*
X181591000Y-108196000D02*
X182615000Y-109220000D01*
X176284000Y-108196000D02*
X181591000Y-108196000D01*
%TO.N,Net-(J1-Pin_20)*%
X177800000Y-109220000D02*
X178824000Y-110244000D01*
X178824000Y-110244000D02*
X184131000Y-110244000D01*
X184131000Y-110244000D02*
X185155000Y-109220000D01*
%TO.N,Net-(J1-Pin_21)*%
X176284000Y-110736000D02*
X181591000Y-110736000D01*
X181591000Y-110736000D02*
X182615000Y-111760000D01*
X175260000Y-111760000D02*
X176284000Y-110736000D01*
%TO.N,Net-(J1-Pin_22)*%
X178824000Y-112784000D02*
X184131000Y-112784000D01*
X184131000Y-112784000D02*
X185155000Y-111760000D01*
X177800000Y-111760000D02*
X178824000Y-112784000D01*
%TO.N,Net-(J1-Pin_23)*%
X181591000Y-113276000D02*
X182615000Y-114300000D01*
X175260000Y-114300000D02*
X176284000Y-113276000D01*
X176284000Y-113276000D02*
X181591000Y-113276000D01*
%TO.N,Net-(J1-Pin_24)*%
X177800000Y-114300000D02*
X178824000Y-115324000D01*
X178824000Y-115324000D02*
X184131000Y-115324000D01*
X184131000Y-115324000D02*
X185155000Y-114300000D01*
%TO.N,Net-(J1-Pin_25)*%
X181591000Y-115816000D02*
X182615000Y-116840000D01*
X176284000Y-115816000D02*
X181591000Y-115816000D01*
X175260000Y-116840000D02*
X176284000Y-115816000D01*
%TO.N,Net-(J1-Pin_26)*%
X177800000Y-116840000D02*
X178824000Y-117864000D01*
X178824000Y-117864000D02*
X184131000Y-117864000D01*
X184131000Y-117864000D02*
X185155000Y-116840000D01*
%TO.N,Net-(J1-Pin_27)*%
X175260000Y-119380000D02*
X176284000Y-118356000D01*
X176284000Y-118356000D02*
X181591000Y-118356000D01*
X181591000Y-118356000D02*
X182615000Y-119380000D01*
%TO.N,Net-(J1-Pin_28)*%
X178824000Y-120404000D02*
X184131000Y-120404000D01*
X184131000Y-120404000D02*
X185155000Y-119380000D01*
X177800000Y-119380000D02*
X178824000Y-120404000D01*
%TO.N,Net-(J1-Pin_29)*%
X181591000Y-120896000D02*
X182615000Y-121920000D01*
X176284000Y-120896000D02*
X181591000Y-120896000D01*
X175260000Y-121920000D02*
X176284000Y-120896000D01*
%TO.N,Net-(J1-Pin_30)*%
X184131000Y-122944000D02*
X185155000Y-121920000D01*
X177800000Y-121920000D02*
X178824000Y-122944000D01*
X178824000Y-122944000D02*
X184131000Y-122944000D01*
%TO.N,Net-(J1-Pin_31)*%
X181591000Y-123436000D02*
X182615000Y-124460000D01*
X176284000Y-123436000D02*
X181591000Y-123436000D01*
X175260000Y-124460000D02*
X176284000Y-123436000D01*
%TO.N,Net-(J1-Pin_32)*%
X178824000Y-125484000D02*
X184131000Y-125484000D01*
X184131000Y-125484000D02*
X185155000Y-124460000D01*
X177800000Y-124460000D02*
X178824000Y-125484000D01*
%TO.N,Net-(J1-Pin_33)*%
X176284000Y-125976000D02*
X181591000Y-125976000D01*
X181591000Y-125976000D02*
X182615000Y-127000000D01*
X175260000Y-127000000D02*
X176284000Y-125976000D01*
%TO.N,Net-(J1-Pin_35)*%
X175260000Y-129540000D02*
X176284000Y-128516000D01*
X176284000Y-128516000D02*
X181591000Y-128516000D01*
X181591000Y-128516000D02*
X182615000Y-129540000D01*
%TO.N,Net-(J1-Pin_36)*%
X184131000Y-130564000D02*
X185155000Y-129540000D01*
X178824000Y-130564000D02*
X184131000Y-130564000D01*
X177800000Y-129540000D02*
X178824000Y-130564000D01*
%TO.N,Net-(J1-Pin_37)*%
X175260000Y-132080000D02*
X176284000Y-131056000D01*
X176284000Y-131056000D02*
X181591000Y-131056000D01*
X181591000Y-131056000D02*
X182615000Y-132080000D01*
%TO.N,Net-(J1-Pin_38)*%
X178824000Y-133104000D02*
X184131000Y-133104000D01*
X177800000Y-132080000D02*
X178824000Y-133104000D01*
X184131000Y-133104000D02*
X185155000Y-132080000D01*
%TO.N,Net-(J1-Pin_39)*%
X175260000Y-134620000D02*
X176284000Y-133596000D01*
X176284000Y-133596000D02*
X181591000Y-133596000D01*
X181591000Y-133596000D02*
X182615000Y-134620000D01*
X188020000Y-88960000D02*
X187960000Y-88900000D01*
X191470000Y-88960000D02*
X188020000Y-88960000D01*
%TO.N,Net-(J1-Pin_40)*%
X177800000Y-134620000D02*
X178824000Y-135644000D01*
X178824000Y-135644000D02*
X184131000Y-135644000D01*
X184131000Y-135644000D02*
X185155000Y-134620000D01*
%TO.N,Net-(AS5600JST1-Pin_1)*%
X181595000Y-79351701D02*
X180906701Y-80040000D01*
X176351845Y-83820000D02*
X171990000Y-88181845D01*
X171990000Y-91026701D02*
X171301701Y-91715000D01*
X188116701Y-83820000D02*
X176351845Y-83820000D01*
X180906701Y-80040000D02*
X179933299Y-80040000D01*
X120650000Y-110490000D02*
X111760000Y-101600000D01*
X130627000Y-133533000D02*
X152583000Y-133533000D01*
X129540000Y-134620000D02*
X130627000Y-133533000D01*
X168533299Y-91440000D02*
X168910000Y-91440000D01*
X200025000Y-109435000D02*
X199335000Y-108745000D01*
X128016000Y-119000749D02*
X129089749Y-117927000D01*
X169185000Y-91715000D02*
X168910000Y-91440000D01*
X179933299Y-80040000D02*
X168533299Y-91440000D01*
X128524000Y-125730000D02*
X130302000Y-125730000D01*
X129990251Y-107767000D02*
X125913000Y-107767000D01*
X131445000Y-122287749D02*
X129624251Y-120467000D01*
X128595000Y-120467000D02*
X128016000Y-119888000D01*
X141153000Y-87813000D02*
X144780000Y-91440000D01*
X200025000Y-116625000D02*
X200025000Y-109435000D01*
X146304000Y-101613251D02*
X146304000Y-96140749D01*
X123190000Y-110490000D02*
X120650000Y-110490000D01*
X111760000Y-101600000D02*
X111760000Y-92900000D01*
X191470000Y-119320000D02*
X193950000Y-116840000D01*
X124643000Y-87813000D02*
X141153000Y-87813000D01*
X129089749Y-117927000D02*
X130491626Y-117927000D01*
X145230251Y-102687000D02*
X146304000Y-101613251D01*
X111760000Y-92900000D02*
X127670000Y-76990000D01*
X127670000Y-76990000D02*
X180456701Y-76990000D01*
X200240000Y-116840000D02*
X200025000Y-116625000D01*
X130491626Y-117927000D02*
X143256000Y-105162626D01*
X130302000Y-125730000D02*
X131445000Y-124587000D01*
X193950000Y-116840000D02*
X200240000Y-116840000D01*
X123444000Y-130810000D02*
X128524000Y-125730000D01*
X143256000Y-105162626D02*
X143256000Y-103760749D01*
X129624251Y-120467000D02*
X128595000Y-120467000D01*
X181595000Y-78128299D02*
X181595000Y-79351701D01*
X128016000Y-119888000D02*
X128016000Y-119000749D01*
X144329749Y-102687000D02*
X145230251Y-102687000D01*
X145230251Y-95067000D02*
X142690251Y-95067000D01*
X123190000Y-86360000D02*
X124643000Y-87813000D01*
X199335000Y-95038299D02*
X188116701Y-83820000D01*
X125913000Y-107767000D02*
X123190000Y-110490000D01*
X180456701Y-76990000D02*
X181595000Y-78128299D01*
X143256000Y-103760749D02*
X144329749Y-102687000D01*
X142690251Y-95067000D02*
X129990251Y-107767000D01*
X199335000Y-108745000D02*
X199335000Y-95038299D01*
X131445000Y-124587000D02*
X131445000Y-122287749D01*
X171301701Y-91715000D02*
X169185000Y-91715000D01*
X146304000Y-96140749D02*
X145230251Y-95067000D01*
X152583000Y-133533000D02*
X153670000Y-134620000D01*
X171990000Y-88181845D02*
X171990000Y-91026701D01*
%TO.N,Net-(AS5600JST1-Pin_3)*%
X130930000Y-83820000D02*
X136010000Y-78740000D01*
X168910000Y-88900000D02*
X168910000Y-86360000D01*
X125730000Y-106680000D02*
X124460000Y-107950000D01*
X170815000Y-80645000D02*
X178515000Y-80645000D01*
X168910000Y-86360000D02*
X168910000Y-82550000D01*
X144780000Y-86360000D02*
X143630000Y-86360000D01*
X178515000Y-80645000D02*
X180420000Y-78740000D01*
X189097500Y-123057500D02*
X185155000Y-127000000D01*
X190170000Y-121985000D02*
X189097500Y-123057500D01*
X190170000Y-115620000D02*
X190170000Y-121985000D01*
X190506827Y-135735000D02*
X189097500Y-134325673D01*
X180711396Y-127000000D02*
X181981396Y-128270000D01*
X124460000Y-107950000D02*
X123190000Y-107950000D01*
X179120000Y-77440000D02*
X180420000Y-78740000D01*
X168910000Y-82550000D02*
X170815000Y-80645000D01*
X158870000Y-78740000D02*
X160170000Y-77440000D01*
X201930000Y-132080000D02*
X198275000Y-135735000D01*
X144780000Y-88900000D02*
X144780000Y-86360000D01*
X189097500Y-134325673D02*
X189097500Y-123057500D01*
X123190000Y-83820000D02*
X130930000Y-83820000D01*
X181981396Y-128270000D02*
X183885000Y-128270000D01*
X177800000Y-127000000D02*
X180711396Y-127000000D01*
X121920000Y-85090000D02*
X121920000Y-106680000D01*
X198275000Y-135735000D02*
X190506827Y-135735000D01*
X121920000Y-106680000D02*
X123190000Y-107950000D01*
X191470000Y-114320000D02*
X190170000Y-115620000D01*
X123190000Y-83820000D02*
X121920000Y-85090000D01*
X183885000Y-128270000D02*
X185155000Y-127000000D01*
X143630000Y-86360000D02*
X136010000Y-78740000D01*
X160170000Y-77440000D02*
X179120000Y-77440000D01*
%TO.N,Net-(AS5600JST2-Pin_2)*%
X201295000Y-114510000D02*
X201295000Y-122235000D01*
X126682500Y-121920000D02*
X111252000Y-106489500D01*
X110585000Y-91535000D02*
X111252000Y-91535000D01*
X205615000Y-95851903D02*
X203200000Y-98266903D01*
X203200000Y-98266903D02*
X203200000Y-112605000D01*
X110585000Y-93885000D02*
X110585000Y-91535000D01*
X111252000Y-106489500D02*
X111252000Y-93885000D01*
X205615000Y-73785000D02*
X205615000Y-95851903D01*
X201295000Y-122235000D02*
X191470000Y-132060000D01*
X129540000Y-121920000D02*
X126682500Y-121920000D01*
X203200000Y-112605000D02*
X201295000Y-114510000D01*
X111252000Y-93885000D02*
X110585000Y-93885000D01*
X111252000Y-91535000D02*
X111252000Y-73785000D01*
X111252000Y-73785000D02*
X205615000Y-73785000D01*
%TO.N,Net-(AS5600JST2-Pin_3)*%
X168536855Y-138060000D02*
X156023855Y-125547000D01*
X190506827Y-133385000D02*
X191931701Y-133385000D01*
X204130000Y-126505431D02*
X204130000Y-132939493D01*
X203200000Y-116840000D02*
X203200000Y-122116701D01*
X190170000Y-130860000D02*
X190170000Y-133048173D01*
X190170000Y-133048173D02*
X190506827Y-133385000D01*
X190170000Y-132546701D02*
X190170000Y-130860000D01*
X199009493Y-138060000D02*
X168536855Y-138060000D01*
X199861701Y-125455000D02*
X203079569Y-125455000D01*
X156023855Y-125547000D02*
X135707000Y-125547000D01*
X192081701Y-133235000D02*
X190858299Y-133235000D01*
X203200000Y-122116701D02*
X192081701Y-133235000D01*
X191470000Y-129560000D02*
X190170000Y-130860000D01*
X135707000Y-125547000D02*
X129540000Y-119380000D01*
X190858299Y-133235000D02*
X190170000Y-132546701D01*
X203079569Y-125455000D02*
X204130000Y-126505431D01*
X191931701Y-133385000D02*
X199861701Y-125455000D01*
X204130000Y-132939493D02*
X199009493Y-138060000D01*
%TO.N,Net-(BP_TO_MOTOR1-Pin_1)*%
X198636701Y-137160000D02*
X168910000Y-137160000D01*
X203230000Y-128380000D02*
X203230000Y-132566701D01*
X201930000Y-127080000D02*
X203230000Y-128380000D01*
X203230000Y-132566701D02*
X198636701Y-137160000D01*
X168910000Y-137160000D02*
X153670000Y-121920000D01*
%TO.N,Net-(BP_TO_MOTOR1-Pin_2)*%
X198823097Y-137610000D02*
X168723251Y-137610000D01*
X154120251Y-123007000D02*
X153219749Y-123007000D01*
X168723251Y-137610000D02*
X154120251Y-123007000D01*
X203680000Y-126691827D02*
X203680000Y-132753097D01*
X200048097Y-125905000D02*
X202893173Y-125905000D01*
X152583000Y-122370251D02*
X152583000Y-120467000D01*
X201930000Y-129580000D02*
X200048097Y-127698097D01*
X200048097Y-127698097D02*
X200048097Y-125905000D01*
X203680000Y-132753097D02*
X198823097Y-137610000D01*
X202893173Y-125905000D02*
X203680000Y-126691827D01*
X152583000Y-120467000D02*
X153670000Y-119380000D01*
X153219749Y-123007000D02*
X152583000Y-122370251D01*
%TO.N,Net-(Pi4-Pin_1)*%
X152400000Y-110490000D02*
X153670000Y-109220000D01*
X154120251Y-112847000D02*
X153219749Y-112847000D01*
X170447000Y-96519749D02*
X170447000Y-101600251D01*
X169360251Y-95433000D02*
X170447000Y-96519749D01*
X164280251Y-102687000D02*
X154120251Y-112847000D01*
X152400000Y-112027251D02*
X152400000Y-110490000D01*
X153219749Y-112847000D02*
X152400000Y-112027251D01*
X170447000Y-101600251D02*
X169360251Y-102687000D01*
X168459749Y-95433000D02*
X169360251Y-95433000D01*
X143510000Y-78740000D02*
X151766749Y-78740000D01*
X151766749Y-78740000D02*
X168459749Y-95433000D01*
X169360251Y-102687000D02*
X164280251Y-102687000D01*
%TO.N,Net-(Pi4-Pin_2)*%
X165100000Y-100330000D02*
X153670000Y-111760000D01*
X144820000Y-82550000D02*
X153036749Y-82550000D01*
X169360251Y-97973000D02*
X169997000Y-98609749D01*
X169997000Y-99510251D02*
X169177251Y-100330000D01*
X141010000Y-78740000D02*
X144820000Y-82550000D01*
X153036749Y-82550000D02*
X168459749Y-97973000D01*
X169177251Y-100330000D02*
X165100000Y-100330000D01*
X169997000Y-98609749D02*
X169997000Y-99510251D01*
X168459749Y-97973000D02*
X169360251Y-97973000D01*
%TO.N,Net-(MOTOR_BP_DISPLAY1-Pin_3)*%
X123190000Y-88900000D02*
X127183000Y-92893000D01*
X153402749Y-97790000D02*
X167640000Y-97790000D01*
X167640000Y-97790000D02*
X168910000Y-99060000D01*
X148505749Y-92893000D02*
X153402749Y-97790000D01*
X127183000Y-92893000D02*
X148505749Y-92893000D01*
%TO.N,Net-(AS5600REC_BP_Display1-Pin_4)*%
X144780000Y-96520000D02*
X130627000Y-110673000D01*
X130627000Y-110673000D02*
X128087000Y-110673000D01*
X128087000Y-110673000D02*
X123190000Y-115570000D01*
%TO.N,Net-(AS5600REC_BP_Display1-Pin_3)*%
X123920000Y-116745000D02*
X122460000Y-116745000D01*
X144780000Y-99060000D02*
X144780000Y-100330000D01*
X121920000Y-114300000D02*
X123190000Y-113030000D01*
X131812749Y-113030000D02*
X127635000Y-113030000D01*
X122460000Y-116745000D02*
X121920000Y-116205000D01*
X121920000Y-116205000D02*
X121920000Y-114300000D01*
X127635000Y-113030000D02*
X123920000Y-116745000D01*
X144512749Y-100330000D02*
X131812749Y-113030000D01*
X144780000Y-100330000D02*
X144512749Y-100330000D01*
%TD*%
M02*
