%TF.GenerationSoftware,KiCad,Pcbnew,7.0.5*%
%TF.CreationDate,2023-12-19T10:50:23-08:00*%
%TF.ProjectId,Pi1_PiHat,5069315f-5069-4486-9174-2e6b69636164,rev?*%
%TF.SameCoordinates,Original*%
%TF.FileFunction,Copper,L2,Bot*%
%TF.FilePolarity,Positive*%
%FSLAX46Y46*%
G04 Gerber Fmt 4.6, Leading zero omitted, Abs format (unit mm)*
G04 Created by KiCad (PCBNEW 7.0.5) date 2023-12-19 10:50:23*
%MOMM*%
%LPD*%
G01*
G04 APERTURE LIST*
G04 Aperture macros list*
%AMRoundRect*
0 Rectangle with rounded corners*
0 $1 Rounding radius*
0 $2 $3 $4 $5 $6 $7 $8 $9 X,Y pos of 4 corners*
0 Add a 4 corners polygon primitive as box body*
4,1,4,$2,$3,$4,$5,$6,$7,$8,$9,$2,$3,0*
0 Add four circle primitives for the rounded corners*
1,1,$1+$1,$2,$3*
1,1,$1+$1,$4,$5*
1,1,$1+$1,$6,$7*
1,1,$1+$1,$8,$9*
0 Add four rect primitives between the rounded corners*
20,1,$1+$1,$2,$3,$4,$5,0*
20,1,$1+$1,$4,$5,$6,$7,0*
20,1,$1+$1,$6,$7,$8,$9,0*
20,1,$1+$1,$8,$9,$2,$3,0*%
G04 Aperture macros list end*
%ADD10C,0.300000*%
%TA.AperFunction,NonConductor*%
%ADD11C,0.300000*%
%TD*%
%TA.AperFunction,NonConductor*%
%ADD12C,0.200000*%
%TD*%
%TA.AperFunction,ComponentPad*%
%ADD13RoundRect,0.250000X0.725000X-0.600000X0.725000X0.600000X-0.725000X0.600000X-0.725000X-0.600000X0*%
%TD*%
%TA.AperFunction,ComponentPad*%
%ADD14O,1.950000X1.700000*%
%TD*%
%TA.AperFunction,ComponentPad*%
%ADD15C,1.398000*%
%TD*%
%TA.AperFunction,ComponentPad*%
%ADD16R,1.398000X1.398000*%
%TD*%
%TA.AperFunction,ComponentPad*%
%ADD17R,1.700000X1.700000*%
%TD*%
%TA.AperFunction,ComponentPad*%
%ADD18O,1.700000X1.700000*%
%TD*%
%TA.AperFunction,ComponentPad*%
%ADD19RoundRect,0.250000X0.750000X-0.600000X0.750000X0.600000X-0.750000X0.600000X-0.750000X-0.600000X0*%
%TD*%
%TA.AperFunction,ComponentPad*%
%ADD20O,2.000000X1.700000*%
%TD*%
%TA.AperFunction,ComponentPad*%
%ADD21RoundRect,0.250000X0.600000X0.725000X-0.600000X0.725000X-0.600000X-0.725000X0.600000X-0.725000X0*%
%TD*%
%TA.AperFunction,ComponentPad*%
%ADD22O,1.700000X1.950000*%
%TD*%
%TA.AperFunction,ComponentPad*%
%ADD23RoundRect,0.250000X-0.725000X0.600000X-0.725000X-0.600000X0.725000X-0.600000X0.725000X0.600000X0*%
%TD*%
%TA.AperFunction,ComponentPad*%
%ADD24C,1.524000*%
%TD*%
%TA.AperFunction,ComponentPad*%
%ADD25O,2.500000X5.000000*%
%TD*%
%TA.AperFunction,ComponentPad*%
%ADD26O,2.250000X4.500000*%
%TD*%
%TA.AperFunction,ComponentPad*%
%ADD27O,4.500000X2.250000*%
%TD*%
%TA.AperFunction,ViaPad*%
%ADD28C,0.800000*%
%TD*%
%TA.AperFunction,Conductor*%
%ADD29C,0.250000*%
%TD*%
%TA.AperFunction,Conductor*%
%ADD30C,0.000000*%
%TD*%
G04 APERTURE END LIST*
D10*
D11*
X206272917Y-137548257D02*
X205558632Y-137548257D01*
X206415774Y-137976828D02*
X205915774Y-136476828D01*
X205915774Y-136476828D02*
X205415774Y-137976828D01*
X204272918Y-137976828D02*
X204272918Y-136476828D01*
X204272918Y-137905400D02*
X204415775Y-137976828D01*
X204415775Y-137976828D02*
X204701489Y-137976828D01*
X204701489Y-137976828D02*
X204844346Y-137905400D01*
X204844346Y-137905400D02*
X204915775Y-137833971D01*
X204915775Y-137833971D02*
X204987203Y-137691114D01*
X204987203Y-137691114D02*
X204987203Y-137262542D01*
X204987203Y-137262542D02*
X204915775Y-137119685D01*
X204915775Y-137119685D02*
X204844346Y-137048257D01*
X204844346Y-137048257D02*
X204701489Y-136976828D01*
X204701489Y-136976828D02*
X204415775Y-136976828D01*
X204415775Y-136976828D02*
X204272918Y-137048257D01*
X202915775Y-137976828D02*
X202915775Y-137191114D01*
X202915775Y-137191114D02*
X202987203Y-137048257D01*
X202987203Y-137048257D02*
X203130060Y-136976828D01*
X203130060Y-136976828D02*
X203415775Y-136976828D01*
X203415775Y-136976828D02*
X203558632Y-137048257D01*
X202915775Y-137905400D02*
X203058632Y-137976828D01*
X203058632Y-137976828D02*
X203415775Y-137976828D01*
X203415775Y-137976828D02*
X203558632Y-137905400D01*
X203558632Y-137905400D02*
X203630060Y-137762542D01*
X203630060Y-137762542D02*
X203630060Y-137619685D01*
X203630060Y-137619685D02*
X203558632Y-137476828D01*
X203558632Y-137476828D02*
X203415775Y-137405400D01*
X203415775Y-137405400D02*
X203058632Y-137405400D01*
X203058632Y-137405400D02*
X202915775Y-137333971D01*
X202201489Y-137976828D02*
X202201489Y-136976828D01*
X202201489Y-137262542D02*
X202130060Y-137119685D01*
X202130060Y-137119685D02*
X202058632Y-137048257D01*
X202058632Y-137048257D02*
X201915774Y-136976828D01*
X201915774Y-136976828D02*
X201772917Y-136976828D01*
X201344346Y-137905400D02*
X201201489Y-137976828D01*
X201201489Y-137976828D02*
X200915775Y-137976828D01*
X200915775Y-137976828D02*
X200772918Y-137905400D01*
X200772918Y-137905400D02*
X200701489Y-137762542D01*
X200701489Y-137762542D02*
X200701489Y-137691114D01*
X200701489Y-137691114D02*
X200772918Y-137548257D01*
X200772918Y-137548257D02*
X200915775Y-137476828D01*
X200915775Y-137476828D02*
X201130061Y-137476828D01*
X201130061Y-137476828D02*
X201272918Y-137405400D01*
X201272918Y-137405400D02*
X201344346Y-137262542D01*
X201344346Y-137262542D02*
X201344346Y-137191114D01*
X201344346Y-137191114D02*
X201272918Y-137048257D01*
X201272918Y-137048257D02*
X201130061Y-136976828D01*
X201130061Y-136976828D02*
X200915775Y-136976828D01*
X200915775Y-136976828D02*
X200772918Y-137048257D01*
X200058632Y-137976828D02*
X200058632Y-136476828D01*
X199415775Y-137976828D02*
X199415775Y-137191114D01*
X199415775Y-137191114D02*
X199487203Y-137048257D01*
X199487203Y-137048257D02*
X199630060Y-136976828D01*
X199630060Y-136976828D02*
X199844346Y-136976828D01*
X199844346Y-136976828D02*
X199987203Y-137048257D01*
X199987203Y-137048257D02*
X200058632Y-137119685D01*
X196772917Y-136548257D02*
X196915775Y-136476828D01*
X196915775Y-136476828D02*
X197130060Y-136476828D01*
X197130060Y-136476828D02*
X197344346Y-136548257D01*
X197344346Y-136548257D02*
X197487203Y-136691114D01*
X197487203Y-136691114D02*
X197558632Y-136833971D01*
X197558632Y-136833971D02*
X197630060Y-137119685D01*
X197630060Y-137119685D02*
X197630060Y-137333971D01*
X197630060Y-137333971D02*
X197558632Y-137619685D01*
X197558632Y-137619685D02*
X197487203Y-137762542D01*
X197487203Y-137762542D02*
X197344346Y-137905400D01*
X197344346Y-137905400D02*
X197130060Y-137976828D01*
X197130060Y-137976828D02*
X196987203Y-137976828D01*
X196987203Y-137976828D02*
X196772917Y-137905400D01*
X196772917Y-137905400D02*
X196701489Y-137833971D01*
X196701489Y-137833971D02*
X196701489Y-137333971D01*
X196701489Y-137333971D02*
X196987203Y-137333971D01*
X196058632Y-137833971D02*
X195987203Y-137905400D01*
X195987203Y-137905400D02*
X196058632Y-137976828D01*
X196058632Y-137976828D02*
X196130060Y-137905400D01*
X196130060Y-137905400D02*
X196058632Y-137833971D01*
X196058632Y-137833971D02*
X196058632Y-137976828D01*
D10*
D11*
X190753573Y-68718328D02*
X189896430Y-68718328D01*
X190325001Y-68718328D02*
X190325001Y-67218328D01*
X190325001Y-67218328D02*
X190182144Y-67432614D01*
X190182144Y-67432614D02*
X190039287Y-67575471D01*
X190039287Y-67575471D02*
X189896430Y-67646900D01*
X191682144Y-67218328D02*
X191825001Y-67218328D01*
X191825001Y-67218328D02*
X191967858Y-67289757D01*
X191967858Y-67289757D02*
X192039287Y-67361185D01*
X192039287Y-67361185D02*
X192110715Y-67504042D01*
X192110715Y-67504042D02*
X192182144Y-67789757D01*
X192182144Y-67789757D02*
X192182144Y-68146900D01*
X192182144Y-68146900D02*
X192110715Y-68432614D01*
X192110715Y-68432614D02*
X192039287Y-68575471D01*
X192039287Y-68575471D02*
X191967858Y-68646900D01*
X191967858Y-68646900D02*
X191825001Y-68718328D01*
X191825001Y-68718328D02*
X191682144Y-68718328D01*
X191682144Y-68718328D02*
X191539287Y-68646900D01*
X191539287Y-68646900D02*
X191467858Y-68575471D01*
X191467858Y-68575471D02*
X191396429Y-68432614D01*
X191396429Y-68432614D02*
X191325001Y-68146900D01*
X191325001Y-68146900D02*
X191325001Y-67789757D01*
X191325001Y-67789757D02*
X191396429Y-67504042D01*
X191396429Y-67504042D02*
X191467858Y-67361185D01*
X191467858Y-67361185D02*
X191539287Y-67289757D01*
X191539287Y-67289757D02*
X191682144Y-67218328D01*
X192825000Y-68575471D02*
X192896429Y-68646900D01*
X192896429Y-68646900D02*
X192825000Y-68718328D01*
X192825000Y-68718328D02*
X192753572Y-68646900D01*
X192753572Y-68646900D02*
X192825000Y-68575471D01*
X192825000Y-68575471D02*
X192825000Y-68718328D01*
X194325001Y-68718328D02*
X193467858Y-68718328D01*
X193896429Y-68718328D02*
X193896429Y-67218328D01*
X193896429Y-67218328D02*
X193753572Y-67432614D01*
X193753572Y-67432614D02*
X193610715Y-67575471D01*
X193610715Y-67575471D02*
X193467858Y-67646900D01*
X195610715Y-67218328D02*
X195325000Y-67218328D01*
X195325000Y-67218328D02*
X195182143Y-67289757D01*
X195182143Y-67289757D02*
X195110715Y-67361185D01*
X195110715Y-67361185D02*
X194967857Y-67575471D01*
X194967857Y-67575471D02*
X194896429Y-67861185D01*
X194896429Y-67861185D02*
X194896429Y-68432614D01*
X194896429Y-68432614D02*
X194967857Y-68575471D01*
X194967857Y-68575471D02*
X195039286Y-68646900D01*
X195039286Y-68646900D02*
X195182143Y-68718328D01*
X195182143Y-68718328D02*
X195467857Y-68718328D01*
X195467857Y-68718328D02*
X195610715Y-68646900D01*
X195610715Y-68646900D02*
X195682143Y-68575471D01*
X195682143Y-68575471D02*
X195753572Y-68432614D01*
X195753572Y-68432614D02*
X195753572Y-68075471D01*
X195753572Y-68075471D02*
X195682143Y-67932614D01*
X195682143Y-67932614D02*
X195610715Y-67861185D01*
X195610715Y-67861185D02*
X195467857Y-67789757D01*
X195467857Y-67789757D02*
X195182143Y-67789757D01*
X195182143Y-67789757D02*
X195039286Y-67861185D01*
X195039286Y-67861185D02*
X194967857Y-67932614D01*
X194967857Y-67932614D02*
X194896429Y-68075471D01*
X196682143Y-67218328D02*
X196825000Y-67218328D01*
X196825000Y-67218328D02*
X196967857Y-67289757D01*
X196967857Y-67289757D02*
X197039286Y-67361185D01*
X197039286Y-67361185D02*
X197110714Y-67504042D01*
X197110714Y-67504042D02*
X197182143Y-67789757D01*
X197182143Y-67789757D02*
X197182143Y-68146900D01*
X197182143Y-68146900D02*
X197110714Y-68432614D01*
X197110714Y-68432614D02*
X197039286Y-68575471D01*
X197039286Y-68575471D02*
X196967857Y-68646900D01*
X196967857Y-68646900D02*
X196825000Y-68718328D01*
X196825000Y-68718328D02*
X196682143Y-68718328D01*
X196682143Y-68718328D02*
X196539286Y-68646900D01*
X196539286Y-68646900D02*
X196467857Y-68575471D01*
X196467857Y-68575471D02*
X196396428Y-68432614D01*
X196396428Y-68432614D02*
X196325000Y-68146900D01*
X196325000Y-68146900D02*
X196325000Y-67789757D01*
X196325000Y-67789757D02*
X196396428Y-67504042D01*
X196396428Y-67504042D02*
X196467857Y-67361185D01*
X196467857Y-67361185D02*
X196539286Y-67289757D01*
X196539286Y-67289757D02*
X196682143Y-67218328D01*
X198110714Y-67218328D02*
X198253571Y-67218328D01*
X198253571Y-67218328D02*
X198396428Y-67289757D01*
X198396428Y-67289757D02*
X198467857Y-67361185D01*
X198467857Y-67361185D02*
X198539285Y-67504042D01*
X198539285Y-67504042D02*
X198610714Y-67789757D01*
X198610714Y-67789757D02*
X198610714Y-68146900D01*
X198610714Y-68146900D02*
X198539285Y-68432614D01*
X198539285Y-68432614D02*
X198467857Y-68575471D01*
X198467857Y-68575471D02*
X198396428Y-68646900D01*
X198396428Y-68646900D02*
X198253571Y-68718328D01*
X198253571Y-68718328D02*
X198110714Y-68718328D01*
X198110714Y-68718328D02*
X197967857Y-68646900D01*
X197967857Y-68646900D02*
X197896428Y-68575471D01*
X197896428Y-68575471D02*
X197824999Y-68432614D01*
X197824999Y-68432614D02*
X197753571Y-68146900D01*
X197753571Y-68146900D02*
X197753571Y-67789757D01*
X197753571Y-67789757D02*
X197824999Y-67504042D01*
X197824999Y-67504042D02*
X197896428Y-67361185D01*
X197896428Y-67361185D02*
X197967857Y-67289757D01*
X197967857Y-67289757D02*
X198110714Y-67218328D01*
X200396427Y-68718328D02*
X200396427Y-67718328D01*
X200396427Y-67861185D02*
X200467856Y-67789757D01*
X200467856Y-67789757D02*
X200610713Y-67718328D01*
X200610713Y-67718328D02*
X200824999Y-67718328D01*
X200824999Y-67718328D02*
X200967856Y-67789757D01*
X200967856Y-67789757D02*
X201039285Y-67932614D01*
X201039285Y-67932614D02*
X201039285Y-68718328D01*
X201039285Y-67932614D02*
X201110713Y-67789757D01*
X201110713Y-67789757D02*
X201253570Y-67718328D01*
X201253570Y-67718328D02*
X201467856Y-67718328D01*
X201467856Y-67718328D02*
X201610713Y-67789757D01*
X201610713Y-67789757D02*
X201682142Y-67932614D01*
X201682142Y-67932614D02*
X201682142Y-68718328D01*
X202396427Y-68718328D02*
X202396427Y-67718328D01*
X202396427Y-67861185D02*
X202467856Y-67789757D01*
X202467856Y-67789757D02*
X202610713Y-67718328D01*
X202610713Y-67718328D02*
X202824999Y-67718328D01*
X202824999Y-67718328D02*
X202967856Y-67789757D01*
X202967856Y-67789757D02*
X203039285Y-67932614D01*
X203039285Y-67932614D02*
X203039285Y-68718328D01*
X203039285Y-67932614D02*
X203110713Y-67789757D01*
X203110713Y-67789757D02*
X203253570Y-67718328D01*
X203253570Y-67718328D02*
X203467856Y-67718328D01*
X203467856Y-67718328D02*
X203610713Y-67789757D01*
X203610713Y-67789757D02*
X203682142Y-67932614D01*
X203682142Y-67932614D02*
X203682142Y-68718328D01*
D12*
X191745000Y-70610000D02*
X191745000Y-69253580D01*
X201905000Y-70610000D02*
X201905000Y-69253580D01*
X191745000Y-69840000D02*
X201905000Y-69840000D01*
X191745000Y-69840000D02*
X201905000Y-69840000D01*
X191745000Y-69840000D02*
X192871504Y-69253579D01*
X191745000Y-69840000D02*
X192871504Y-70426421D01*
X201905000Y-69840000D02*
X200778496Y-70426421D01*
X201905000Y-69840000D02*
X200778496Y-69253579D01*
D13*
%TO.P,AS5600JST1,1,Pin_1*%
%TO.N,Net-(AS5600JST1-Pin_1)*%
X191470000Y-119320000D03*
D14*
%TO.P,AS5600JST1,2,Pin_2*%
%TO.N,unconnected-(AS5600JST1-Pin_2-Pad2)*%
X191470000Y-116820000D03*
%TO.P,AS5600JST1,3,Pin_3*%
%TO.N,Net-(AS5600JST1-Pin_3)*%
X191470000Y-114320000D03*
%TD*%
D15*
%TO.P,J1,1,Pin_1*%
%TO.N,Net-(J1-Pin_1)*%
X182615000Y-86360000D03*
D16*
%TO.P,J1,2,Pin_2*%
%TO.N,Net-(J1-Pin_2)*%
X185155000Y-86360000D03*
D15*
%TO.P,J1,3,Pin_3*%
%TO.N,Net-(J1-Pin_3)*%
X182615000Y-88900000D03*
%TO.P,J1,4,Pin_4*%
%TO.N,Net-(J1-Pin_4)*%
X185155000Y-88900000D03*
%TO.P,J1,5,Pin_5*%
%TO.N,Net-(J1-Pin_5)*%
X182615000Y-91440000D03*
%TO.P,J1,6,Pin_6*%
%TO.N,Net-(J1-Pin_6)*%
X185155000Y-91440000D03*
%TO.P,J1,7,Pin_7*%
%TO.N,Net-(J1-Pin_7)*%
X182615000Y-93980000D03*
%TO.P,J1,8,Pin_8*%
%TO.N,Net-(J1-Pin_8)*%
X185155000Y-93980000D03*
%TO.P,J1,9,Pin_9*%
%TO.N,Net-(J1-Pin_9)*%
X182615000Y-96520000D03*
%TO.P,J1,10,Pin_10*%
%TO.N,Net-(J1-Pin_10)*%
X185155000Y-96520000D03*
%TO.P,J1,11,Pin_11*%
%TO.N,Net-(J1-Pin_11)*%
X182615000Y-99060000D03*
%TO.P,J1,12,Pin_12*%
%TO.N,Net-(J1-Pin_12)*%
X185155000Y-99060000D03*
%TO.P,J1,13,Pin_13*%
%TO.N,Net-(J1-Pin_13)*%
X182615000Y-101600000D03*
%TO.P,J1,14,Pin_14*%
%TO.N,Net-(J1-Pin_14)*%
X185155000Y-101600000D03*
%TO.P,J1,15,Pin_15*%
%TO.N,Net-(J1-Pin_15)*%
X182615000Y-104140000D03*
%TO.P,J1,16,Pin_16*%
%TO.N,Net-(J1-Pin_16)*%
X185155000Y-104140000D03*
%TO.P,J1,17,Pin_17*%
%TO.N,Net-(J1-Pin_17)*%
X182615000Y-106680000D03*
%TO.P,J1,18,Pin_18*%
%TO.N,Net-(J1-Pin_18)*%
X185155000Y-106680000D03*
%TO.P,J1,19,Pin_19*%
%TO.N,Net-(J1-Pin_19)*%
X182615000Y-109220000D03*
%TO.P,J1,20,Pin_20*%
%TO.N,Net-(J1-Pin_20)*%
X185155000Y-109220000D03*
%TO.P,J1,21,Pin_21*%
%TO.N,Net-(J1-Pin_21)*%
X182615000Y-111760000D03*
%TO.P,J1,22,Pin_22*%
%TO.N,Net-(J1-Pin_22)*%
X185155000Y-111760000D03*
%TO.P,J1,23,Pin_23*%
%TO.N,Net-(J1-Pin_23)*%
X182615000Y-114300000D03*
%TO.P,J1,24,Pin_24*%
%TO.N,Net-(J1-Pin_24)*%
X185155000Y-114300000D03*
%TO.P,J1,25,Pin_25*%
%TO.N,Net-(J1-Pin_25)*%
X182615000Y-116840000D03*
%TO.P,J1,26,Pin_26*%
%TO.N,Net-(J1-Pin_26)*%
X185155000Y-116840000D03*
%TO.P,J1,27,Pin_27*%
%TO.N,Net-(J1-Pin_27)*%
X182615000Y-119380000D03*
%TO.P,J1,28,Pin_28*%
%TO.N,Net-(J1-Pin_28)*%
X185155000Y-119380000D03*
%TO.P,J1,29,Pin_29*%
%TO.N,Net-(J1-Pin_29)*%
X182615000Y-121920000D03*
%TO.P,J1,30,Pin_30*%
%TO.N,Net-(J1-Pin_30)*%
X185155000Y-121920000D03*
%TO.P,J1,31,Pin_31*%
%TO.N,Net-(J1-Pin_31)*%
X182615000Y-124460000D03*
%TO.P,J1,32,Pin_32*%
%TO.N,Net-(J1-Pin_32)*%
X185155000Y-124460000D03*
%TO.P,J1,33,Pin_33*%
%TO.N,Net-(J1-Pin_33)*%
X182615000Y-127000000D03*
%TO.P,J1,34,Pin_34*%
%TO.N,Net-(AS5600JST1-Pin_3)*%
X185155000Y-127000000D03*
%TO.P,J1,35,Pin_35*%
%TO.N,Net-(J1-Pin_35)*%
X182615000Y-129540000D03*
%TO.P,J1,36,Pin_36*%
%TO.N,Net-(J1-Pin_36)*%
X185155000Y-129540000D03*
%TO.P,J1,37,Pin_37*%
%TO.N,Net-(J1-Pin_37)*%
X182615000Y-132080000D03*
%TO.P,J1,38,Pin_38*%
%TO.N,Net-(J1-Pin_38)*%
X185155000Y-132080000D03*
%TO.P,J1,39,Pin_39*%
%TO.N,Net-(J1-Pin_39)*%
X182615000Y-134620000D03*
%TO.P,J1,40,Pin_40*%
%TO.N,Net-(J1-Pin_40)*%
X185155000Y-134620000D03*
%TD*%
D13*
%TO.P,ULTRASONIC1,1,Pin_1*%
%TO.N,Net-(J1-Pin_2)*%
X191470000Y-96460000D03*
D14*
%TO.P,ULTRASONIC1,2,Pin_2*%
%TO.N,Net-(J1-Pin_11)*%
X191470000Y-93960000D03*
%TO.P,ULTRASONIC1,3,Pin_3*%
%TO.N,Net-(J1-Pin_13)*%
X191470000Y-91460000D03*
%TO.P,ULTRASONIC1,4,Pin_4*%
%TO.N,Net-(J1-Pin_39)*%
X191470000Y-88960000D03*
%TD*%
D17*
%TO.P,MOTOR_BP_DISPLAY1,1,Pin_1*%
%TO.N,Net-(AS5600JST1-Pin_3)*%
X123215000Y-83830000D03*
D18*
%TO.P,MOTOR_BP_DISPLAY1,2,Pin_2*%
%TO.N,Net-(AS5600JST1-Pin_1)*%
X123215000Y-86370000D03*
%TO.P,MOTOR_BP_DISPLAY1,3,Pin_3*%
%TO.N,Net-(MOTOR_BP_DISPLAY1-Pin_3)*%
X123215000Y-88910000D03*
%TO.P,MOTOR_BP_DISPLAY1,4,Pin_4*%
%TO.N,Net-(MOTOR_BP_DISPLAY1-Pin_4)*%
X123215000Y-91450000D03*
%TD*%
D19*
%TO.P,LimitSwitch1,1,Pin_1*%
%TO.N,Net-(J1-Pin_1)*%
X191470000Y-106580000D03*
D20*
%TO.P,LimitSwitch1,2,Pin_2*%
%TO.N,Net-(J1-Pin_15)*%
X191470000Y-104080000D03*
%TD*%
D17*
%TO.P,AS5600REC_BP_Display1,1,Pin_1*%
%TO.N,Net-(AS5600JST1-Pin_3)*%
X123215000Y-107950000D03*
D18*
%TO.P,AS5600REC_BP_Display1,2,Pin_2*%
%TO.N,Net-(AS5600JST1-Pin_1)*%
X123215000Y-110490000D03*
%TO.P,AS5600REC_BP_Display1,3,Pin_3*%
%TO.N,Net-(AS5600REC_BP_Display1-Pin_3)*%
X123215000Y-113030000D03*
%TO.P,AS5600REC_BP_Display1,4,Pin_4*%
%TO.N,Net-(AS5600REC_BP_Display1-Pin_4)*%
X123215000Y-115570000D03*
%TD*%
D15*
%TO.P,J2,1,Pin_1*%
%TO.N,Net-(J1-Pin_1)*%
X175260000Y-86360000D03*
D16*
%TO.P,J2,2,Pin_2*%
%TO.N,Net-(J1-Pin_2)*%
X177800000Y-86360000D03*
D15*
%TO.P,J2,3,Pin_3*%
%TO.N,Net-(J1-Pin_3)*%
X175260000Y-88900000D03*
%TO.P,J2,4,Pin_4*%
%TO.N,Net-(J1-Pin_4)*%
X177800000Y-88900000D03*
%TO.P,J2,5,Pin_5*%
%TO.N,Net-(J1-Pin_5)*%
X175260000Y-91440000D03*
%TO.P,J2,6,Pin_6*%
%TO.N,Net-(J1-Pin_6)*%
X177800000Y-91440000D03*
%TO.P,J2,7,Pin_7*%
%TO.N,Net-(J1-Pin_7)*%
X175260000Y-93980000D03*
%TO.P,J2,8,Pin_8*%
%TO.N,Net-(J1-Pin_8)*%
X177800000Y-93980000D03*
%TO.P,J2,9,Pin_9*%
%TO.N,Net-(J1-Pin_9)*%
X175260000Y-96520000D03*
%TO.P,J2,10,Pin_10*%
%TO.N,Net-(J1-Pin_10)*%
X177800000Y-96520000D03*
%TO.P,J2,11,Pin_11*%
%TO.N,Net-(J1-Pin_11)*%
X175260000Y-99060000D03*
%TO.P,J2,12,Pin_12*%
%TO.N,Net-(J1-Pin_12)*%
X177800000Y-99060000D03*
%TO.P,J2,13,Pin_13*%
%TO.N,Net-(J1-Pin_13)*%
X175260000Y-101600000D03*
%TO.P,J2,14,Pin_14*%
%TO.N,Net-(J1-Pin_14)*%
X177800000Y-101600000D03*
%TO.P,J2,15,Pin_15*%
%TO.N,Net-(J1-Pin_15)*%
X175260000Y-104140000D03*
%TO.P,J2,16,Pin_16*%
%TO.N,Net-(J1-Pin_16)*%
X177800000Y-104140000D03*
%TO.P,J2,17,Pin_17*%
%TO.N,Net-(J1-Pin_17)*%
X175260000Y-106680000D03*
%TO.P,J2,18,Pin_18*%
%TO.N,Net-(J1-Pin_18)*%
X177800000Y-106680000D03*
%TO.P,J2,19,Pin_19*%
%TO.N,Net-(J1-Pin_19)*%
X175260000Y-109220000D03*
%TO.P,J2,20,Pin_20*%
%TO.N,Net-(J1-Pin_20)*%
X177800000Y-109220000D03*
%TO.P,J2,21,Pin_21*%
%TO.N,Net-(J1-Pin_21)*%
X175260000Y-111760000D03*
%TO.P,J2,22,Pin_22*%
%TO.N,Net-(J1-Pin_22)*%
X177800000Y-111760000D03*
%TO.P,J2,23,Pin_23*%
%TO.N,Net-(J1-Pin_23)*%
X175260000Y-114300000D03*
%TO.P,J2,24,Pin_24*%
%TO.N,Net-(J1-Pin_24)*%
X177800000Y-114300000D03*
%TO.P,J2,25,Pin_25*%
%TO.N,Net-(J1-Pin_25)*%
X175260000Y-116840000D03*
%TO.P,J2,26,Pin_26*%
%TO.N,Net-(J1-Pin_26)*%
X177800000Y-116840000D03*
%TO.P,J2,27,Pin_27*%
%TO.N,Net-(J1-Pin_27)*%
X175260000Y-119380000D03*
%TO.P,J2,28,Pin_28*%
%TO.N,Net-(J1-Pin_28)*%
X177800000Y-119380000D03*
%TO.P,J2,29,Pin_29*%
%TO.N,Net-(J1-Pin_29)*%
X175260000Y-121920000D03*
%TO.P,J2,30,Pin_30*%
%TO.N,Net-(J1-Pin_30)*%
X177800000Y-121920000D03*
%TO.P,J2,31,Pin_31*%
%TO.N,Net-(J1-Pin_31)*%
X175260000Y-124460000D03*
%TO.P,J2,32,Pin_32*%
%TO.N,Net-(J1-Pin_32)*%
X177800000Y-124460000D03*
%TO.P,J2,33,Pin_33*%
%TO.N,Net-(J1-Pin_33)*%
X175260000Y-127000000D03*
%TO.P,J2,34,Pin_34*%
%TO.N,Net-(AS5600JST1-Pin_3)*%
X177800000Y-127000000D03*
%TO.P,J2,35,Pin_35*%
%TO.N,Net-(J1-Pin_35)*%
X175260000Y-129540000D03*
%TO.P,J2,36,Pin_36*%
%TO.N,Net-(J1-Pin_36)*%
X177800000Y-129540000D03*
%TO.P,J2,37,Pin_37*%
%TO.N,Net-(J1-Pin_37)*%
X175260000Y-132080000D03*
%TO.P,J2,38,Pin_38*%
%TO.N,Net-(J1-Pin_38)*%
X177800000Y-132080000D03*
%TO.P,J2,39,Pin_39*%
%TO.N,Net-(J1-Pin_39)*%
X175260000Y-134620000D03*
%TO.P,J2,40,Pin_40*%
%TO.N,Net-(J1-Pin_40)*%
X177800000Y-134620000D03*
%TD*%
D21*
%TO.P,Pi3,1,Pin_1*%
%TO.N,Net-(Pi3-Pin_1)*%
X187920000Y-78740000D03*
D22*
%TO.P,Pi3,2,Pin_2*%
%TO.N,Net-(Pi3-Pin_2)*%
X185420000Y-78740000D03*
%TO.P,Pi3,3,Pin_3*%
%TO.N,Net-(J1-Pin_10)*%
X182920000Y-78740000D03*
%TO.P,Pi3,4,Pin_4*%
%TO.N,Net-(AS5600JST1-Pin_3)*%
X180420000Y-78740000D03*
%TO.P,Pi3,5,Pin_5*%
%TO.N,Net-(J1-Pin_15)*%
X177920000Y-78740000D03*
%TD*%
D23*
%TO.P,BP_TO_MOTOR1,1,Pin_1*%
%TO.N,Net-(BP_TO_MOTOR1-Pin_1)*%
X201930000Y-127080000D03*
D14*
%TO.P,BP_TO_MOTOR1,2,Pin_2*%
%TO.N,Net-(BP_TO_MOTOR1-Pin_2)*%
X201930000Y-129580000D03*
%TO.P,BP_TO_MOTOR1,3,Pin_3*%
%TO.N,Net-(AS5600JST1-Pin_3)*%
X201930000Y-132080000D03*
%TD*%
D21*
%TO.P,Pi4,1,Pin_1*%
%TO.N,Net-(Pi4-Pin_1)*%
X143510000Y-78740000D03*
D22*
%TO.P,Pi4,2,Pin_2*%
%TO.N,Net-(Pi4-Pin_2)*%
X141010000Y-78740000D03*
%TO.P,Pi4,3,Pin_3*%
%TO.N,Net-(J1-Pin_10)*%
X138510000Y-78740000D03*
%TO.P,Pi4,4,Pin_4*%
%TO.N,Net-(AS5600JST1-Pin_3)*%
X136010000Y-78740000D03*
%TO.P,Pi4,5,Pin_5*%
%TO.N,Net-(J1-Pin_15)*%
X133510000Y-78740000D03*
%TD*%
D24*
%TO.P,AS5600REC_BP1,3V3,3.3V*%
%TO.N,Net-(AS5600JST1-Pin_1)*%
X129540000Y-134620000D03*
X144780000Y-91440000D03*
%TO.P,AS5600REC_BP1,5V,5V*%
%TO.N,unconnected-(AS5600REC_BP1-Pad5V)*%
X129540000Y-129540000D03*
%TO.P,AS5600REC_BP1,GND,GND*%
%TO.N,Net-(AS5600JST1-Pin_3)*%
X129540000Y-132080000D03*
X144780000Y-86360000D03*
X144780000Y-88900000D03*
%TO.P,AS5600REC_BP1,NRST,RESET*%
%TO.N,unconnected-(AS5600REC_BP1-RESET-PadNRST)*%
X144780000Y-93980000D03*
%TO.P,AS5600REC_BP1,PA0,PA0*%
%TO.N,unconnected-(AS5600REC_BP1-PadPA0)*%
X144780000Y-124460000D03*
%TO.P,AS5600REC_BP1,PA1,20*%
%TO.N,unconnected-(AS5600REC_BP1-20-PadPA1)*%
X144780000Y-121920000D03*
%TO.P,AS5600REC_BP1,PA2,PA2*%
%TO.N,unconnected-(AS5600REC_BP1-PadPA2)*%
X144780000Y-119380000D03*
%TO.P,AS5600REC_BP1,PA3,PA3*%
%TO.N,unconnected-(AS5600REC_BP1-PadPA3)*%
X144780000Y-116840000D03*
%TO.P,AS5600REC_BP1,PA4,PA4*%
%TO.N,unconnected-(AS5600REC_BP1-PadPA4)*%
X144780000Y-114300000D03*
%TO.P,AS5600REC_BP1,PA5,PA5*%
%TO.N,unconnected-(AS5600REC_BP1-PadPA5)*%
X144780000Y-111760000D03*
%TO.P,AS5600REC_BP1,PA6,PA6*%
%TO.N,unconnected-(AS5600REC_BP1-PadPA6)*%
X144780000Y-109220000D03*
%TO.P,AS5600REC_BP1,PA7,PA7*%
%TO.N,unconnected-(AS5600REC_BP1-PadPA7)*%
X144780000Y-106680000D03*
%TO.P,AS5600REC_BP1,PA8,PA8*%
%TO.N,unconnected-(AS5600REC_BP1-PadPA8)*%
X129540000Y-96520000D03*
%TO.P,AS5600REC_BP1,PA9,PA9*%
%TO.N,Net-(J1-Pin_10)*%
X129540000Y-99060000D03*
%TO.P,AS5600REC_BP1,PA10,PA10*%
%TO.N,unconnected-(AS5600REC_BP1-PadPA10)*%
X129540000Y-101600000D03*
%TO.P,AS5600REC_BP1,PA11,PA11*%
%TO.N,unconnected-(AS5600REC_BP1-PadPA11)*%
X129540000Y-104140000D03*
%TO.P,AS5600REC_BP1,PA12,PA12*%
%TO.N,unconnected-(AS5600REC_BP1-PadPA12)*%
X129540000Y-106680000D03*
%TO.P,AS5600REC_BP1,PA15,PA15*%
%TO.N,unconnected-(AS5600REC_BP1-PadPA15)*%
X129540000Y-109220000D03*
%TO.P,AS5600REC_BP1,PB0,PB0*%
%TO.N,unconnected-(AS5600REC_BP1-PadPB0)*%
X144780000Y-104140000D03*
%TO.P,AS5600REC_BP1,PB1,PB1*%
%TO.N,unconnected-(AS5600REC_BP1-PadPB1)*%
X144780000Y-101600000D03*
%TO.P,AS5600REC_BP1,PB3,PB3*%
%TO.N,unconnected-(AS5600REC_BP1-PadPB3)*%
X129540000Y-111760000D03*
%TO.P,AS5600REC_BP1,PB4,PB4*%
%TO.N,unconnected-(AS5600REC_BP1-PadPB4)*%
X129540000Y-114300000D03*
%TO.P,AS5600REC_BP1,PB5,PB5*%
%TO.N,unconnected-(AS5600REC_BP1-PadPB5)*%
X129540000Y-116840000D03*
%TO.P,AS5600REC_BP1,PB6,PB6*%
%TO.N,Net-(AS5600JST2-Pin_3)*%
X129540000Y-119380000D03*
%TO.P,AS5600REC_BP1,PB7,PB7*%
%TO.N,Net-(AS5600JST2-Pin_2)*%
X129540000Y-121920000D03*
%TO.P,AS5600REC_BP1,PB8,PB8*%
%TO.N,unconnected-(AS5600REC_BP1-PadPB8)*%
X129540000Y-124460000D03*
%TO.P,AS5600REC_BP1,PB9,PB9*%
%TO.N,unconnected-(AS5600REC_BP1-PadPB9)*%
X129540000Y-127000000D03*
%TO.P,AS5600REC_BP1,PB10,PB10*%
%TO.N,Net-(AS5600REC_BP_Display1-Pin_3)*%
X144780000Y-99060000D03*
%TO.P,AS5600REC_BP1,PB11,PB11*%
%TO.N,Net-(AS5600REC_BP_Display1-Pin_4)*%
X144780000Y-96520000D03*
%TO.P,AS5600REC_BP1,PB12,PB12*%
%TO.N,unconnected-(AS5600REC_BP1-PadPB12)*%
X129540000Y-86360000D03*
%TO.P,AS5600REC_BP1,PB13,PB13*%
%TO.N,unconnected-(AS5600REC_BP1-PadPB13)*%
X129540000Y-88900000D03*
%TO.P,AS5600REC_BP1,PB14,PB14*%
%TO.N,unconnected-(AS5600REC_BP1-PadPB14)*%
X129540000Y-91440000D03*
%TO.P,AS5600REC_BP1,PB15,PB15*%
%TO.N,unconnected-(AS5600REC_BP1-PadPB15)*%
X129540000Y-93980000D03*
%TO.P,AS5600REC_BP1,PC13,PC13*%
%TO.N,unconnected-(AS5600REC_BP1-PadPC13)*%
X144780000Y-132080000D03*
%TO.P,AS5600REC_BP1,PC14,PC14*%
%TO.N,unconnected-(AS5600REC_BP1-PadPC14)*%
X144780000Y-129540000D03*
%TO.P,AS5600REC_BP1,PC15,PC15*%
%TO.N,unconnected-(AS5600REC_BP1-PadPC15)*%
X144780000Y-127000000D03*
%TO.P,AS5600REC_BP1,VBAT,Vbat*%
%TO.N,unconnected-(AS5600REC_BP1-Vbat-PadVBAT)*%
X144780000Y-134620000D03*
%TD*%
D19*
%TO.P,LimitSwitch2,1,Pin_1*%
%TO.N,Net-(J1-Pin_1)*%
X201295000Y-106680000D03*
D20*
%TO.P,LimitSwitch2,2,Pin_2*%
%TO.N,Net-(J1-Pin_15)*%
X201295000Y-104180000D03*
%TD*%
D25*
%TO.P,BP_POWER1,1*%
%TO.N,Net-(AS5600JST1-Pin_1)*%
X123444000Y-130810000D03*
D26*
%TO.P,BP_POWER1,2*%
%TO.N,Net-(AS5600JST1-Pin_3)*%
X117444000Y-130810000D03*
D27*
%TO.P,BP_POWER1,3*%
%TO.N,unconnected-(BP_POWER1-Pad3)*%
X120444000Y-135510000D03*
%TD*%
D24*
%TO.P,MOTOR_BP1,3V3,3.3V*%
%TO.N,Net-(AS5600JST1-Pin_1)*%
X153670000Y-134620000D03*
X168910000Y-91440000D03*
%TO.P,MOTOR_BP1,5V,5V*%
%TO.N,unconnected-(MOTOR_BP1-Pad5V)*%
X153670000Y-129540000D03*
%TO.P,MOTOR_BP1,GND,GND*%
%TO.N,Net-(AS5600JST1-Pin_3)*%
X153670000Y-132080000D03*
X168910000Y-86360000D03*
X168910000Y-88900000D03*
%TO.P,MOTOR_BP1,NRST,RESET*%
%TO.N,unconnected-(MOTOR_BP1-RESET-PadNRST)*%
X168910000Y-93980000D03*
%TO.P,MOTOR_BP1,PA0,PA0*%
%TO.N,unconnected-(MOTOR_BP1-PadPA0)*%
X168910000Y-124460000D03*
%TO.P,MOTOR_BP1,PA1,20*%
%TO.N,unconnected-(MOTOR_BP1-20-PadPA1)*%
X168910000Y-121920000D03*
%TO.P,MOTOR_BP1,PA2,PA2*%
%TO.N,unconnected-(MOTOR_BP1-PadPA2)*%
X168910000Y-119380000D03*
%TO.P,MOTOR_BP1,PA3,PA3*%
%TO.N,unconnected-(MOTOR_BP1-PadPA3)*%
X168910000Y-116840000D03*
%TO.P,MOTOR_BP1,PA4,PA4*%
%TO.N,unconnected-(MOTOR_BP1-PadPA4)*%
X168910000Y-114300000D03*
%TO.P,MOTOR_BP1,PA5,PA5*%
%TO.N,unconnected-(MOTOR_BP1-PadPA5)*%
X168910000Y-111760000D03*
%TO.P,MOTOR_BP1,PA6,PA6*%
%TO.N,unconnected-(MOTOR_BP1-PadPA6)*%
X168910000Y-109220000D03*
%TO.P,MOTOR_BP1,PA7,PA7*%
%TO.N,unconnected-(MOTOR_BP1-PadPA7)*%
X168910000Y-106680000D03*
%TO.P,MOTOR_BP1,PA8,PA8*%
%TO.N,Net-(Pi2-Pin_1)*%
X153670000Y-96520000D03*
%TO.P,MOTOR_BP1,PA9,PA9*%
%TO.N,unconnected-(MOTOR_BP1-PadPA9)*%
X153670000Y-99060000D03*
%TO.P,MOTOR_BP1,PA10,PA10*%
%TO.N,Net-(Pi3-Pin_1)*%
X153670000Y-101600000D03*
%TO.P,MOTOR_BP1,PA11,PA11*%
%TO.N,Net-(Pi3-Pin_2)*%
X153670000Y-104140000D03*
%TO.P,MOTOR_BP1,PA12,PA12*%
%TO.N,unconnected-(MOTOR_BP1-PadPA12)*%
X153670000Y-106680000D03*
%TO.P,MOTOR_BP1,PA15,PA15*%
%TO.N,Net-(Pi4-Pin_1)*%
X153670000Y-109220000D03*
%TO.P,MOTOR_BP1,PB0,PB0*%
%TO.N,unconnected-(MOTOR_BP1-PadPB0)*%
X168910000Y-104140000D03*
%TO.P,MOTOR_BP1,PB1,PB1*%
%TO.N,unconnected-(MOTOR_BP1-PadPB1)*%
X168910000Y-101600000D03*
%TO.P,MOTOR_BP1,PB3,PB3*%
%TO.N,Net-(Pi4-Pin_2)*%
X153670000Y-111760000D03*
%TO.P,MOTOR_BP1,PB4,PB4*%
%TO.N,unconnected-(MOTOR_BP1-PadPB4)*%
X153670000Y-114300000D03*
%TO.P,MOTOR_BP1,PB5,PB5*%
%TO.N,unconnected-(MOTOR_BP1-PadPB5)*%
X153670000Y-116840000D03*
%TO.P,MOTOR_BP1,PB6,PB6*%
%TO.N,Net-(BP_TO_MOTOR1-Pin_2)*%
X153670000Y-119380000D03*
%TO.P,MOTOR_BP1,PB7,PB7*%
%TO.N,Net-(BP_TO_MOTOR1-Pin_1)*%
X153670000Y-121920000D03*
%TO.P,MOTOR_BP1,PB8,PB8*%
%TO.N,unconnected-(MOTOR_BP1-PadPB8)*%
X153670000Y-124460000D03*
%TO.P,MOTOR_BP1,PB9,PB9*%
%TO.N,unconnected-(MOTOR_BP1-PadPB9)*%
X153670000Y-127000000D03*
%TO.P,MOTOR_BP1,PB10,PB10*%
%TO.N,Net-(MOTOR_BP_DISPLAY1-Pin_3)*%
X168910000Y-99060000D03*
%TO.P,MOTOR_BP1,PB11,PB11*%
%TO.N,Net-(MOTOR_BP_DISPLAY1-Pin_4)*%
X168910000Y-96520000D03*
%TO.P,MOTOR_BP1,PB12,PB12*%
%TO.N,Net-(J1-Pin_32)*%
X153670000Y-86360000D03*
%TO.P,MOTOR_BP1,PB13,PB13*%
%TO.N,Net-(J1-Pin_36)*%
X153670000Y-88900000D03*
%TO.P,MOTOR_BP1,PB14,PB14*%
%TO.N,unconnected-(MOTOR_BP1-PadPB14)*%
X153670000Y-91440000D03*
%TO.P,MOTOR_BP1,PB15,PB15*%
%TO.N,Net-(Pi2-Pin_2)*%
X153670000Y-93980000D03*
%TO.P,MOTOR_BP1,PC13,PC13*%
%TO.N,unconnected-(MOTOR_BP1-PadPC13)*%
X168910000Y-132080000D03*
%TO.P,MOTOR_BP1,PC14,PC14*%
%TO.N,unconnected-(MOTOR_BP1-PadPC14)*%
X168910000Y-129540000D03*
%TO.P,MOTOR_BP1,PC15,PC15*%
%TO.N,unconnected-(MOTOR_BP1-PadPC15)*%
X168910000Y-127000000D03*
%TO.P,MOTOR_BP1,VBAT,Vbat*%
%TO.N,unconnected-(MOTOR_BP1-Vbat-PadVBAT)*%
X168910000Y-134620000D03*
%TD*%
D21*
%TO.P,Pi2,1,Pin_1*%
%TO.N,Net-(Pi2-Pin_1)*%
X166370000Y-78740000D03*
D22*
%TO.P,Pi2,2,Pin_2*%
%TO.N,Net-(Pi2-Pin_2)*%
X163870000Y-78740000D03*
%TO.P,Pi2,3,Pin_3*%
%TO.N,Net-(J1-Pin_10)*%
X161370000Y-78740000D03*
%TO.P,Pi2,4,Pin_4*%
%TO.N,Net-(AS5600JST1-Pin_3)*%
X158870000Y-78740000D03*
%TO.P,Pi2,5,Pin_5*%
%TO.N,Net-(J1-Pin_15)*%
X156370000Y-78740000D03*
%TD*%
D13*
%TO.P,AS5600JST2,1,Pin_1*%
%TO.N,unconnected-(AS5600JST2-Pin_1-Pad1)*%
X191470000Y-134560000D03*
D14*
%TO.P,AS5600JST2,2,Pin_2*%
%TO.N,Net-(AS5600JST2-Pin_2)*%
X191470000Y-132060000D03*
%TO.P,AS5600JST2,3,Pin_3*%
%TO.N,Net-(AS5600JST2-Pin_3)*%
X191470000Y-129560000D03*
%TO.P,AS5600JST2,4,Pin_4*%
%TO.N,unconnected-(AS5600JST2-Pin_4-Pad4)*%
X191470000Y-127060000D03*
%TD*%
D28*
%TO.N,Net-(J1-Pin_1)*%
X198610500Y-107315000D03*
X191770000Y-110490000D03*
%TO.N,Net-(J1-Pin_2)*%
X191770000Y-100330000D03*
X189409500Y-100330000D03*
%TO.N,Net-(J1-Pin_10)*%
X158750000Y-90170000D03*
X167446075Y-92903924D03*
%TO.N,Net-(J1-Pin_13)*%
X187960000Y-107950000D03*
%TO.N,Net-(J1-Pin_39)*%
X187960000Y-88900000D03*
%TO.N,Net-(AS5600JST1-Pin_3)*%
X180340000Y-127000000D03*
X125730000Y-106680000D03*
%TD*%
D29*
%TO.N,Net-(J1-Pin_1)*%
X198610500Y-107315000D02*
X200660000Y-107315000D01*
X191770000Y-106880000D02*
X191770000Y-110490000D01*
X200660000Y-107315000D02*
X201295000Y-106680000D01*
X191470000Y-106580000D02*
X191770000Y-106880000D01*
%TO.N,Net-(J1-Pin_2)*%
X185155000Y-87309000D02*
X187235000Y-89389000D01*
X187659695Y-88175000D02*
X188260305Y-88175000D01*
X191470000Y-96460000D02*
X191770000Y-96760000D01*
X187235000Y-89389000D02*
X187235000Y-88599695D01*
X185155000Y-86360000D02*
X185155000Y-87309000D01*
X187235000Y-88599695D02*
X187659695Y-88175000D01*
X191770000Y-96760000D02*
X191770000Y-100330000D01*
X188260305Y-88175000D02*
X189409500Y-89324195D01*
X189409500Y-89324195D02*
X189409500Y-100330000D01*
%TO.N,Net-(J1-Pin_10)*%
X161370000Y-78740000D02*
X162670000Y-77440000D01*
X134700000Y-82550000D02*
X121920000Y-82550000D01*
X138510000Y-78740000D02*
X134700000Y-82550000D01*
X164356701Y-77440000D02*
X165100000Y-78183299D01*
X165100000Y-80010000D02*
X166370000Y-81280000D01*
X161370000Y-78740000D02*
X161370000Y-86827849D01*
X166308173Y-76540000D02*
X167640000Y-77871827D01*
X167640000Y-77871827D02*
X167640000Y-81280000D01*
X165100000Y-78183299D02*
X165100000Y-80010000D01*
X160213924Y-91633924D02*
X163636075Y-91633924D01*
X163636075Y-91633924D02*
X157695000Y-85692849D01*
X162670000Y-77440000D02*
X164356701Y-77440000D01*
X166370000Y-81280000D02*
X167640000Y-81280000D01*
X157695000Y-78128299D02*
X159283299Y-76540000D01*
X167640000Y-81280000D02*
X180380000Y-81280000D01*
X159283299Y-76540000D02*
X166308173Y-76540000D01*
X158750000Y-90170000D02*
X160213924Y-91633924D01*
X121920000Y-82550000D02*
X121920000Y-99060000D01*
X121920000Y-99060000D02*
X129540000Y-99060000D01*
X161370000Y-86827849D02*
X167446075Y-92903924D01*
X157695000Y-85692849D02*
X157695000Y-78128299D01*
X180380000Y-81280000D02*
X182920000Y-78740000D01*
%TO.N,Net-(J1-Pin_13)*%
X187960000Y-107950000D02*
X185174000Y-105164000D01*
X184730845Y-105164000D02*
X184131000Y-104564155D01*
X185174000Y-105164000D02*
X184730845Y-105164000D01*
X184131000Y-103116000D02*
X182615000Y-101600000D01*
X184131000Y-104564155D02*
X184131000Y-103116000D01*
%TO.N,Net-(J1-Pin_15)*%
X201255000Y-104180000D02*
X200660000Y-104775000D01*
X201295000Y-104180000D02*
X201255000Y-104180000D01*
X181591000Y-112184155D02*
X181591000Y-105164000D01*
X192081701Y-115495000D02*
X190858299Y-115495000D01*
X177920000Y-78740000D02*
X179670000Y-76990000D01*
X191470000Y-104080000D02*
X192735000Y-104080000D01*
X192795000Y-80840431D02*
X192795000Y-104140000D01*
X200660000Y-104775000D02*
X199965000Y-104080000D01*
X190858299Y-115495000D02*
X188147299Y-112784000D01*
X192795000Y-114781701D02*
X192081701Y-115495000D01*
X199965000Y-104080000D02*
X191470000Y-104080000D01*
X188944569Y-76990000D02*
X192795000Y-80840431D01*
X192735000Y-104080000D02*
X192795000Y-104140000D01*
X188147299Y-112784000D02*
X182190845Y-112784000D01*
X181591000Y-105164000D02*
X182615000Y-104140000D01*
X192795000Y-104140000D02*
X192795000Y-114781701D01*
X182190845Y-112784000D02*
X181591000Y-112184155D01*
X179670000Y-76990000D02*
X188944569Y-76990000D01*
%TO.N,Net-(J1-Pin_32)*%
X176713000Y-123373000D02*
X177800000Y-124460000D01*
X127398701Y-117927000D02*
X162377000Y-117927000D01*
X125390000Y-76540000D02*
X120570000Y-81360000D01*
X120570000Y-81360000D02*
X120570000Y-112071701D01*
X123676701Y-114205000D02*
X127398701Y-117927000D01*
X143850000Y-76540000D02*
X125390000Y-76540000D01*
X167823000Y-123373000D02*
X176713000Y-123373000D01*
X162377000Y-117927000D02*
X167823000Y-123373000D01*
X120570000Y-112071701D02*
X122703299Y-114205000D01*
X122703299Y-114205000D02*
X123676701Y-114205000D01*
X153670000Y-86360000D02*
X143850000Y-76540000D01*
%TO.N,Net-(J1-Pin_36)*%
X120120000Y-114161701D02*
X120120000Y-81173604D01*
X125203604Y-76090000D02*
X144937251Y-76090000D01*
X154757000Y-87813000D02*
X153670000Y-88900000D01*
X177800000Y-129540000D02*
X176347000Y-128087000D01*
X120120000Y-81173604D02*
X125203604Y-76090000D01*
X176347000Y-128087000D02*
X137610251Y-128087000D01*
X154757000Y-85909749D02*
X154757000Y-87813000D01*
X126425299Y-120467000D02*
X120120000Y-114161701D01*
X129990251Y-120467000D02*
X126425299Y-120467000D01*
X144937251Y-76090000D02*
X154757000Y-85909749D01*
X137610251Y-128087000D02*
X129990251Y-120467000D01*
%TO.N,Net-(J1-Pin_39)*%
X183639000Y-103715845D02*
X183039155Y-103116000D01*
X181141000Y-112370551D02*
X182004449Y-113234000D01*
X188685000Y-89625000D02*
X188685000Y-108786695D01*
X185537155Y-113234000D02*
X186690000Y-114386845D01*
X185579155Y-135644000D02*
X183639000Y-135644000D01*
X186735695Y-110736000D02*
X184730845Y-110736000D01*
X184730845Y-110736000D02*
X183639000Y-109644155D01*
X182190845Y-103116000D02*
X181141000Y-104165845D01*
X183639000Y-109644155D02*
X183639000Y-103715845D01*
X183639000Y-135644000D02*
X182615000Y-134620000D01*
X186690000Y-114386845D02*
X186690000Y-134533155D01*
X183039155Y-103116000D02*
X182190845Y-103116000D01*
X186690000Y-134533155D02*
X185579155Y-135644000D01*
X181141000Y-104165845D02*
X181141000Y-112370551D01*
X187960000Y-88900000D02*
X188685000Y-89625000D01*
X188685000Y-108786695D02*
X186735695Y-110736000D01*
X182004449Y-113234000D02*
X185537155Y-113234000D01*
%TO.N,Net-(AS5600JST1-Pin_1)*%
X123190000Y-110490000D02*
X121470000Y-108770000D01*
X121470000Y-82363604D02*
X126393604Y-77440000D01*
X121470000Y-108770000D02*
X121470000Y-82363604D01*
X125730000Y-130810000D02*
X129540000Y-134620000D01*
X126393604Y-77440000D02*
X138996701Y-77440000D01*
X123444000Y-130810000D02*
X125730000Y-130810000D01*
X138996701Y-77440000D02*
X139685000Y-78128299D01*
X124277000Y-87447000D02*
X123190000Y-86360000D01*
X132263000Y-87447000D02*
X124277000Y-87447000D01*
X139685000Y-80025000D02*
X132263000Y-87447000D01*
X139685000Y-78128299D02*
X139685000Y-80025000D01*
%TO.N,Net-(AS5600JST1-Pin_3)*%
X177412396Y-123436000D02*
X176284000Y-122307604D01*
X122341000Y-125913000D02*
X127055000Y-130627000D01*
X178224155Y-123436000D02*
X177412396Y-123436000D01*
X176284000Y-122307604D02*
X176284000Y-121495845D01*
X137160000Y-130627000D02*
X151130000Y-130627000D01*
X153670000Y-132080000D02*
X152583000Y-132080000D01*
X171963251Y-120896000D02*
X169360251Y-118293000D01*
D30*
X129540000Y-132080000D02*
X135707000Y-132080000D01*
D29*
X190145000Y-78826827D02*
X190145000Y-112995000D01*
X127000000Y-107950000D02*
X125730000Y-106680000D01*
X180340000Y-127000000D02*
X178824000Y-127000000D01*
X178824000Y-124035845D02*
X178224155Y-123436000D01*
X117444000Y-130810000D02*
X122341000Y-125913000D01*
X190145000Y-112995000D02*
X191470000Y-114320000D01*
X152583000Y-132080000D02*
X151130000Y-130627000D01*
X127635000Y-130627000D02*
X137160000Y-130627000D01*
X178237000Y-130627000D02*
X180340000Y-128524000D01*
X127055000Y-130627000D02*
X127635000Y-130627000D01*
X180420000Y-78740000D02*
X181720000Y-77440000D01*
X176284000Y-121495845D02*
X175684155Y-120896000D01*
X169360251Y-118293000D02*
X167823000Y-118293000D01*
X175684155Y-120896000D02*
X171963251Y-120896000D01*
X167823000Y-118293000D02*
X157480000Y-107950000D01*
D30*
X135707000Y-132080000D02*
X137160000Y-130627000D01*
D29*
X188758173Y-77440000D02*
X190145000Y-78826827D01*
X181720000Y-77440000D02*
X188758173Y-77440000D01*
X151130000Y-130627000D02*
X178237000Y-130627000D01*
X157480000Y-107950000D02*
X127000000Y-107950000D01*
D30*
X129540000Y-132080000D02*
X128087000Y-130627000D01*
X128087000Y-130627000D02*
X127635000Y-130627000D01*
D29*
X180340000Y-128524000D02*
X180340000Y-127000000D01*
X178824000Y-127000000D02*
X178824000Y-124035845D01*
%TO.N,Net-(Pi2-Pin_1)*%
X164620000Y-76990000D02*
X161333299Y-76990000D01*
X160195000Y-78128299D02*
X160195000Y-87168251D01*
X166370000Y-78740000D02*
X164620000Y-76990000D01*
X169360251Y-95433000D02*
X169997000Y-96069749D01*
X161333299Y-76990000D02*
X160195000Y-78128299D01*
X169360251Y-97607000D02*
X154757000Y-97607000D01*
X168459749Y-95433000D02*
X169360251Y-95433000D01*
X169997000Y-96069749D02*
X169997000Y-96970251D01*
X169997000Y-96970251D02*
X169360251Y-97607000D01*
X160195000Y-87168251D02*
X168459749Y-95433000D01*
X154757000Y-97607000D02*
X153670000Y-96520000D01*
%TO.N,Net-(Pi2-Pin_2)*%
X170447000Y-93979749D02*
X170447000Y-99060251D01*
X169360251Y-100147000D02*
X128643000Y-100147000D01*
X142240000Y-86360001D02*
X143692999Y-87813000D01*
X168459749Y-92893000D02*
X169360251Y-92893000D01*
X142240000Y-78183299D02*
X142240000Y-86360001D01*
X125095000Y-111760000D02*
X121920000Y-111760000D01*
X126207208Y-76990000D02*
X141046701Y-76990000D01*
X170447000Y-99060251D02*
X169360251Y-100147000D01*
X143692999Y-87813000D02*
X147503000Y-87813000D01*
X124365000Y-104425000D02*
X124365000Y-106775000D01*
X163870000Y-78740000D02*
X163870000Y-88303251D01*
X121920000Y-111760000D02*
X121020000Y-110860000D01*
X121020000Y-110860000D02*
X121020000Y-82177208D01*
X163870000Y-88303251D02*
X168459749Y-92893000D01*
X169360251Y-92893000D02*
X170447000Y-93979749D01*
X141046701Y-76990000D02*
X142240000Y-78183299D01*
X125095000Y-107505000D02*
X125095000Y-111760000D01*
X121020000Y-82177208D02*
X126207208Y-76990000D01*
X128643000Y-100147000D02*
X124365000Y-104425000D01*
X124365000Y-106775000D02*
X125095000Y-107505000D01*
X147503000Y-87813000D02*
X153670000Y-93980000D01*
%TO.N,Net-(Pi3-Pin_1)*%
X153219749Y-105227000D02*
X153218875Y-105226125D01*
X176284000Y-88475845D02*
X176284000Y-99484155D01*
X176284000Y-99484155D02*
X175684155Y-100084000D01*
X153218875Y-105226125D02*
X152400000Y-104407251D01*
X174503251Y-100084000D02*
X169360251Y-105227000D01*
X152400000Y-104407251D02*
X152400000Y-102870000D01*
X177375845Y-87384000D02*
X176284000Y-88475845D01*
X169360251Y-105227000D02*
X153219750Y-105227000D01*
X187920000Y-78740000D02*
X179276000Y-87384000D01*
X179276000Y-87384000D02*
X177375845Y-87384000D01*
X152400000Y-102870000D02*
X153670000Y-101600000D01*
X175684155Y-100084000D02*
X174503251Y-100084000D01*
X153219750Y-105227000D02*
X153218875Y-105226125D01*
%TO.N,Net-(Pi3-Pin_2)*%
X169177251Y-102870000D02*
X154940000Y-102870000D01*
X171471251Y-85336000D02*
X168994251Y-87813000D01*
X185420000Y-78740000D02*
X178824000Y-85336000D01*
X168459749Y-90353000D02*
X169360251Y-90353000D01*
X170897000Y-91889749D02*
X170897000Y-101150251D01*
X154940000Y-102870000D02*
X153670000Y-104140000D01*
X167457000Y-87813000D02*
X167457000Y-89350251D01*
X170897000Y-101150251D02*
X169177251Y-102870000D01*
X178824000Y-85336000D02*
X171471251Y-85336000D01*
X167457000Y-89350251D02*
X168459749Y-90353000D01*
X169360251Y-90353000D02*
X170897000Y-91889749D01*
X168994251Y-87813000D02*
X167457000Y-87813000D01*
%TO.N,Net-(MOTOR_BP_DISPLAY1-Pin_4)*%
X124460000Y-92710000D02*
X148590000Y-92710000D01*
X167640000Y-95250000D02*
X168910000Y-96520000D01*
X151130000Y-95250000D02*
X167640000Y-95250000D01*
X148590000Y-92710000D02*
X151130000Y-95250000D01*
X123190000Y-91440000D02*
X124460000Y-92710000D01*
%TD*%
M02*
