M48
; DRILL file {KiCad 7.0.5} date Tue Dec 19 10:50:31 2023
; FORMAT={-:-/ absolute / inch / decimal}
; #@! TF.CreationDate,2023-12-19T10:50:31-08:00
; #@! TF.GenerationSoftware,Kicad,Pcbnew,7.0.5
; #@! TF.FileFunction,Plated,1,2,PTH
FMAT,2
INCH
; #@! TA.AperFunction,Plated,PTH,ViaDrill
T1C0.0157
; #@! TA.AperFunction,Plated,PTH,ComponentDrill
T2C0.0300
; #@! TA.AperFunction,Plated,PTH,ComponentDrill
T3C0.0350
; #@! TA.AperFunction,Plated,PTH,ComponentDrill
T4C0.0374
; #@! TA.AperFunction,Plated,PTH,ComponentDrill
T5C0.0394
%
G90
G05
T1
X4.95Y-4.2
X6.25Y-3.55
X6.5924Y-3.6576
X7.1Y-5.0
X7.4Y-3.5
X7.4Y-4.25
X7.4571Y-3.95
X7.55Y-3.95
X7.55Y-4.35
X7.8193Y-4.225
T2
X5.1Y-3.4
X5.1Y-3.5
X5.1Y-3.6
X5.1Y-3.7
X5.1Y-3.8
X5.1Y-3.9
X5.1Y-4.0
X5.1Y-4.1
X5.1Y-4.2
X5.1Y-4.3
X5.1Y-4.4
X5.1Y-4.5
X5.1Y-4.6
X5.1Y-4.7
X5.1Y-4.8
X5.1Y-4.9
X5.1Y-5.0
X5.1Y-5.1
X5.1Y-5.2
X5.1Y-5.3
X5.7Y-3.4
X5.7Y-3.5
X5.7Y-3.6
X5.7Y-3.7
X5.7Y-3.8
X5.7Y-3.9
X5.7Y-4.0
X5.7Y-4.1
X5.7Y-4.2
X5.7Y-4.3
X5.7Y-4.4
X5.7Y-4.5
X5.7Y-4.6
X5.7Y-4.7
X5.7Y-4.8
X5.7Y-4.9
X5.7Y-5.0
X5.7Y-5.1
X5.7Y-5.2
X5.7Y-5.3
X6.05Y-3.4
X6.05Y-3.5
X6.05Y-3.6
X6.05Y-3.7
X6.05Y-3.8
X6.05Y-3.9
X6.05Y-4.0
X6.05Y-4.1
X6.05Y-4.2
X6.05Y-4.3
X6.05Y-4.4
X6.05Y-4.5
X6.05Y-4.6
X6.05Y-4.7
X6.05Y-4.8
X6.05Y-4.9
X6.05Y-5.0
X6.05Y-5.1
X6.05Y-5.2
X6.05Y-5.3
X6.65Y-3.4
X6.65Y-3.5
X6.65Y-3.6
X6.65Y-3.7
X6.65Y-3.8
X6.65Y-3.9
X6.65Y-4.0
X6.65Y-4.1
X6.65Y-4.2
X6.65Y-4.3
X6.65Y-4.4
X6.65Y-4.5
X6.65Y-4.6
X6.65Y-4.7
X6.65Y-4.8
X6.65Y-4.9
X6.65Y-5.0
X6.65Y-5.1
X6.65Y-5.2
X6.65Y-5.3
T3
X6.9Y-3.4
X6.9Y-3.5
X6.9Y-3.6
X6.9Y-3.7
X6.9Y-3.8
X6.9Y-3.9
X6.9Y-4.0
X6.9Y-4.1
X6.9Y-4.2
X6.9Y-4.3
X6.9Y-4.4
X6.9Y-4.5
X6.9Y-4.6
X6.9Y-4.7
X6.9Y-4.8
X6.9Y-4.9
X6.9Y-5.0
X6.9Y-5.1
X6.9Y-5.2
X6.9Y-5.3
X7.0Y-3.4
X7.0Y-3.5
X7.0Y-3.6
X7.0Y-3.7
X7.0Y-3.8
X7.0Y-3.9
X7.0Y-4.0
X7.0Y-4.1
X7.0Y-4.2
X7.0Y-4.3
X7.0Y-4.4
X7.0Y-4.5
X7.0Y-4.6
X7.0Y-4.7
X7.0Y-4.8
X7.0Y-4.9
X7.0Y-5.0
X7.0Y-5.1
X7.0Y-5.2
X7.0Y-5.3
X7.1896Y-3.4
X7.1896Y-3.5
X7.1896Y-3.6
X7.1896Y-3.7
X7.1896Y-3.8
X7.1896Y-3.9
X7.1896Y-4.0
X7.1896Y-4.1
X7.1896Y-4.2
X7.1896Y-4.3
X7.1896Y-4.4
X7.1896Y-4.5
X7.1896Y-4.6
X7.1896Y-4.7
X7.1896Y-4.8
X7.1896Y-4.9
X7.1896Y-5.0
X7.1896Y-5.1
X7.1896Y-5.2
X7.1896Y-5.3
X7.2896Y-3.4
X7.2896Y-3.5
X7.2896Y-3.6
X7.2896Y-3.7
X7.2896Y-3.8
X7.2896Y-3.9
X7.2896Y-4.0
X7.2896Y-4.1
X7.2896Y-4.2
X7.2896Y-4.3
X7.2896Y-4.4
X7.2896Y-4.5
X7.2896Y-4.6
X7.2896Y-4.7
X7.2896Y-4.8
X7.2896Y-4.9
X7.2896Y-5.0
X7.2896Y-5.1
X7.2896Y-5.2
X7.2896Y-5.3
T4
X5.2563Y-3.1
X5.3547Y-3.1
X5.4531Y-3.1
X5.5516Y-3.1
X5.65Y-3.1
X6.1563Y-3.1
X6.2547Y-3.1
X6.3531Y-3.1
X6.4516Y-3.1
X6.55Y-3.1
X7.0047Y-3.1
X7.1031Y-3.1
X7.2016Y-3.1
X7.3Y-3.1
X7.3984Y-3.1
X7.5382Y-3.5024
X7.5382Y-3.6008
X7.5382Y-3.6992
X7.5382Y-3.7976
X7.5382Y-4.5008
X7.5382Y-4.5992
X7.5382Y-4.6976
X7.5382Y-5.0024
X7.5382Y-5.1008
X7.5382Y-5.1992
X7.5382Y-5.2976
X7.95Y-5.0031
X7.95Y-5.1016
X7.95Y-5.2
T5
X4.851Y-3.3004
X4.851Y-3.4004
X4.851Y-3.5004
X4.851Y-3.6004
X4.851Y-4.25
X4.851Y-4.35
X4.851Y-4.45
X4.851Y-4.55
X7.5382Y-4.0976
X7.5382Y-4.1961
X7.925Y-4.1016
X7.925Y-4.2
T5
G00X4.6238Y-5.1894
M15
G01X4.6238Y-5.1106
M16
G05
G00X4.7813Y-5.335
M15
G01X4.7025Y-5.335
M16
G05
G00X4.86Y-5.1992
M15
G01X4.86Y-5.1008
M16
G05
T0
M30
