%TF.GenerationSoftware,KiCad,Pcbnew,7.0.5*%
%TF.CreationDate,2023-12-19T10:58:39-08:00*%
%TF.ProjectId,Pi2_PiHat,5069325f-5069-4486-9174-2e6b69636164,rev?*%
%TF.SameCoordinates,Original*%
%TF.FileFunction,Copper,L2,Bot*%
%TF.FilePolarity,Positive*%
%FSLAX46Y46*%
G04 Gerber Fmt 4.6, Leading zero omitted, Abs format (unit mm)*
G04 Created by KiCad (PCBNEW 7.0.5) date 2023-12-19 10:58:39*
%MOMM*%
%LPD*%
G01*
G04 APERTURE LIST*
G04 Aperture macros list*
%AMRoundRect*
0 Rectangle with rounded corners*
0 $1 Rounding radius*
0 $2 $3 $4 $5 $6 $7 $8 $9 X,Y pos of 4 corners*
0 Add a 4 corners polygon primitive as box body*
4,1,4,$2,$3,$4,$5,$6,$7,$8,$9,$2,$3,0*
0 Add four circle primitives for the rounded corners*
1,1,$1+$1,$2,$3*
1,1,$1+$1,$4,$5*
1,1,$1+$1,$6,$7*
1,1,$1+$1,$8,$9*
0 Add four rect primitives between the rounded corners*
20,1,$1+$1,$2,$3,$4,$5,0*
20,1,$1+$1,$4,$5,$6,$7,0*
20,1,$1+$1,$6,$7,$8,$9,0*
20,1,$1+$1,$8,$9,$2,$3,0*%
G04 Aperture macros list end*
%TA.AperFunction,ComponentPad*%
%ADD10RoundRect,0.250000X-0.725000X0.600000X-0.725000X-0.600000X0.725000X-0.600000X0.725000X0.600000X0*%
%TD*%
%TA.AperFunction,ComponentPad*%
%ADD11O,1.950000X1.700000*%
%TD*%
%TA.AperFunction,ComponentPad*%
%ADD12C,1.398000*%
%TD*%
%TA.AperFunction,ComponentPad*%
%ADD13R,1.398000X1.398000*%
%TD*%
%TA.AperFunction,Conductor*%
%ADD14C,0.250000*%
%TD*%
G04 APERTURE END LIST*
D10*
%TO.P,Ultrasonic2,1,Pin_1*%
%TO.N,Net-(Out1-Pin_2)*%
X86360000Y-81400000D03*
D11*
%TO.P,Ultrasonic2,2,Pin_2*%
%TO.N,Net-(Out1-Pin_13)*%
X86360000Y-83900000D03*
%TO.P,Ultrasonic2,3,Pin_3*%
%TO.N,Net-(Out1-Pin_11)*%
X86360000Y-86400000D03*
%TO.P,Ultrasonic2,4,Pin_4*%
%TO.N,Net-(Out1-Pin_9)*%
X86360000Y-88900000D03*
%TD*%
D12*
%TO.P,Out1,1,Pin_1*%
%TO.N,Net-(Out1-Pin_1)*%
X68585000Y-62640000D03*
D13*
%TO.P,Out1,2,Pin_2*%
%TO.N,Net-(Out1-Pin_2)*%
X71125000Y-62640000D03*
D12*
%TO.P,Out1,3,Pin_3*%
%TO.N,Net-(Out1-Pin_3)*%
X68585000Y-65180000D03*
%TO.P,Out1,4,Pin_4*%
%TO.N,Net-(Out1-Pin_4)*%
X71125000Y-65180000D03*
%TO.P,Out1,5,Pin_5*%
%TO.N,Net-(Out1-Pin_5)*%
X68585000Y-67720000D03*
%TO.P,Out1,6,Pin_6*%
%TO.N,Net-(Out1-Pin_6)*%
X71125000Y-67720000D03*
%TO.P,Out1,7,Pin_7*%
%TO.N,Net-(Out1-Pin_7)*%
X68585000Y-70260000D03*
%TO.P,Out1,8,Pin_8*%
%TO.N,Net-(Out1-Pin_8)*%
X71125000Y-70260000D03*
%TO.P,Out1,9,Pin_9*%
%TO.N,Net-(Out1-Pin_9)*%
X68585000Y-72800000D03*
%TO.P,Out1,10,Pin_10*%
%TO.N,Net-(Out1-Pin_10)*%
X71125000Y-72800000D03*
%TO.P,Out1,11,Pin_11*%
%TO.N,Net-(Out1-Pin_11)*%
X68585000Y-75340000D03*
%TO.P,Out1,12,Pin_12*%
%TO.N,Net-(Out1-Pin_12)*%
X71125000Y-75340000D03*
%TO.P,Out1,13,Pin_13*%
%TO.N,Net-(Out1-Pin_13)*%
X68585000Y-77880000D03*
%TO.P,Out1,14,Pin_14*%
%TO.N,Net-(Out1-Pin_14)*%
X71125000Y-77880000D03*
%TO.P,Out1,15,Pin_15*%
%TO.N,Net-(Out1-Pin_15)*%
X68585000Y-80420000D03*
%TO.P,Out1,16,Pin_16*%
%TO.N,Net-(Out1-Pin_16)*%
X71125000Y-80420000D03*
%TO.P,Out1,17,Pin_17*%
%TO.N,Net-(Out1-Pin_17)*%
X68585000Y-82960000D03*
%TO.P,Out1,18,Pin_18*%
%TO.N,Net-(Out1-Pin_18)*%
X71125000Y-82960000D03*
%TO.P,Out1,19,Pin_19*%
%TO.N,Net-(Out1-Pin_19)*%
X68585000Y-85500000D03*
%TO.P,Out1,20,Pin_20*%
%TO.N,Net-(Out1-Pin_20)*%
X71125000Y-85500000D03*
%TO.P,Out1,21,Pin_21*%
%TO.N,Net-(Out1-Pin_21)*%
X68585000Y-88040000D03*
%TO.P,Out1,22,Pin_22*%
%TO.N,Net-(Out1-Pin_22)*%
X71125000Y-88040000D03*
%TO.P,Out1,23,Pin_23*%
%TO.N,Net-(Out1-Pin_23)*%
X68585000Y-90580000D03*
%TO.P,Out1,24,Pin_24*%
%TO.N,Net-(Out1-Pin_24)*%
X71125000Y-90580000D03*
%TO.P,Out1,25,Pin_25*%
%TO.N,Net-(Out1-Pin_25)*%
X68585000Y-93120000D03*
%TO.P,Out1,26,Pin_26*%
%TO.N,Net-(Out1-Pin_26)*%
X71125000Y-93120000D03*
%TO.P,Out1,27,Pin_27*%
%TO.N,Net-(Out1-Pin_27)*%
X68585000Y-95660000D03*
%TO.P,Out1,28,Pin_28*%
%TO.N,Net-(Out1-Pin_28)*%
X71125000Y-95660000D03*
%TO.P,Out1,29,Pin_29*%
%TO.N,Net-(Out1-Pin_29)*%
X68585000Y-98200000D03*
%TO.P,Out1,30,Pin_30*%
%TO.N,Net-(Out1-Pin_30)*%
X71125000Y-98200000D03*
%TO.P,Out1,31,Pin_31*%
%TO.N,Net-(Out1-Pin_31)*%
X68585000Y-100740000D03*
%TO.P,Out1,32,Pin_32*%
%TO.N,Net-(Out1-Pin_32)*%
X71125000Y-100740000D03*
%TO.P,Out1,33,Pin_33*%
%TO.N,Net-(Out1-Pin_33)*%
X68585000Y-103280000D03*
%TO.P,Out1,34,Pin_34*%
%TO.N,Net-(Out1-Pin_34)*%
X71125000Y-103280000D03*
%TO.P,Out1,35,Pin_35*%
%TO.N,Net-(Out1-Pin_35)*%
X68585000Y-105820000D03*
%TO.P,Out1,36,Pin_36*%
%TO.N,Net-(Out1-Pin_36)*%
X71125000Y-105820000D03*
%TO.P,Out1,37,Pin_37*%
%TO.N,Net-(Out1-Pin_37)*%
X68585000Y-108360000D03*
%TO.P,Out1,38,Pin_38*%
%TO.N,Net-(Out1-Pin_38)*%
X71125000Y-108360000D03*
%TO.P,Out1,39,Pin_39*%
%TO.N,Net-(Out1-Pin_39)*%
X68585000Y-110900000D03*
%TO.P,Out1,40,Pin_40*%
%TO.N,Net-(Out1-Pin_40)*%
X71125000Y-110900000D03*
%TD*%
%TO.P,PI_to_Header1,1,Pin_1*%
%TO.N,Net-(Out1-Pin_1)*%
X75940000Y-62640000D03*
D13*
%TO.P,PI_to_Header1,2,Pin_2*%
%TO.N,Net-(Out1-Pin_2)*%
X78480000Y-62640000D03*
D12*
%TO.P,PI_to_Header1,3,Pin_3*%
%TO.N,Net-(Out1-Pin_3)*%
X75940000Y-65180000D03*
%TO.P,PI_to_Header1,4,Pin_4*%
%TO.N,Net-(Out1-Pin_4)*%
X78480000Y-65180000D03*
%TO.P,PI_to_Header1,5,Pin_5*%
%TO.N,Net-(Out1-Pin_5)*%
X75940000Y-67720000D03*
%TO.P,PI_to_Header1,6,Pin_6*%
%TO.N,Net-(Out1-Pin_6)*%
X78480000Y-67720000D03*
%TO.P,PI_to_Header1,7,Pin_7*%
%TO.N,Net-(Out1-Pin_7)*%
X75940000Y-70260000D03*
%TO.P,PI_to_Header1,8,Pin_8*%
%TO.N,Net-(Out1-Pin_8)*%
X78480000Y-70260000D03*
%TO.P,PI_to_Header1,9,Pin_9*%
%TO.N,Net-(Out1-Pin_9)*%
X75940000Y-72800000D03*
%TO.P,PI_to_Header1,10,Pin_10*%
%TO.N,Net-(Out1-Pin_10)*%
X78480000Y-72800000D03*
%TO.P,PI_to_Header1,11,Pin_11*%
%TO.N,Net-(Out1-Pin_11)*%
X75940000Y-75340000D03*
%TO.P,PI_to_Header1,12,Pin_12*%
%TO.N,Net-(Out1-Pin_12)*%
X78480000Y-75340000D03*
%TO.P,PI_to_Header1,13,Pin_13*%
%TO.N,Net-(Out1-Pin_13)*%
X75940000Y-77880000D03*
%TO.P,PI_to_Header1,14,Pin_14*%
%TO.N,Net-(Out1-Pin_14)*%
X78480000Y-77880000D03*
%TO.P,PI_to_Header1,15,Pin_15*%
%TO.N,Net-(Out1-Pin_15)*%
X75940000Y-80420000D03*
%TO.P,PI_to_Header1,16,Pin_16*%
%TO.N,Net-(Out1-Pin_16)*%
X78480000Y-80420000D03*
%TO.P,PI_to_Header1,17,Pin_17*%
%TO.N,Net-(Out1-Pin_17)*%
X75940000Y-82960000D03*
%TO.P,PI_to_Header1,18,Pin_18*%
%TO.N,Net-(Out1-Pin_18)*%
X78480000Y-82960000D03*
%TO.P,PI_to_Header1,19,Pin_19*%
%TO.N,Net-(Out1-Pin_19)*%
X75940000Y-85500000D03*
%TO.P,PI_to_Header1,20,Pin_20*%
%TO.N,Net-(Out1-Pin_20)*%
X78480000Y-85500000D03*
%TO.P,PI_to_Header1,21,Pin_21*%
%TO.N,Net-(Out1-Pin_21)*%
X75940000Y-88040000D03*
%TO.P,PI_to_Header1,22,Pin_22*%
%TO.N,Net-(Out1-Pin_22)*%
X78480000Y-88040000D03*
%TO.P,PI_to_Header1,23,Pin_23*%
%TO.N,Net-(Out1-Pin_23)*%
X75940000Y-90580000D03*
%TO.P,PI_to_Header1,24,Pin_24*%
%TO.N,Net-(Out1-Pin_24)*%
X78480000Y-90580000D03*
%TO.P,PI_to_Header1,25,Pin_25*%
%TO.N,Net-(Out1-Pin_25)*%
X75940000Y-93120000D03*
%TO.P,PI_to_Header1,26,Pin_26*%
%TO.N,Net-(Out1-Pin_26)*%
X78480000Y-93120000D03*
%TO.P,PI_to_Header1,27,Pin_27*%
%TO.N,Net-(Out1-Pin_27)*%
X75940000Y-95660000D03*
%TO.P,PI_to_Header1,28,Pin_28*%
%TO.N,Net-(Out1-Pin_28)*%
X78480000Y-95660000D03*
%TO.P,PI_to_Header1,29,Pin_29*%
%TO.N,Net-(Out1-Pin_29)*%
X75940000Y-98200000D03*
%TO.P,PI_to_Header1,30,Pin_30*%
%TO.N,Net-(Out1-Pin_30)*%
X78480000Y-98200000D03*
%TO.P,PI_to_Header1,31,Pin_31*%
%TO.N,Net-(Out1-Pin_31)*%
X75940000Y-100740000D03*
%TO.P,PI_to_Header1,32,Pin_32*%
%TO.N,Net-(Out1-Pin_32)*%
X78480000Y-100740000D03*
%TO.P,PI_to_Header1,33,Pin_33*%
%TO.N,Net-(Out1-Pin_33)*%
X75940000Y-103280000D03*
%TO.P,PI_to_Header1,34,Pin_34*%
%TO.N,Net-(Out1-Pin_34)*%
X78480000Y-103280000D03*
%TO.P,PI_to_Header1,35,Pin_35*%
%TO.N,Net-(Out1-Pin_35)*%
X75940000Y-105820000D03*
%TO.P,PI_to_Header1,36,Pin_36*%
%TO.N,Net-(Out1-Pin_36)*%
X78480000Y-105820000D03*
%TO.P,PI_to_Header1,37,Pin_37*%
%TO.N,Net-(Out1-Pin_37)*%
X75940000Y-108360000D03*
%TO.P,PI_to_Header1,38,Pin_38*%
%TO.N,Net-(Out1-Pin_38)*%
X78480000Y-108360000D03*
%TO.P,PI_to_Header1,39,Pin_39*%
%TO.N,Net-(Out1-Pin_39)*%
X75940000Y-110900000D03*
%TO.P,PI_to_Header1,40,Pin_40*%
%TO.N,Net-(Out1-Pin_40)*%
X78480000Y-110900000D03*
%TD*%
D10*
%TO.P,Pi1_to_Pi2,1,Pin_1*%
%TO.N,Net-(Out1-Pin_32)*%
X86360000Y-96520000D03*
D11*
%TO.P,Pi1_to_Pi2,2,Pin_2*%
%TO.N,Net-(Out1-Pin_36)*%
X86360000Y-99020000D03*
%TO.P,Pi1_to_Pi2,3,Pin_3*%
%TO.N,Net-(Out1-Pin_10)*%
X86360000Y-101520000D03*
%TO.P,Pi1_to_Pi2,4,Pin_4*%
%TO.N,Net-(Out1-Pin_6)*%
X86360000Y-104020000D03*
%TO.P,Pi1_to_Pi2,5,Pin_5*%
%TO.N,Net-(Out1-Pin_15)*%
X86360000Y-106520000D03*
%TD*%
D14*
%TO.N,Net-(Out1-Pin_1)*%
X74916000Y-63664000D02*
X75940000Y-62640000D01*
X69609000Y-63664000D02*
X74916000Y-63664000D01*
X68585000Y-62640000D02*
X69609000Y-63664000D01*
%TO.N,Net-(Out1-Pin_2)*%
X77456000Y-61616000D02*
X78480000Y-62640000D01*
X71125000Y-62640000D02*
X72149000Y-61616000D01*
X72149000Y-61616000D02*
X77456000Y-61616000D01*
%TO.N,Net-(Out1-Pin_3)*%
X68585000Y-65180000D02*
X69609000Y-64156000D01*
X74916000Y-64156000D02*
X75940000Y-65180000D01*
X69609000Y-64156000D02*
X74916000Y-64156000D01*
%TO.N,Net-(Out1-Pin_4)*%
X72641000Y-66696000D02*
X76964000Y-66696000D01*
X76964000Y-66696000D02*
X78480000Y-65180000D01*
X71125000Y-65180000D02*
X72641000Y-66696000D01*
%TO.N,Net-(Out1-Pin_5)*%
X71512604Y-66204000D02*
X70101000Y-66204000D01*
X75940000Y-67720000D02*
X73028604Y-67720000D01*
X73028604Y-67720000D02*
X71512604Y-66204000D01*
X70101000Y-66204000D02*
X68585000Y-67720000D01*
%TO.N,Net-(Out1-Pin_7)*%
X69609000Y-69236000D02*
X68585000Y-70260000D01*
X74916000Y-69236000D02*
X69609000Y-69236000D01*
X75940000Y-70260000D02*
X74916000Y-69236000D01*
%TO.N,Net-(Out1-Pin_8)*%
X72641000Y-71776000D02*
X76964000Y-71776000D01*
X76964000Y-71776000D02*
X78480000Y-70260000D01*
X71125000Y-70260000D02*
X72641000Y-71776000D01*
%TO.N,Net-(Out1-Pin_9)*%
X75940000Y-72800000D02*
X72573155Y-72800000D01*
X69609000Y-71776000D02*
X68585000Y-72800000D01*
X72573155Y-72800000D02*
X71549155Y-71776000D01*
X86360000Y-88900000D02*
X86023173Y-89236827D01*
X71549155Y-71776000D02*
X69609000Y-71776000D01*
%TO.N,Net-(Out1-Pin_11)*%
X75940000Y-75340000D02*
X74916000Y-74316000D01*
X69609000Y-74316000D02*
X68585000Y-75340000D01*
X74916000Y-74316000D02*
X69609000Y-74316000D01*
%TO.N,Net-(Out1-Pin_12)*%
X76964000Y-76856000D02*
X78480000Y-75340000D01*
X71125000Y-75340000D02*
X72641000Y-76856000D01*
X72641000Y-76856000D02*
X76964000Y-76856000D01*
%TO.N,Net-(Out1-Pin_13)*%
X71549155Y-76856000D02*
X69609000Y-76856000D01*
X69609000Y-76856000D02*
X68585000Y-77880000D01*
X75940000Y-77880000D02*
X72573155Y-77880000D01*
X72573155Y-77880000D02*
X71549155Y-76856000D01*
%TO.N,Net-(Out1-Pin_14)*%
X71125000Y-77880000D02*
X72149000Y-78904000D01*
X72149000Y-78904000D02*
X77456000Y-78904000D01*
X77456000Y-78904000D02*
X78480000Y-77880000D01*
%TO.N,Net-(Out1-Pin_16)*%
X77456000Y-81444000D02*
X78480000Y-80420000D01*
X72149000Y-81444000D02*
X77456000Y-81444000D01*
X71125000Y-80420000D02*
X72149000Y-81444000D01*
%TO.N,Net-(Out1-Pin_17)*%
X74916000Y-81936000D02*
X69609000Y-81936000D01*
X75940000Y-82960000D02*
X74916000Y-81936000D01*
X69609000Y-81936000D02*
X68585000Y-82960000D01*
%TO.N,Net-(Out1-Pin_18)*%
X71125000Y-82960000D02*
X72149000Y-83984000D01*
X72149000Y-83984000D02*
X77456000Y-83984000D01*
X77456000Y-83984000D02*
X78480000Y-82960000D01*
%TO.N,Net-(Out1-Pin_19)*%
X75940000Y-85500000D02*
X74916000Y-84476000D01*
X74916000Y-84476000D02*
X69609000Y-84476000D01*
X69609000Y-84476000D02*
X68585000Y-85500000D01*
%TO.N,Net-(Out1-Pin_20)*%
X71125000Y-85500000D02*
X72149000Y-86524000D01*
X72149000Y-86524000D02*
X77456000Y-86524000D01*
X77456000Y-86524000D02*
X78480000Y-85500000D01*
%TO.N,Net-(Out1-Pin_21)*%
X69609000Y-87016000D02*
X68585000Y-88040000D01*
X75940000Y-88040000D02*
X74916000Y-87016000D01*
X74916000Y-87016000D02*
X69609000Y-87016000D01*
%TO.N,Net-(Out1-Pin_22)*%
X71125000Y-88040000D02*
X72149000Y-89064000D01*
X72149000Y-89064000D02*
X77456000Y-89064000D01*
X77456000Y-89064000D02*
X78480000Y-88040000D01*
%TO.N,Net-(Out1-Pin_23)*%
X74916000Y-89556000D02*
X69609000Y-89556000D01*
X75940000Y-90580000D02*
X74916000Y-89556000D01*
X69609000Y-89556000D02*
X68585000Y-90580000D01*
%TO.N,Net-(Out1-Pin_24)*%
X77456000Y-91604000D02*
X78480000Y-90580000D01*
X72149000Y-91604000D02*
X77456000Y-91604000D01*
X71125000Y-90580000D02*
X72149000Y-91604000D01*
%TO.N,Net-(Out1-Pin_25)*%
X69609000Y-92096000D02*
X68585000Y-93120000D01*
X75940000Y-93120000D02*
X74916000Y-92096000D01*
X74916000Y-92096000D02*
X69609000Y-92096000D01*
%TO.N,Net-(Out1-Pin_26)*%
X72149000Y-94144000D02*
X77456000Y-94144000D01*
X77456000Y-94144000D02*
X78480000Y-93120000D01*
X71125000Y-93120000D02*
X72149000Y-94144000D01*
%TO.N,Net-(Out1-Pin_27)*%
X75940000Y-95660000D02*
X74916000Y-94636000D01*
X74916000Y-94636000D02*
X69609000Y-94636000D01*
X69609000Y-94636000D02*
X68585000Y-95660000D01*
%TO.N,Net-(Out1-Pin_28)*%
X77456000Y-96684000D02*
X78480000Y-95660000D01*
X71125000Y-95660000D02*
X72149000Y-96684000D01*
X72149000Y-96684000D02*
X77456000Y-96684000D01*
%TO.N,Net-(Out1-Pin_29)*%
X75940000Y-98200000D02*
X74916000Y-97176000D01*
X69609000Y-97176000D02*
X68585000Y-98200000D01*
X74916000Y-97176000D02*
X69609000Y-97176000D01*
%TO.N,Net-(Out1-Pin_30)*%
X77456000Y-99224000D02*
X78480000Y-98200000D01*
X71125000Y-98200000D02*
X72149000Y-99224000D01*
X72149000Y-99224000D02*
X77456000Y-99224000D01*
%TO.N,Net-(Out1-Pin_31)*%
X75940000Y-100740000D02*
X74916000Y-99716000D01*
X69609000Y-99716000D02*
X68585000Y-100740000D01*
X74916000Y-99716000D02*
X69609000Y-99716000D01*
%TO.N,Net-(Out1-Pin_33)*%
X74874000Y-102214000D02*
X69651000Y-102214000D01*
X75940000Y-103280000D02*
X74874000Y-102214000D01*
X69651000Y-102214000D02*
X68585000Y-103280000D01*
%TO.N,Net-(Out1-Pin_35)*%
X74916000Y-104796000D02*
X69609000Y-104796000D01*
X69609000Y-104796000D02*
X68585000Y-105820000D01*
X75940000Y-105820000D02*
X74916000Y-104796000D01*
%TO.N,Net-(Out1-Pin_37)*%
X69609000Y-107336000D02*
X68585000Y-108360000D01*
X74916000Y-107336000D02*
X69609000Y-107336000D01*
X75940000Y-108360000D02*
X74916000Y-107336000D01*
%TO.N,Net-(Out1-Pin_38)*%
X77456000Y-109384000D02*
X78480000Y-108360000D01*
X71125000Y-108360000D02*
X72149000Y-109384000D01*
X72149000Y-109384000D02*
X77456000Y-109384000D01*
%TO.N,Net-(Out1-Pin_39)*%
X74916000Y-109876000D02*
X69609000Y-109876000D01*
X69609000Y-109876000D02*
X68585000Y-110900000D01*
X75940000Y-110900000D02*
X74916000Y-109876000D01*
%TO.N,Net-(Out1-Pin_40)*%
X77456000Y-111924000D02*
X78480000Y-110900000D01*
X72149000Y-111924000D02*
X77456000Y-111924000D01*
X71125000Y-110900000D02*
X72149000Y-111924000D01*
%TO.N,Net-(Out1-Pin_34)*%
X71125000Y-103280000D02*
X72149000Y-104304000D01*
X72149000Y-104304000D02*
X77456000Y-104304000D01*
X77456000Y-104304000D02*
X78480000Y-103280000D01*
%TO.N,Net-(Out1-Pin_6)*%
X71125000Y-67720000D02*
X72149000Y-68744000D01*
X77456000Y-68744000D02*
X78480000Y-67720000D01*
X72149000Y-68744000D02*
X77456000Y-68744000D01*
%TO.N,Net-(Out1-Pin_10)*%
X72149000Y-73824000D02*
X77456000Y-73824000D01*
X77456000Y-73824000D02*
X78480000Y-72800000D01*
X71125000Y-72800000D02*
X72149000Y-73824000D01*
%TO.N,Net-(Out1-Pin_15)*%
X75940000Y-80420000D02*
X74916000Y-79396000D01*
X69609000Y-79396000D02*
X68585000Y-80420000D01*
X74916000Y-79396000D02*
X69609000Y-79396000D01*
%TO.N,Net-(Out1-Pin_32)*%
X71125000Y-100740000D02*
X72149000Y-101764000D01*
X72149000Y-101764000D02*
X77456000Y-101764000D01*
X77456000Y-101764000D02*
X78480000Y-100740000D01*
%TO.N,Net-(Out1-Pin_36)*%
X71125000Y-105820000D02*
X72149000Y-106844000D01*
X77456000Y-106844000D02*
X78480000Y-105820000D01*
X72149000Y-106844000D02*
X77456000Y-106844000D01*
%TD*%
M02*
