%TF.GenerationSoftware,KiCad,Pcbnew,7.0.5*%
%TF.CreationDate,2023-12-19T10:58:39-08:00*%
%TF.ProjectId,Pi2_PiHat,5069325f-5069-4486-9174-2e6b69636164,rev?*%
%TF.SameCoordinates,Original*%
%TF.FileFunction,Legend,Top*%
%TF.FilePolarity,Positive*%
%FSLAX46Y46*%
G04 Gerber Fmt 4.6, Leading zero omitted, Abs format (unit mm)*
G04 Created by KiCad (PCBNEW 7.0.5) date 2023-12-19 10:58:39*
%MOMM*%
%LPD*%
G01*
G04 APERTURE LIST*
%ADD10C,0.300000*%
%ADD11C,0.150000*%
%ADD12C,0.120000*%
%ADD13C,0.127000*%
%ADD14C,0.200000*%
G04 APERTURE END LIST*
D10*
%TO.C,G\u002A\u002A\u002A*%
X86308572Y-67829757D02*
X86165715Y-67758328D01*
X86165715Y-67758328D02*
X85951429Y-67758328D01*
X85951429Y-67758328D02*
X85737143Y-67829757D01*
X85737143Y-67829757D02*
X85594286Y-67972614D01*
X85594286Y-67972614D02*
X85522857Y-68115471D01*
X85522857Y-68115471D02*
X85451429Y-68401185D01*
X85451429Y-68401185D02*
X85451429Y-68615471D01*
X85451429Y-68615471D02*
X85522857Y-68901185D01*
X85522857Y-68901185D02*
X85594286Y-69044042D01*
X85594286Y-69044042D02*
X85737143Y-69186900D01*
X85737143Y-69186900D02*
X85951429Y-69258328D01*
X85951429Y-69258328D02*
X86094286Y-69258328D01*
X86094286Y-69258328D02*
X86308572Y-69186900D01*
X86308572Y-69186900D02*
X86380000Y-69115471D01*
X86380000Y-69115471D02*
X86380000Y-68615471D01*
X86380000Y-68615471D02*
X86094286Y-68615471D01*
X87237143Y-67758328D02*
X87237143Y-68115471D01*
X86880000Y-67972614D02*
X87237143Y-68115471D01*
X87237143Y-68115471D02*
X87594286Y-67972614D01*
X87022857Y-68401185D02*
X87237143Y-68115471D01*
X87237143Y-68115471D02*
X87451429Y-68401185D01*
X88380000Y-67758328D02*
X88380000Y-68115471D01*
X88022857Y-67972614D02*
X88380000Y-68115471D01*
X88380000Y-68115471D02*
X88737143Y-67972614D01*
X88165714Y-68401185D02*
X88380000Y-68115471D01*
X88380000Y-68115471D02*
X88594286Y-68401185D01*
X89522857Y-67758328D02*
X89522857Y-68115471D01*
X89165714Y-67972614D02*
X89522857Y-68115471D01*
X89522857Y-68115471D02*
X89880000Y-67972614D01*
X89308571Y-68401185D02*
X89522857Y-68115471D01*
X89522857Y-68115471D02*
X89737143Y-68401185D01*
D11*
%TO.C,Ultrasonic2*%
X90259819Y-89197619D02*
X91069342Y-89197619D01*
X91069342Y-89197619D02*
X91164580Y-89150000D01*
X91164580Y-89150000D02*
X91212200Y-89102381D01*
X91212200Y-89102381D02*
X91259819Y-89007143D01*
X91259819Y-89007143D02*
X91259819Y-88816667D01*
X91259819Y-88816667D02*
X91212200Y-88721429D01*
X91212200Y-88721429D02*
X91164580Y-88673810D01*
X91164580Y-88673810D02*
X91069342Y-88626191D01*
X91069342Y-88626191D02*
X90259819Y-88626191D01*
X91259819Y-88007143D02*
X91212200Y-88102381D01*
X91212200Y-88102381D02*
X91116961Y-88150000D01*
X91116961Y-88150000D02*
X90259819Y-88150000D01*
X90593152Y-87769047D02*
X90593152Y-87388095D01*
X90259819Y-87626190D02*
X91116961Y-87626190D01*
X91116961Y-87626190D02*
X91212200Y-87578571D01*
X91212200Y-87578571D02*
X91259819Y-87483333D01*
X91259819Y-87483333D02*
X91259819Y-87388095D01*
X91259819Y-87054761D02*
X90593152Y-87054761D01*
X90783628Y-87054761D02*
X90688390Y-87007142D01*
X90688390Y-87007142D02*
X90640771Y-86959523D01*
X90640771Y-86959523D02*
X90593152Y-86864285D01*
X90593152Y-86864285D02*
X90593152Y-86769047D01*
X91259819Y-86007142D02*
X90736009Y-86007142D01*
X90736009Y-86007142D02*
X90640771Y-86054761D01*
X90640771Y-86054761D02*
X90593152Y-86149999D01*
X90593152Y-86149999D02*
X90593152Y-86340475D01*
X90593152Y-86340475D02*
X90640771Y-86435713D01*
X91212200Y-86007142D02*
X91259819Y-86102380D01*
X91259819Y-86102380D02*
X91259819Y-86340475D01*
X91259819Y-86340475D02*
X91212200Y-86435713D01*
X91212200Y-86435713D02*
X91116961Y-86483332D01*
X91116961Y-86483332D02*
X91021723Y-86483332D01*
X91021723Y-86483332D02*
X90926485Y-86435713D01*
X90926485Y-86435713D02*
X90878866Y-86340475D01*
X90878866Y-86340475D02*
X90878866Y-86102380D01*
X90878866Y-86102380D02*
X90831247Y-86007142D01*
X91212200Y-85578570D02*
X91259819Y-85483332D01*
X91259819Y-85483332D02*
X91259819Y-85292856D01*
X91259819Y-85292856D02*
X91212200Y-85197618D01*
X91212200Y-85197618D02*
X91116961Y-85149999D01*
X91116961Y-85149999D02*
X91069342Y-85149999D01*
X91069342Y-85149999D02*
X90974104Y-85197618D01*
X90974104Y-85197618D02*
X90926485Y-85292856D01*
X90926485Y-85292856D02*
X90926485Y-85435713D01*
X90926485Y-85435713D02*
X90878866Y-85530951D01*
X90878866Y-85530951D02*
X90783628Y-85578570D01*
X90783628Y-85578570D02*
X90736009Y-85578570D01*
X90736009Y-85578570D02*
X90640771Y-85530951D01*
X90640771Y-85530951D02*
X90593152Y-85435713D01*
X90593152Y-85435713D02*
X90593152Y-85292856D01*
X90593152Y-85292856D02*
X90640771Y-85197618D01*
X91259819Y-84578570D02*
X91212200Y-84673808D01*
X91212200Y-84673808D02*
X91164580Y-84721427D01*
X91164580Y-84721427D02*
X91069342Y-84769046D01*
X91069342Y-84769046D02*
X90783628Y-84769046D01*
X90783628Y-84769046D02*
X90688390Y-84721427D01*
X90688390Y-84721427D02*
X90640771Y-84673808D01*
X90640771Y-84673808D02*
X90593152Y-84578570D01*
X90593152Y-84578570D02*
X90593152Y-84435713D01*
X90593152Y-84435713D02*
X90640771Y-84340475D01*
X90640771Y-84340475D02*
X90688390Y-84292856D01*
X90688390Y-84292856D02*
X90783628Y-84245237D01*
X90783628Y-84245237D02*
X91069342Y-84245237D01*
X91069342Y-84245237D02*
X91164580Y-84292856D01*
X91164580Y-84292856D02*
X91212200Y-84340475D01*
X91212200Y-84340475D02*
X91259819Y-84435713D01*
X91259819Y-84435713D02*
X91259819Y-84578570D01*
X90593152Y-83816665D02*
X91259819Y-83816665D01*
X90688390Y-83816665D02*
X90640771Y-83769046D01*
X90640771Y-83769046D02*
X90593152Y-83673808D01*
X90593152Y-83673808D02*
X90593152Y-83530951D01*
X90593152Y-83530951D02*
X90640771Y-83435713D01*
X90640771Y-83435713D02*
X90736009Y-83388094D01*
X90736009Y-83388094D02*
X91259819Y-83388094D01*
X91259819Y-82911903D02*
X90593152Y-82911903D01*
X90259819Y-82911903D02*
X90307438Y-82959522D01*
X90307438Y-82959522D02*
X90355057Y-82911903D01*
X90355057Y-82911903D02*
X90307438Y-82864284D01*
X90307438Y-82864284D02*
X90259819Y-82911903D01*
X90259819Y-82911903D02*
X90355057Y-82911903D01*
X91212200Y-82007142D02*
X91259819Y-82102380D01*
X91259819Y-82102380D02*
X91259819Y-82292856D01*
X91259819Y-82292856D02*
X91212200Y-82388094D01*
X91212200Y-82388094D02*
X91164580Y-82435713D01*
X91164580Y-82435713D02*
X91069342Y-82483332D01*
X91069342Y-82483332D02*
X90783628Y-82483332D01*
X90783628Y-82483332D02*
X90688390Y-82435713D01*
X90688390Y-82435713D02*
X90640771Y-82388094D01*
X90640771Y-82388094D02*
X90593152Y-82292856D01*
X90593152Y-82292856D02*
X90593152Y-82102380D01*
X90593152Y-82102380D02*
X90640771Y-82007142D01*
X90355057Y-81626189D02*
X90307438Y-81578570D01*
X90307438Y-81578570D02*
X90259819Y-81483332D01*
X90259819Y-81483332D02*
X90259819Y-81245237D01*
X90259819Y-81245237D02*
X90307438Y-81149999D01*
X90307438Y-81149999D02*
X90355057Y-81102380D01*
X90355057Y-81102380D02*
X90450295Y-81054761D01*
X90450295Y-81054761D02*
X90545533Y-81054761D01*
X90545533Y-81054761D02*
X90688390Y-81102380D01*
X90688390Y-81102380D02*
X91259819Y-81673808D01*
X91259819Y-81673808D02*
X91259819Y-81054761D01*
%TO.C,Out1*%
X72899866Y-66848333D02*
X72899866Y-66581666D01*
X72899866Y-66581666D02*
X72966533Y-66448333D01*
X72966533Y-66448333D02*
X73099866Y-66314999D01*
X73099866Y-66314999D02*
X73366533Y-66248333D01*
X73366533Y-66248333D02*
X73833200Y-66248333D01*
X73833200Y-66248333D02*
X74099866Y-66314999D01*
X74099866Y-66314999D02*
X74233200Y-66448333D01*
X74233200Y-66448333D02*
X74299866Y-66581666D01*
X74299866Y-66581666D02*
X74299866Y-66848333D01*
X74299866Y-66848333D02*
X74233200Y-66981666D01*
X74233200Y-66981666D02*
X74099866Y-67114999D01*
X74099866Y-67114999D02*
X73833200Y-67181666D01*
X73833200Y-67181666D02*
X73366533Y-67181666D01*
X73366533Y-67181666D02*
X73099866Y-67114999D01*
X73099866Y-67114999D02*
X72966533Y-66981666D01*
X72966533Y-66981666D02*
X72899866Y-66848333D01*
X73366533Y-65048332D02*
X74299866Y-65048332D01*
X73366533Y-65648332D02*
X74099866Y-65648332D01*
X74099866Y-65648332D02*
X74233200Y-65581666D01*
X74233200Y-65581666D02*
X74299866Y-65448332D01*
X74299866Y-65448332D02*
X74299866Y-65248332D01*
X74299866Y-65248332D02*
X74233200Y-65114999D01*
X74233200Y-65114999D02*
X74166533Y-65048332D01*
X73366533Y-64581665D02*
X73366533Y-64048332D01*
X72899866Y-64381665D02*
X74099866Y-64381665D01*
X74099866Y-64381665D02*
X74233200Y-64314999D01*
X74233200Y-64314999D02*
X74299866Y-64181665D01*
X74299866Y-64181665D02*
X74299866Y-64048332D01*
X74299866Y-62848332D02*
X74299866Y-63648332D01*
X74299866Y-63248332D02*
X72899866Y-63248332D01*
X72899866Y-63248332D02*
X73099866Y-63381665D01*
X73099866Y-63381665D02*
X73233200Y-63514999D01*
X73233200Y-63514999D02*
X73299866Y-63648332D01*
%TO.C,PI_to_Header1*%
X65409866Y-75680000D02*
X64009866Y-75680000D01*
X64009866Y-75680000D02*
X64009866Y-75146667D01*
X64009866Y-75146667D02*
X64076533Y-75013334D01*
X64076533Y-75013334D02*
X64143200Y-74946667D01*
X64143200Y-74946667D02*
X64276533Y-74880000D01*
X64276533Y-74880000D02*
X64476533Y-74880000D01*
X64476533Y-74880000D02*
X64609866Y-74946667D01*
X64609866Y-74946667D02*
X64676533Y-75013334D01*
X64676533Y-75013334D02*
X64743200Y-75146667D01*
X64743200Y-75146667D02*
X64743200Y-75680000D01*
X65409866Y-74280000D02*
X64009866Y-74280000D01*
X65543200Y-73946667D02*
X65543200Y-72880000D01*
X64476533Y-72746666D02*
X64476533Y-72213333D01*
X64009866Y-72546666D02*
X65209866Y-72546666D01*
X65209866Y-72546666D02*
X65343200Y-72480000D01*
X65343200Y-72480000D02*
X65409866Y-72346666D01*
X65409866Y-72346666D02*
X65409866Y-72213333D01*
X65409866Y-71546666D02*
X65343200Y-71680000D01*
X65343200Y-71680000D02*
X65276533Y-71746666D01*
X65276533Y-71746666D02*
X65143200Y-71813333D01*
X65143200Y-71813333D02*
X64743200Y-71813333D01*
X64743200Y-71813333D02*
X64609866Y-71746666D01*
X64609866Y-71746666D02*
X64543200Y-71680000D01*
X64543200Y-71680000D02*
X64476533Y-71546666D01*
X64476533Y-71546666D02*
X64476533Y-71346666D01*
X64476533Y-71346666D02*
X64543200Y-71213333D01*
X64543200Y-71213333D02*
X64609866Y-71146666D01*
X64609866Y-71146666D02*
X64743200Y-71080000D01*
X64743200Y-71080000D02*
X65143200Y-71080000D01*
X65143200Y-71080000D02*
X65276533Y-71146666D01*
X65276533Y-71146666D02*
X65343200Y-71213333D01*
X65343200Y-71213333D02*
X65409866Y-71346666D01*
X65409866Y-71346666D02*
X65409866Y-71546666D01*
X65543200Y-70813333D02*
X65543200Y-69746666D01*
X65409866Y-69413332D02*
X64009866Y-69413332D01*
X64676533Y-69413332D02*
X64676533Y-68613332D01*
X65409866Y-68613332D02*
X64009866Y-68613332D01*
X65343200Y-67413332D02*
X65409866Y-67546665D01*
X65409866Y-67546665D02*
X65409866Y-67813332D01*
X65409866Y-67813332D02*
X65343200Y-67946665D01*
X65343200Y-67946665D02*
X65209866Y-68013332D01*
X65209866Y-68013332D02*
X64676533Y-68013332D01*
X64676533Y-68013332D02*
X64543200Y-67946665D01*
X64543200Y-67946665D02*
X64476533Y-67813332D01*
X64476533Y-67813332D02*
X64476533Y-67546665D01*
X64476533Y-67546665D02*
X64543200Y-67413332D01*
X64543200Y-67413332D02*
X64676533Y-67346665D01*
X64676533Y-67346665D02*
X64809866Y-67346665D01*
X64809866Y-67346665D02*
X64943200Y-68013332D01*
X65409866Y-66146665D02*
X64676533Y-66146665D01*
X64676533Y-66146665D02*
X64543200Y-66213332D01*
X64543200Y-66213332D02*
X64476533Y-66346665D01*
X64476533Y-66346665D02*
X64476533Y-66613332D01*
X64476533Y-66613332D02*
X64543200Y-66746665D01*
X65343200Y-66146665D02*
X65409866Y-66279999D01*
X65409866Y-66279999D02*
X65409866Y-66613332D01*
X65409866Y-66613332D02*
X65343200Y-66746665D01*
X65343200Y-66746665D02*
X65209866Y-66813332D01*
X65209866Y-66813332D02*
X65076533Y-66813332D01*
X65076533Y-66813332D02*
X64943200Y-66746665D01*
X64943200Y-66746665D02*
X64876533Y-66613332D01*
X64876533Y-66613332D02*
X64876533Y-66279999D01*
X64876533Y-66279999D02*
X64809866Y-66146665D01*
X65409866Y-64879998D02*
X64009866Y-64879998D01*
X65343200Y-64879998D02*
X65409866Y-65013332D01*
X65409866Y-65013332D02*
X65409866Y-65279998D01*
X65409866Y-65279998D02*
X65343200Y-65413332D01*
X65343200Y-65413332D02*
X65276533Y-65479998D01*
X65276533Y-65479998D02*
X65143200Y-65546665D01*
X65143200Y-65546665D02*
X64743200Y-65546665D01*
X64743200Y-65546665D02*
X64609866Y-65479998D01*
X64609866Y-65479998D02*
X64543200Y-65413332D01*
X64543200Y-65413332D02*
X64476533Y-65279998D01*
X64476533Y-65279998D02*
X64476533Y-65013332D01*
X64476533Y-65013332D02*
X64543200Y-64879998D01*
X65343200Y-63679998D02*
X65409866Y-63813331D01*
X65409866Y-63813331D02*
X65409866Y-64079998D01*
X65409866Y-64079998D02*
X65343200Y-64213331D01*
X65343200Y-64213331D02*
X65209866Y-64279998D01*
X65209866Y-64279998D02*
X64676533Y-64279998D01*
X64676533Y-64279998D02*
X64543200Y-64213331D01*
X64543200Y-64213331D02*
X64476533Y-64079998D01*
X64476533Y-64079998D02*
X64476533Y-63813331D01*
X64476533Y-63813331D02*
X64543200Y-63679998D01*
X64543200Y-63679998D02*
X64676533Y-63613331D01*
X64676533Y-63613331D02*
X64809866Y-63613331D01*
X64809866Y-63613331D02*
X64943200Y-64279998D01*
X65409866Y-63013331D02*
X64476533Y-63013331D01*
X64743200Y-63013331D02*
X64609866Y-62946665D01*
X64609866Y-62946665D02*
X64543200Y-62879998D01*
X64543200Y-62879998D02*
X64476533Y-62746665D01*
X64476533Y-62746665D02*
X64476533Y-62613331D01*
X65409866Y-61413331D02*
X65409866Y-62213331D01*
X65409866Y-61813331D02*
X64009866Y-61813331D01*
X64009866Y-61813331D02*
X64209866Y-61946664D01*
X64209866Y-61946664D02*
X64343200Y-62079998D01*
X64343200Y-62079998D02*
X64409866Y-62213331D01*
%TO.C,Pi1_to_Pi2*%
X91259819Y-105290475D02*
X90259819Y-105290475D01*
X90259819Y-105290475D02*
X90259819Y-104909523D01*
X90259819Y-104909523D02*
X90307438Y-104814285D01*
X90307438Y-104814285D02*
X90355057Y-104766666D01*
X90355057Y-104766666D02*
X90450295Y-104719047D01*
X90450295Y-104719047D02*
X90593152Y-104719047D01*
X90593152Y-104719047D02*
X90688390Y-104766666D01*
X90688390Y-104766666D02*
X90736009Y-104814285D01*
X90736009Y-104814285D02*
X90783628Y-104909523D01*
X90783628Y-104909523D02*
X90783628Y-105290475D01*
X91259819Y-104290475D02*
X90593152Y-104290475D01*
X90259819Y-104290475D02*
X90307438Y-104338094D01*
X90307438Y-104338094D02*
X90355057Y-104290475D01*
X90355057Y-104290475D02*
X90307438Y-104242856D01*
X90307438Y-104242856D02*
X90259819Y-104290475D01*
X90259819Y-104290475D02*
X90355057Y-104290475D01*
X91259819Y-103290476D02*
X91259819Y-103861904D01*
X91259819Y-103576190D02*
X90259819Y-103576190D01*
X90259819Y-103576190D02*
X90402676Y-103671428D01*
X90402676Y-103671428D02*
X90497914Y-103766666D01*
X90497914Y-103766666D02*
X90545533Y-103861904D01*
X91355057Y-103100000D02*
X91355057Y-102338095D01*
X90593152Y-102242856D02*
X90593152Y-101861904D01*
X90259819Y-102099999D02*
X91116961Y-102099999D01*
X91116961Y-102099999D02*
X91212200Y-102052380D01*
X91212200Y-102052380D02*
X91259819Y-101957142D01*
X91259819Y-101957142D02*
X91259819Y-101861904D01*
X91259819Y-101385713D02*
X91212200Y-101480951D01*
X91212200Y-101480951D02*
X91164580Y-101528570D01*
X91164580Y-101528570D02*
X91069342Y-101576189D01*
X91069342Y-101576189D02*
X90783628Y-101576189D01*
X90783628Y-101576189D02*
X90688390Y-101528570D01*
X90688390Y-101528570D02*
X90640771Y-101480951D01*
X90640771Y-101480951D02*
X90593152Y-101385713D01*
X90593152Y-101385713D02*
X90593152Y-101242856D01*
X90593152Y-101242856D02*
X90640771Y-101147618D01*
X90640771Y-101147618D02*
X90688390Y-101099999D01*
X90688390Y-101099999D02*
X90783628Y-101052380D01*
X90783628Y-101052380D02*
X91069342Y-101052380D01*
X91069342Y-101052380D02*
X91164580Y-101099999D01*
X91164580Y-101099999D02*
X91212200Y-101147618D01*
X91212200Y-101147618D02*
X91259819Y-101242856D01*
X91259819Y-101242856D02*
X91259819Y-101385713D01*
X91355057Y-100861904D02*
X91355057Y-100099999D01*
X91259819Y-99861903D02*
X90259819Y-99861903D01*
X90259819Y-99861903D02*
X90259819Y-99480951D01*
X90259819Y-99480951D02*
X90307438Y-99385713D01*
X90307438Y-99385713D02*
X90355057Y-99338094D01*
X90355057Y-99338094D02*
X90450295Y-99290475D01*
X90450295Y-99290475D02*
X90593152Y-99290475D01*
X90593152Y-99290475D02*
X90688390Y-99338094D01*
X90688390Y-99338094D02*
X90736009Y-99385713D01*
X90736009Y-99385713D02*
X90783628Y-99480951D01*
X90783628Y-99480951D02*
X90783628Y-99861903D01*
X91259819Y-98861903D02*
X90593152Y-98861903D01*
X90259819Y-98861903D02*
X90307438Y-98909522D01*
X90307438Y-98909522D02*
X90355057Y-98861903D01*
X90355057Y-98861903D02*
X90307438Y-98814284D01*
X90307438Y-98814284D02*
X90259819Y-98861903D01*
X90259819Y-98861903D02*
X90355057Y-98861903D01*
X90355057Y-98433332D02*
X90307438Y-98385713D01*
X90307438Y-98385713D02*
X90259819Y-98290475D01*
X90259819Y-98290475D02*
X90259819Y-98052380D01*
X90259819Y-98052380D02*
X90307438Y-97957142D01*
X90307438Y-97957142D02*
X90355057Y-97909523D01*
X90355057Y-97909523D02*
X90450295Y-97861904D01*
X90450295Y-97861904D02*
X90545533Y-97861904D01*
X90545533Y-97861904D02*
X90688390Y-97909523D01*
X90688390Y-97909523D02*
X91259819Y-98480951D01*
X91259819Y-98480951D02*
X91259819Y-97861904D01*
%TO.C,G\u002A\u002A\u002A*%
G36*
X93143473Y-66408380D02*
G01*
X93143417Y-67075508D01*
X93143248Y-67704825D01*
X93142967Y-68296544D01*
X93142572Y-68850879D01*
X93142062Y-69368042D01*
X93141437Y-69848248D01*
X93140697Y-70291708D01*
X93139840Y-70698637D01*
X93138866Y-71069246D01*
X93137775Y-71403750D01*
X93136565Y-71702362D01*
X93135236Y-71965294D01*
X93133788Y-72192760D01*
X93132219Y-72384972D01*
X93130529Y-72542145D01*
X93128717Y-72664490D01*
X93126783Y-72752222D01*
X93124726Y-72805553D01*
X93123558Y-72820169D01*
X93057095Y-73203737D01*
X92953793Y-73580539D01*
X92814551Y-73948495D01*
X92640264Y-74305522D01*
X92431828Y-74649539D01*
X92198538Y-74967997D01*
X92083773Y-75102987D01*
X91947109Y-75250018D01*
X91798035Y-75399672D01*
X91646045Y-75542534D01*
X91500628Y-75669186D01*
X91451407Y-75709245D01*
X91075388Y-75984510D01*
X90679849Y-76227228D01*
X90265208Y-76437232D01*
X89831886Y-76614351D01*
X89380301Y-76758417D01*
X88910871Y-76869259D01*
X88424017Y-76946710D01*
X88371467Y-76952949D01*
X88260256Y-76963583D01*
X88125044Y-76973164D01*
X87975121Y-76981344D01*
X87819774Y-76987778D01*
X87668294Y-76992120D01*
X87529969Y-76994023D01*
X87414089Y-76993141D01*
X87354326Y-76990859D01*
X86932204Y-76956126D01*
X86535012Y-76901419D01*
X86154432Y-76825215D01*
X85782146Y-76725988D01*
X85606060Y-76670432D01*
X85190392Y-76515650D01*
X84794338Y-76333586D01*
X84419436Y-76125765D01*
X84067224Y-75893711D01*
X83739241Y-75638949D01*
X83437024Y-75363001D01*
X83162112Y-75067393D01*
X82916044Y-74753648D01*
X82700358Y-74423291D01*
X82516592Y-74077845D01*
X82366285Y-73718835D01*
X82250974Y-73347786D01*
X82250460Y-73345796D01*
X82240003Y-73306158D01*
X82230198Y-73270103D01*
X82221023Y-73236373D01*
X82212459Y-73203711D01*
X82204483Y-73170859D01*
X82197076Y-73136559D01*
X82190217Y-73099554D01*
X82183884Y-73058587D01*
X82178056Y-73012400D01*
X82172713Y-72959735D01*
X82167834Y-72899335D01*
X82163398Y-72829942D01*
X82159383Y-72750299D01*
X82155770Y-72659148D01*
X82152537Y-72555232D01*
X82149663Y-72437293D01*
X82147127Y-72304074D01*
X82144909Y-72154316D01*
X82142987Y-71986763D01*
X82141341Y-71800157D01*
X82139950Y-71593241D01*
X82138793Y-71364756D01*
X82137849Y-71113446D01*
X82137096Y-70838052D01*
X82136515Y-70537317D01*
X82136084Y-70209984D01*
X82135783Y-69854796D01*
X82135590Y-69470494D01*
X82135485Y-69055821D01*
X82135446Y-68609519D01*
X82135446Y-68577312D01*
X82323806Y-68577312D01*
X82331293Y-70674726D01*
X82332482Y-71002659D01*
X82333604Y-71294865D01*
X82334708Y-71553638D01*
X82335840Y-71781276D01*
X82337048Y-71980075D01*
X82338378Y-72152330D01*
X82339878Y-72300337D01*
X82341595Y-72426393D01*
X82343577Y-72532793D01*
X82345870Y-72621834D01*
X82348521Y-72695811D01*
X82351579Y-72757021D01*
X82355089Y-72807760D01*
X82359099Y-72850324D01*
X82363657Y-72887008D01*
X82368809Y-72920109D01*
X82374603Y-72951923D01*
X82378490Y-72971766D01*
X82404145Y-73097274D01*
X82428048Y-73204187D01*
X82452807Y-73301343D01*
X82481030Y-73397581D01*
X82515327Y-73501741D01*
X82558306Y-73622660D01*
X82612575Y-73769178D01*
X82618520Y-73785035D01*
X82669716Y-73904897D01*
X82740354Y-74046336D01*
X82825822Y-74201483D01*
X82921506Y-74362469D01*
X83022793Y-74521425D01*
X83125069Y-74670480D01*
X83186502Y-74753877D01*
X83257857Y-74842044D01*
X83347636Y-74944256D01*
X83450290Y-75054971D01*
X83560273Y-75168650D01*
X83672038Y-75279753D01*
X83780038Y-75382742D01*
X83878726Y-75472075D01*
X83962555Y-75542213D01*
X84013090Y-75579389D01*
X84058507Y-75611291D01*
X84117060Y-75654510D01*
X84150808Y-75680214D01*
X84281237Y-75777490D01*
X84394617Y-75854974D01*
X84470818Y-75900973D01*
X84525972Y-75932628D01*
X84595382Y-75973988D01*
X84645119Y-76004422D01*
X84781817Y-76082635D01*
X84954607Y-76170100D01*
X85162787Y-76266481D01*
X85405655Y-76371441D01*
X85453128Y-76391272D01*
X85511950Y-76413645D01*
X85597543Y-76443587D01*
X85700193Y-76477960D01*
X85810188Y-76513623D01*
X85917812Y-76547440D01*
X86013353Y-76576270D01*
X86087096Y-76596974D01*
X86099536Y-76600153D01*
X86172273Y-76618431D01*
X86246484Y-76637359D01*
X86251631Y-76638686D01*
X86378641Y-76667102D01*
X86536699Y-76695336D01*
X86718837Y-76722407D01*
X86918090Y-76747334D01*
X87127489Y-76769134D01*
X87259266Y-76780643D01*
X87358494Y-76786007D01*
X87484731Y-76788910D01*
X87627046Y-76789440D01*
X87774509Y-76787688D01*
X87916190Y-76783743D01*
X88041160Y-76777696D01*
X88095793Y-76773760D01*
X88226045Y-76761672D01*
X88363974Y-76746760D01*
X88500614Y-76730177D01*
X88627002Y-76713076D01*
X88734173Y-76696611D01*
X88813161Y-76681934D01*
X88818248Y-76680815D01*
X88882717Y-76666733D01*
X88960758Y-76650146D01*
X88998862Y-76642207D01*
X89106706Y-76616710D01*
X89238848Y-76580499D01*
X89384284Y-76536995D01*
X89532010Y-76489616D01*
X89671023Y-76441781D01*
X89790321Y-76396910D01*
X89797365Y-76394083D01*
X89869619Y-76365361D01*
X89940193Y-76337967D01*
X89973439Y-76325408D01*
X90016786Y-76306795D01*
X90086013Y-76274190D01*
X90173442Y-76231480D01*
X90271394Y-76182550D01*
X90372189Y-76131286D01*
X90468150Y-76081574D01*
X90551597Y-76037301D01*
X90614852Y-76002351D01*
X90633892Y-75991181D01*
X90702467Y-75948509D01*
X90786346Y-75894596D01*
X90877413Y-75834851D01*
X90967555Y-75774682D01*
X91048656Y-75719500D01*
X91112603Y-75674712D01*
X91147215Y-75649009D01*
X91200784Y-75606913D01*
X91266400Y-75555763D01*
X91306639Y-75524582D01*
X91357705Y-75481444D01*
X91428855Y-75416294D01*
X91514269Y-75334955D01*
X91608125Y-75243248D01*
X91704600Y-75146995D01*
X91797873Y-75052018D01*
X91882123Y-74964138D01*
X91951527Y-74889178D01*
X92000264Y-74832958D01*
X92007965Y-74823256D01*
X92057442Y-74759473D01*
X92106945Y-74696067D01*
X92132289Y-74663832D01*
X92206009Y-74563682D01*
X92287058Y-74442101D01*
X92370350Y-74307814D01*
X92450800Y-74169543D01*
X92523321Y-74036014D01*
X92582828Y-73915950D01*
X92622301Y-73823302D01*
X92687435Y-73643265D01*
X92745720Y-73470481D01*
X92795208Y-73311315D01*
X92833950Y-73172129D01*
X92860000Y-73059288D01*
X92865498Y-73028802D01*
X92879268Y-72944414D01*
X92891519Y-72867894D01*
X92902339Y-72796608D01*
X92911818Y-72727924D01*
X92920044Y-72659206D01*
X92927106Y-72587821D01*
X92933092Y-72511137D01*
X92938092Y-72426517D01*
X92942193Y-72331330D01*
X92945486Y-72222941D01*
X92948058Y-72098716D01*
X92949999Y-71956022D01*
X92951397Y-71792225D01*
X92952342Y-71604691D01*
X92952921Y-71390786D01*
X92953223Y-71147877D01*
X92953338Y-70873329D01*
X92953354Y-70564509D01*
X92953353Y-70422397D01*
X92953353Y-68425682D01*
X92839153Y-68513557D01*
X92644401Y-68642798D01*
X92420306Y-68754679D01*
X92172468Y-68846833D01*
X91906486Y-68916891D01*
X91865162Y-68925389D01*
X91768157Y-68942823D01*
X91675110Y-68955056D01*
X91575562Y-68962912D01*
X91459055Y-68967213D01*
X91315131Y-68968782D01*
X91313582Y-68968787D01*
X91205067Y-68969302D01*
X91111042Y-68970145D01*
X91037549Y-68971228D01*
X90990631Y-68972465D01*
X90976119Y-68973631D01*
X90985825Y-68990102D01*
X91012263Y-69032083D01*
X91051400Y-69093232D01*
X91099203Y-69167206D01*
X91099411Y-69167528D01*
X91343485Y-69566972D01*
X91576872Y-69995274D01*
X91795269Y-70443806D01*
X91994373Y-70903941D01*
X92098219Y-71169807D01*
X92143639Y-71292079D01*
X92176225Y-71383337D01*
X92197117Y-71447927D01*
X92207456Y-71490196D01*
X92208381Y-71514493D01*
X92201034Y-71525164D01*
X92191885Y-71526856D01*
X92173282Y-71515808D01*
X92127089Y-71484045D01*
X92056156Y-71433638D01*
X91963332Y-71366660D01*
X91851466Y-71285181D01*
X91723408Y-71191275D01*
X91582008Y-71087013D01*
X91430116Y-70974466D01*
X91342407Y-70909243D01*
X91186401Y-70793294D01*
X91039716Y-70684681D01*
X90905147Y-70585443D01*
X90785483Y-70497621D01*
X90683518Y-70423253D01*
X90602042Y-70364379D01*
X90543849Y-70323038D01*
X90511730Y-70301269D01*
X90506162Y-70298398D01*
X90511925Y-70316709D01*
X90530748Y-70367500D01*
X90561532Y-70447962D01*
X90603174Y-70555286D01*
X90654572Y-70686664D01*
X90714625Y-70839287D01*
X90782232Y-71010348D01*
X90856290Y-71197037D01*
X90935698Y-71396546D01*
X91005440Y-71571261D01*
X91088642Y-71780127D01*
X91167391Y-71979174D01*
X91240579Y-72165516D01*
X91307097Y-72336267D01*
X91365838Y-72488541D01*
X91415694Y-72619452D01*
X91455556Y-72726113D01*
X91484317Y-72805639D01*
X91500868Y-72855143D01*
X91504556Y-72871290D01*
X91495741Y-72882264D01*
X91474335Y-72874498D01*
X91436005Y-72845191D01*
X91376418Y-72791544D01*
X91365828Y-72781647D01*
X91327143Y-72745058D01*
X91264198Y-72685137D01*
X91180146Y-72604905D01*
X91078137Y-72507385D01*
X90961321Y-72395599D01*
X90832849Y-72272567D01*
X90695872Y-72141313D01*
X90553540Y-72004857D01*
X90409005Y-71866222D01*
X90265417Y-71728431D01*
X90125927Y-71594503D01*
X89993685Y-71467462D01*
X89871843Y-71350330D01*
X89763550Y-71246127D01*
X89671958Y-71157877D01*
X89600217Y-71088601D01*
X89563524Y-71053041D01*
X89505202Y-70997974D01*
X89459453Y-70957862D01*
X89431236Y-70936837D01*
X89424872Y-70937485D01*
X89431746Y-70964423D01*
X89445705Y-71024749D01*
X89466070Y-71115307D01*
X89492163Y-71232941D01*
X89523304Y-71374496D01*
X89558814Y-71536818D01*
X89598016Y-71716749D01*
X89640231Y-71911136D01*
X89684779Y-72116822D01*
X89730982Y-72330652D01*
X89778162Y-72549471D01*
X89825639Y-72770123D01*
X89872736Y-72989454D01*
X89918772Y-73204306D01*
X89963070Y-73411526D01*
X90004952Y-73607958D01*
X90043737Y-73790445D01*
X90078748Y-73955834D01*
X90109305Y-74100968D01*
X90134731Y-74222692D01*
X90154346Y-74317851D01*
X90167472Y-74383288D01*
X90173429Y-74415850D01*
X90173692Y-74418908D01*
X90156835Y-74423697D01*
X90137330Y-74412582D01*
X90123422Y-74393059D01*
X90091471Y-74343144D01*
X90042868Y-74265126D01*
X89979002Y-74161297D01*
X89901264Y-74033947D01*
X89811044Y-73885367D01*
X89709731Y-73717847D01*
X89598716Y-73533678D01*
X89479388Y-73335151D01*
X89353138Y-73124556D01*
X89221355Y-72904185D01*
X89179410Y-72833930D01*
X89046626Y-72611643D01*
X88919288Y-72398861D01*
X88798750Y-72197824D01*
X88686367Y-72010777D01*
X88583494Y-71839960D01*
X88491487Y-71687617D01*
X88411700Y-71555990D01*
X88345489Y-71447322D01*
X88294209Y-71363855D01*
X88259214Y-71307832D01*
X88241860Y-71281495D01*
X88240231Y-71279700D01*
X88236023Y-71298121D01*
X88226746Y-71351799D01*
X88212758Y-71438354D01*
X88194418Y-71555410D01*
X88172086Y-71700589D01*
X88146120Y-71871511D01*
X88116880Y-72065800D01*
X88084724Y-72281077D01*
X88050010Y-72514964D01*
X88013099Y-72765084D01*
X87974350Y-73029057D01*
X87934120Y-73304506D01*
X87921446Y-73391568D01*
X87880813Y-73670336D01*
X87841558Y-73938535D01*
X87804040Y-74193770D01*
X87768619Y-74433648D01*
X87735653Y-74655773D01*
X87705502Y-74857750D01*
X87678525Y-75037185D01*
X87655080Y-75191684D01*
X87635527Y-75318851D01*
X87620225Y-75416292D01*
X87609533Y-75481611D01*
X87603810Y-75512416D01*
X87603112Y-75514572D01*
X87582641Y-75516251D01*
X87581476Y-75515209D01*
X87577553Y-75495366D01*
X87568821Y-75440239D01*
X87555618Y-75352221D01*
X87538284Y-75233701D01*
X87517158Y-75087070D01*
X87492579Y-74914720D01*
X87464886Y-74719040D01*
X87434419Y-74502422D01*
X87401516Y-74267256D01*
X87366516Y-74015934D01*
X87329759Y-73750846D01*
X87291585Y-73474382D01*
X87278721Y-73380966D01*
X87240200Y-73101389D01*
X87203056Y-72832470D01*
X87167623Y-72576594D01*
X87134235Y-72336144D01*
X87103227Y-72113503D01*
X87074931Y-71911055D01*
X87049682Y-71731182D01*
X87027815Y-71576269D01*
X87009662Y-71448699D01*
X86995559Y-71350855D01*
X86985840Y-71285121D01*
X86980837Y-71253879D01*
X86980275Y-71251542D01*
X86969728Y-71266595D01*
X86940787Y-71311929D01*
X86894813Y-71385333D01*
X86833165Y-71484597D01*
X86757205Y-71607512D01*
X86668293Y-71751868D01*
X86567789Y-71915455D01*
X86457053Y-72096063D01*
X86337446Y-72291483D01*
X86210328Y-72499505D01*
X86077060Y-72717918D01*
X86024480Y-72804178D01*
X85860863Y-73072599D01*
X85715835Y-73310332D01*
X85588255Y-73519194D01*
X85476984Y-73701005D01*
X85380883Y-73857582D01*
X85298813Y-73990744D01*
X85229635Y-74102309D01*
X85172208Y-74194095D01*
X85125395Y-74267920D01*
X85088055Y-74325603D01*
X85059049Y-74368961D01*
X85037239Y-74399813D01*
X85021484Y-74419978D01*
X85010647Y-74431273D01*
X85003586Y-74435516D01*
X85002203Y-74435689D01*
X84999351Y-74432301D01*
X84998798Y-74420760D01*
X85000997Y-74399002D01*
X85006400Y-74364961D01*
X85015461Y-74316570D01*
X85028631Y-74251766D01*
X85046362Y-74168482D01*
X85069108Y-74064653D01*
X85097319Y-73938214D01*
X85131450Y-73787099D01*
X85171952Y-73609243D01*
X85219277Y-73402580D01*
X85273878Y-73165045D01*
X85336207Y-72894573D01*
X85405436Y-72594646D01*
X85461849Y-72350024D01*
X85515623Y-72116149D01*
X85566164Y-71895651D01*
X85612876Y-71691160D01*
X85655163Y-71505306D01*
X85692430Y-71340720D01*
X85724081Y-71200030D01*
X85749521Y-71085867D01*
X85768154Y-71000862D01*
X85779385Y-70947643D01*
X85782620Y-70928843D01*
X85768090Y-70940631D01*
X85728088Y-70976434D01*
X85664826Y-71034201D01*
X85580516Y-71111881D01*
X85477368Y-71207421D01*
X85357593Y-71318771D01*
X85223404Y-71443878D01*
X85077011Y-71580691D01*
X84920625Y-71727159D01*
X84787709Y-71851877D01*
X84623485Y-72005810D01*
X84466365Y-72152524D01*
X84318694Y-72289867D01*
X84182814Y-72415684D01*
X84061069Y-72527822D01*
X83955803Y-72624129D01*
X83869358Y-72702450D01*
X83804079Y-72760632D01*
X83762308Y-72796522D01*
X83747655Y-72807602D01*
X83712179Y-72824561D01*
X83701530Y-72817563D01*
X83707069Y-72780694D01*
X83707222Y-72779929D01*
X83716180Y-72753491D01*
X83738502Y-72694907D01*
X83772989Y-72607155D01*
X83818438Y-72493214D01*
X83873647Y-72356060D01*
X83937416Y-72198671D01*
X84008542Y-72024025D01*
X84085824Y-71835099D01*
X84168061Y-71634872D01*
X84226212Y-71493750D01*
X84310551Y-71289067D01*
X84390364Y-71094836D01*
X84464501Y-70913889D01*
X84531813Y-70749054D01*
X84591151Y-70603161D01*
X84641367Y-70479039D01*
X84681312Y-70379518D01*
X84709837Y-70307427D01*
X84725792Y-70265597D01*
X84728851Y-70255804D01*
X84712889Y-70265305D01*
X84669001Y-70295097D01*
X84600046Y-70343154D01*
X84508883Y-70407447D01*
X84398370Y-70485951D01*
X84271366Y-70576636D01*
X84130730Y-70677477D01*
X83979322Y-70786446D01*
X83909571Y-70836773D01*
X83753218Y-70949461D01*
X83605488Y-71055526D01*
X83469370Y-71152848D01*
X83347856Y-71239310D01*
X83243934Y-71312793D01*
X83160594Y-71371178D01*
X83100827Y-71412348D01*
X83067622Y-71434182D01*
X83062372Y-71437057D01*
X83038956Y-71437312D01*
X83030018Y-71413308D01*
X83035868Y-71362488D01*
X83056816Y-71282297D01*
X83093170Y-71170178D01*
X83095481Y-71163448D01*
X83241462Y-70771525D01*
X83411904Y-70370289D01*
X83601272Y-69971352D01*
X83804032Y-69586330D01*
X84014650Y-69226838D01*
X84029881Y-69202393D01*
X84080545Y-69120773D01*
X84123035Y-69051081D01*
X84153687Y-68999418D01*
X84168842Y-68971888D01*
X84169820Y-68969195D01*
X84152053Y-68966494D01*
X84103587Y-68966077D01*
X84031670Y-68967855D01*
X83943552Y-68971737D01*
X83936829Y-68972093D01*
X83660079Y-68973423D01*
X83380714Y-68949335D01*
X83108441Y-68901364D01*
X82852966Y-68831046D01*
X82709765Y-68777935D01*
X82635510Y-68746626D01*
X82574061Y-68719570D01*
X82534341Y-68700750D01*
X82525284Y-68695576D01*
X82498985Y-68678811D01*
X82451821Y-68650726D01*
X82415039Y-68629459D01*
X82323806Y-68577312D01*
X82135446Y-68577312D01*
X82135449Y-68375884D01*
X82401706Y-68375884D01*
X82468248Y-68438641D01*
X82507328Y-68478863D01*
X82531259Y-68509977D01*
X82534790Y-68518930D01*
X82550951Y-68533796D01*
X82594529Y-68559880D01*
X82658163Y-68593022D01*
X82708780Y-68617300D01*
X82855011Y-68676528D01*
X83025493Y-68731355D01*
X83206462Y-68778021D01*
X83384149Y-68812770D01*
X83467966Y-68824561D01*
X83567705Y-68832350D01*
X83690891Y-68835797D01*
X83827160Y-68835213D01*
X83966147Y-68830910D01*
X84097489Y-68823197D01*
X84210822Y-68812385D01*
X84290504Y-68799919D01*
X84364588Y-68781449D01*
X84432665Y-68759529D01*
X84469232Y-68744073D01*
X84519690Y-68722748D01*
X84561172Y-68712882D01*
X84563374Y-68712807D01*
X84609704Y-68703956D01*
X84680187Y-68680610D01*
X84765786Y-68646826D01*
X84857461Y-68606659D01*
X84946174Y-68564164D01*
X85022886Y-68523398D01*
X85078558Y-68488416D01*
X85096417Y-68473634D01*
X85126607Y-68451314D01*
X85140545Y-68446916D01*
X85159731Y-68434161D01*
X85200015Y-68399236D01*
X85255903Y-68347149D01*
X85321900Y-68282907D01*
X85337297Y-68267574D01*
X85430047Y-68177187D01*
X85503601Y-68111972D01*
X85563524Y-68068245D01*
X85615380Y-68042318D01*
X85664732Y-68030506D01*
X85697982Y-68028653D01*
X85755453Y-68039051D01*
X85801314Y-68065261D01*
X85823360Y-68099807D01*
X85823862Y-68105752D01*
X85837054Y-68128152D01*
X85872004Y-68168769D01*
X85921777Y-68220871D01*
X85979433Y-68277727D01*
X86038036Y-68332608D01*
X86090648Y-68378781D01*
X86130333Y-68409517D01*
X86145638Y-68417945D01*
X86177080Y-68434060D01*
X86185089Y-68445891D01*
X86200769Y-68462981D01*
X86238843Y-68483555D01*
X86242125Y-68484940D01*
X86281261Y-68504773D01*
X86299060Y-68520944D01*
X86299161Y-68521775D01*
X86305329Y-68529873D01*
X86326593Y-68543207D01*
X86367093Y-68563793D01*
X86430972Y-68593650D01*
X86522369Y-68634797D01*
X86618120Y-68677215D01*
X86673833Y-68698942D01*
X86719008Y-68711686D01*
X86730842Y-68713084D01*
X86778137Y-68720291D01*
X86857829Y-68742142D01*
X86955074Y-68773524D01*
X87046397Y-68796944D01*
X87164139Y-68816411D01*
X87298325Y-68831310D01*
X87438978Y-68841028D01*
X87576122Y-68844948D01*
X87699782Y-68842458D01*
X87799980Y-68832941D01*
X87829625Y-68827401D01*
X87883408Y-68815496D01*
X87960524Y-68798668D01*
X88047119Y-68779934D01*
X88076781Y-68773555D01*
X88158890Y-68754734D01*
X88238325Y-68733521D01*
X88323778Y-68707177D01*
X88423938Y-68672963D01*
X88547497Y-68628141D01*
X88599397Y-68608874D01*
X88651621Y-68587203D01*
X88687049Y-68568408D01*
X88694457Y-68562071D01*
X88715901Y-68545354D01*
X88759633Y-68519548D01*
X88788538Y-68504303D01*
X88843742Y-68473763D01*
X88887065Y-68445345D01*
X88899215Y-68435207D01*
X88929244Y-68413112D01*
X88942832Y-68408892D01*
X88963885Y-68396035D01*
X89002969Y-68362451D01*
X89052617Y-68315620D01*
X89105362Y-68263023D01*
X89153739Y-68212141D01*
X89190279Y-68170454D01*
X89207517Y-68145444D01*
X89207994Y-68143237D01*
X89220316Y-68119082D01*
X89250561Y-68083003D01*
X89256388Y-68077047D01*
X89291269Y-68048506D01*
X89331445Y-68033862D01*
X89390904Y-68028891D01*
X89416632Y-68028653D01*
X89502598Y-68036557D01*
X89560660Y-68059137D01*
X89587033Y-68094692D01*
X89588233Y-68105752D01*
X89601425Y-68128152D01*
X89636376Y-68168769D01*
X89686148Y-68220871D01*
X89743804Y-68277727D01*
X89802407Y-68332608D01*
X89855020Y-68378781D01*
X89894704Y-68409517D01*
X89910009Y-68417945D01*
X89941439Y-68433675D01*
X89949461Y-68444947D01*
X89965231Y-68460297D01*
X90005877Y-68484595D01*
X90044521Y-68503952D01*
X90096761Y-68530526D01*
X90131289Y-68552125D01*
X90139580Y-68561186D01*
X90157327Y-68581089D01*
X90206948Y-68606803D01*
X90283016Y-68636763D01*
X90380107Y-68669400D01*
X90492792Y-68703150D01*
X90615645Y-68736445D01*
X90743240Y-68767718D01*
X90870149Y-68795405D01*
X90990947Y-68817937D01*
X91071167Y-68830100D01*
X91234437Y-68841543D01*
X91421400Y-68837196D01*
X91621772Y-68818335D01*
X91825267Y-68786234D01*
X92021600Y-68742171D01*
X92189067Y-68691461D01*
X92312433Y-68644177D01*
X92429698Y-68591665D01*
X92535683Y-68536979D01*
X92625206Y-68483173D01*
X92693087Y-68433300D01*
X92734145Y-68390412D01*
X92744221Y-68364286D01*
X92754807Y-68334847D01*
X92781239Y-68290654D01*
X92791751Y-68275808D01*
X92839281Y-68211385D01*
X92839281Y-67548795D01*
X92839281Y-66886206D01*
X92792615Y-66839540D01*
X92755663Y-66807969D01*
X92727613Y-66793052D01*
X92725660Y-66792874D01*
X92703399Y-66780249D01*
X92662809Y-66746816D01*
X92611849Y-66699241D01*
X92600805Y-66688308D01*
X92549043Y-66638707D01*
X92506451Y-66601835D01*
X92480808Y-66584335D01*
X92478307Y-66583742D01*
X92459051Y-66571011D01*
X92418424Y-66536041D01*
X92361752Y-66483668D01*
X92294361Y-66418729D01*
X92268922Y-66393623D01*
X92199150Y-66325422D01*
X92138386Y-66268063D01*
X92091908Y-66226373D01*
X92064994Y-66205183D01*
X92061134Y-66203503D01*
X92038368Y-66191554D01*
X92000419Y-66161504D01*
X91983742Y-66146467D01*
X91938148Y-66111092D01*
X91897392Y-66091095D01*
X91887085Y-66089431D01*
X91856058Y-66075976D01*
X91809479Y-66040991D01*
X91755663Y-65992547D01*
X91702922Y-65938718D01*
X91690946Y-65924589D01*
X91995244Y-65924589D01*
X92004642Y-65938073D01*
X92039140Y-65974013D01*
X92095601Y-66029404D01*
X92170885Y-66101240D01*
X92261853Y-66186517D01*
X92365367Y-66282228D01*
X92442025Y-66352381D01*
X92905823Y-66775095D01*
X92911604Y-66513064D01*
X92917385Y-66251033D01*
X92861670Y-66205232D01*
X92818828Y-66180873D01*
X92740355Y-66148510D01*
X92627676Y-66108665D01*
X92482214Y-66061859D01*
X92409108Y-66039471D01*
X92292150Y-66004567D01*
X92187279Y-65974125D01*
X92100001Y-65949674D01*
X92035823Y-65932743D01*
X92000251Y-65924860D01*
X91995244Y-65924589D01*
X91690946Y-65924589D01*
X91659572Y-65887573D01*
X91633926Y-65847185D01*
X91631804Y-65841594D01*
X91621434Y-65818658D01*
X91602606Y-65808492D01*
X91565136Y-65808933D01*
X91511295Y-65815992D01*
X91426141Y-65826703D01*
X91353769Y-65830246D01*
X91286239Y-65824896D01*
X91215612Y-65808929D01*
X91133950Y-65780620D01*
X91033312Y-65738243D01*
X90923464Y-65688275D01*
X90862802Y-65660769D01*
X90816940Y-65641011D01*
X90795523Y-65633152D01*
X90795346Y-65633144D01*
X90783519Y-65648970D01*
X90759219Y-65691415D01*
X90726658Y-65752932D01*
X90707840Y-65789992D01*
X90671732Y-65859420D01*
X90640558Y-65914546D01*
X90618948Y-65947396D01*
X90613169Y-65952978D01*
X90599162Y-65974010D01*
X90586225Y-66017306D01*
X90584975Y-66023595D01*
X90565482Y-66082933D01*
X90529441Y-66117773D01*
X90469269Y-66133182D01*
X90417903Y-66135205D01*
X90316092Y-66129468D01*
X90248351Y-66112728D01*
X90212132Y-66084229D01*
X90206825Y-66072633D01*
X90184419Y-66026327D01*
X90153216Y-65988538D01*
X90120803Y-65964655D01*
X90094767Y-65960067D01*
X90082695Y-65980163D01*
X90082544Y-65984357D01*
X90075201Y-66017845D01*
X90056676Y-66069652D01*
X90046543Y-66093675D01*
X90016963Y-66162464D01*
X89984571Y-66240619D01*
X89972721Y-66270045D01*
X89919535Y-66399704D01*
X89875301Y-66499056D01*
X89840974Y-66566059D01*
X89819772Y-66596594D01*
X89780683Y-66614558D01*
X89719012Y-66622353D01*
X89648687Y-66620438D01*
X89583635Y-66609272D01*
X89537782Y-66589315D01*
X89535198Y-66587212D01*
X89512333Y-66555132D01*
X89482529Y-66496257D01*
X89450269Y-66420057D01*
X89429442Y-66363822D01*
X89392334Y-66257383D01*
X89350860Y-66138216D01*
X89312234Y-66027058D01*
X89300893Y-65994371D01*
X89269462Y-65904608D01*
X89247753Y-65846101D01*
X89233345Y-65814073D01*
X89223815Y-65803748D01*
X89216740Y-65810350D01*
X89212674Y-65820427D01*
X89196018Y-65843977D01*
X89158292Y-65887191D01*
X89105676Y-65943208D01*
X89062874Y-65986782D01*
X88993272Y-66054320D01*
X88939528Y-66098244D01*
X88891794Y-66122961D01*
X88840221Y-66132875D01*
X88774962Y-66132391D01*
X88742200Y-66130228D01*
X88702749Y-66124915D01*
X88673572Y-66112113D01*
X88652840Y-66086587D01*
X88638724Y-66043103D01*
X88629395Y-65976425D01*
X88623023Y-65881318D01*
X88618657Y-65776673D01*
X88614082Y-65674540D01*
X88608589Y-65586040D01*
X88602725Y-65518050D01*
X88597038Y-65477448D01*
X88594210Y-65469311D01*
X88581431Y-65469578D01*
X88580598Y-65475573D01*
X88564840Y-65495780D01*
X88526605Y-65517783D01*
X88523562Y-65519072D01*
X88484427Y-65538897D01*
X88466628Y-65555052D01*
X88466527Y-65555881D01*
X88450782Y-65572133D01*
X88412526Y-65594259D01*
X88365227Y-65615830D01*
X88322350Y-65630417D01*
X88304693Y-65633144D01*
X88278809Y-65645858D01*
X88235473Y-65679473D01*
X88183287Y-65727195D01*
X88174121Y-65736256D01*
X88080617Y-65821147D01*
X88000780Y-65874249D01*
X87931120Y-65897707D01*
X87908835Y-65899311D01*
X87868758Y-65913747D01*
X87846049Y-65958644D01*
X87839391Y-66026778D01*
X87822578Y-66077491D01*
X87781020Y-66124858D01*
X87727135Y-66157494D01*
X87688111Y-66165479D01*
X87649956Y-66173945D01*
X87603166Y-66202146D01*
X87541350Y-66254285D01*
X87513638Y-66280250D01*
X87453751Y-66333956D01*
X87398891Y-66377113D01*
X87358285Y-66402656D01*
X87349272Y-66406096D01*
X87298543Y-66405398D01*
X87231061Y-66387796D01*
X87161126Y-66358330D01*
X87103035Y-66322040D01*
X87097364Y-66317315D01*
X87053678Y-66286075D01*
X87019358Y-66269328D01*
X86989877Y-66253253D01*
X86983592Y-66242552D01*
X86967912Y-66225462D01*
X86929839Y-66204888D01*
X86926556Y-66203503D01*
X86887398Y-66183329D01*
X86869618Y-66166362D01*
X86869521Y-66165479D01*
X86851704Y-66146263D01*
X86802933Y-66127144D01*
X86730222Y-66110228D01*
X86645015Y-66098081D01*
X86579460Y-66088219D01*
X86528850Y-66075200D01*
X86506529Y-66063670D01*
X86480783Y-66031351D01*
X86460115Y-66003877D01*
X86437825Y-65977496D01*
X86421083Y-65981721D01*
X86403551Y-66002999D01*
X86377979Y-66048099D01*
X86357620Y-66102571D01*
X86323582Y-66177103D01*
X86267270Y-66223283D01*
X86212776Y-66241714D01*
X86127654Y-66249108D01*
X86049506Y-66228251D01*
X85970843Y-66176230D01*
X85918901Y-66127434D01*
X85871241Y-66080205D01*
X85834711Y-66047197D01*
X85816309Y-66034673D01*
X85815570Y-66034918D01*
X85809891Y-66055015D01*
X85798411Y-66105917D01*
X85782524Y-66181090D01*
X85763624Y-66274002D01*
X85751908Y-66333061D01*
X85731622Y-66433601D01*
X85713108Y-66520496D01*
X85697858Y-66587103D01*
X85687366Y-66626777D01*
X85684092Y-66634790D01*
X85655601Y-66647016D01*
X85603374Y-66658559D01*
X85541668Y-66667317D01*
X85484744Y-66671192D01*
X85450989Y-66669122D01*
X85393679Y-66657323D01*
X85359336Y-66650240D01*
X85318875Y-66628565D01*
X85300909Y-66602366D01*
X85282360Y-66571437D01*
X85243808Y-66523095D01*
X85192593Y-66466348D01*
X85176421Y-66449606D01*
X85064097Y-66335169D01*
X84943498Y-66455767D01*
X84880929Y-66513774D01*
X84819572Y-66562985D01*
X84769943Y-66595189D01*
X84757775Y-66600745D01*
X84680202Y-66630696D01*
X84584665Y-66668878D01*
X84488114Y-66708461D01*
X84436859Y-66729997D01*
X84309874Y-66777245D01*
X84192554Y-66807953D01*
X84090469Y-66821446D01*
X84009187Y-66817047D01*
X83954276Y-66794080D01*
X83948899Y-66789232D01*
X83929453Y-66750184D01*
X83915317Y-66683441D01*
X83907246Y-66599059D01*
X83905996Y-66507091D01*
X83912322Y-66417594D01*
X83918105Y-66379364D01*
X83927054Y-66324048D01*
X83930545Y-66287803D01*
X83929153Y-66279551D01*
X83910049Y-66287518D01*
X83865142Y-66308833D01*
X83802527Y-66339613D01*
X83770568Y-66355599D01*
X83696662Y-66390131D01*
X83630342Y-66416471D01*
X83582522Y-66430446D01*
X83571709Y-66431647D01*
X83550477Y-66438057D01*
X83517999Y-66458850D01*
X83471635Y-66496368D01*
X83408745Y-66552955D01*
X83326687Y-66630954D01*
X83222822Y-66732706D01*
X83143173Y-66811886D01*
X83044190Y-66910073D01*
X82953505Y-66998852D01*
X82874692Y-67074817D01*
X82811328Y-67134561D01*
X82766989Y-67174676D01*
X82745248Y-67191757D01*
X82744078Y-67192126D01*
X82722011Y-67204650D01*
X82682853Y-67237228D01*
X82642466Y-67275570D01*
X82591401Y-67322331D01*
X82544780Y-67357802D01*
X82518884Y-67371754D01*
X82478635Y-67395597D01*
X82440226Y-67433463D01*
X82427968Y-67451114D01*
X82418622Y-67472233D01*
X82411794Y-67501868D01*
X82407093Y-67545068D01*
X82404126Y-67606879D01*
X82402501Y-67692351D01*
X82401826Y-67806532D01*
X82401706Y-67929159D01*
X82401706Y-68375884D01*
X82135449Y-68375884D01*
X82135453Y-68130331D01*
X82135485Y-67617000D01*
X82135500Y-67385886D01*
X82325111Y-67385886D01*
X82551383Y-67170181D01*
X82612556Y-67111641D01*
X82697029Y-67030473D01*
X82800815Y-66930524D01*
X82919923Y-66815645D01*
X83050366Y-66689684D01*
X83188154Y-66556491D01*
X83329298Y-66419914D01*
X83434538Y-66317984D01*
X83565458Y-66190943D01*
X83687497Y-66072158D01*
X83798040Y-65964202D01*
X83865437Y-65898116D01*
X86737050Y-65898116D01*
X87017170Y-66088133D01*
X87108107Y-66149393D01*
X87188166Y-66202519D01*
X87252073Y-66244076D01*
X87294551Y-66270626D01*
X87310037Y-66278850D01*
X87326963Y-66265502D01*
X87361918Y-66229082D01*
X87408922Y-66176000D01*
X87438002Y-66141714D01*
X87553220Y-66003877D01*
X87553586Y-65866040D01*
X87553162Y-65799030D01*
X87552753Y-65785239D01*
X87706047Y-65785239D01*
X87712534Y-65803757D01*
X87714431Y-65804251D01*
X87730663Y-65790929D01*
X87734565Y-65785239D01*
X87733058Y-65767720D01*
X87726181Y-65766227D01*
X87706821Y-65780028D01*
X87706047Y-65785239D01*
X87552753Y-65785239D01*
X87551704Y-65749808D01*
X87549514Y-65727888D01*
X87549199Y-65727540D01*
X87386127Y-65698021D01*
X87236793Y-65657924D01*
X87113034Y-65610446D01*
X87109531Y-65608795D01*
X86972794Y-65543858D01*
X86854922Y-65720987D01*
X86737050Y-65898116D01*
X83865437Y-65898116D01*
X83894470Y-65869648D01*
X83974170Y-65791067D01*
X84034524Y-65731033D01*
X84072916Y-65692117D01*
X84086729Y-65676893D01*
X84086719Y-65676790D01*
X84068145Y-65681149D01*
X84016715Y-65695465D01*
X83935970Y-65718697D01*
X83829453Y-65749804D01*
X83700707Y-65787748D01*
X83553274Y-65831487D01*
X83390697Y-65879982D01*
X83216518Y-65932194D01*
X83208590Y-65934576D01*
X82335164Y-66197066D01*
X82330138Y-66791476D01*
X82325111Y-67385886D01*
X82135500Y-67385886D01*
X82135521Y-67068268D01*
X82135539Y-66482877D01*
X82135539Y-66430993D01*
X82135539Y-63974349D01*
X82325658Y-63974349D01*
X82325658Y-65030865D01*
X82325658Y-66087382D01*
X82415965Y-66060335D01*
X82452127Y-66049471D01*
X82520704Y-66028836D01*
X82617703Y-65999632D01*
X82739133Y-65963063D01*
X82881002Y-65920329D01*
X83039318Y-65872634D01*
X83210090Y-65821179D01*
X83389325Y-65767168D01*
X83389450Y-65767130D01*
X84272627Y-65500972D01*
X84425602Y-65353265D01*
X84494436Y-65286605D01*
X84581189Y-65202298D01*
X84591017Y-65192725D01*
X85700309Y-65192725D01*
X85722102Y-65209570D01*
X85769919Y-65243593D01*
X85838936Y-65291541D01*
X85924330Y-65350165D01*
X86021277Y-65416213D01*
X86124955Y-65486435D01*
X86230540Y-65557579D01*
X86333210Y-65626396D01*
X86428139Y-65689633D01*
X86510506Y-65744041D01*
X86575488Y-65786368D01*
X86618260Y-65813364D01*
X86633770Y-65821865D01*
X86652426Y-65807560D01*
X86686106Y-65767859D01*
X86729441Y-65709455D01*
X86762101Y-65661848D01*
X86807090Y-65592842D01*
X86842816Y-65535372D01*
X86864766Y-65496860D01*
X86869521Y-65485260D01*
X86856042Y-65465770D01*
X86821197Y-65431133D01*
X86785650Y-65399981D01*
X86735764Y-65350686D01*
X86677863Y-65282002D01*
X86618531Y-65203179D01*
X86564350Y-65123469D01*
X86521902Y-65052124D01*
X86497770Y-64998395D01*
X86496381Y-64993426D01*
X86480499Y-64961167D01*
X86463170Y-64954410D01*
X86439154Y-64962021D01*
X86384476Y-64978671D01*
X86304938Y-65002613D01*
X86206344Y-65032104D01*
X86094493Y-65065398D01*
X86067031Y-65073550D01*
X85955150Y-65107223D01*
X85857363Y-65137571D01*
X85778913Y-65162891D01*
X85725042Y-65181481D01*
X85700994Y-65191634D01*
X85700309Y-65192725D01*
X84591017Y-65192725D01*
X84676635Y-65109324D01*
X84771551Y-65016663D01*
X84811104Y-64977978D01*
X85043630Y-64750396D01*
X85302147Y-64925602D01*
X85390194Y-64984382D01*
X85468143Y-65034743D01*
X85530237Y-65073098D01*
X85570716Y-65095856D01*
X85582944Y-65100592D01*
X85607512Y-65095261D01*
X85661460Y-65080693D01*
X85738445Y-65058797D01*
X85832125Y-65031480D01*
X85936155Y-65000651D01*
X86044192Y-64968220D01*
X86149894Y-64936095D01*
X86246917Y-64906184D01*
X86328918Y-64880396D01*
X86389553Y-64860640D01*
X86422480Y-64848825D01*
X86426439Y-64846784D01*
X86428150Y-64824386D01*
X86422236Y-64777260D01*
X86415090Y-64739957D01*
X86402755Y-64661219D01*
X86395265Y-64572487D01*
X86394221Y-64533656D01*
X86394221Y-64424662D01*
X84412223Y-64209155D01*
X84140700Y-64179595D01*
X83879184Y-64151051D01*
X83630232Y-64123808D01*
X83396404Y-64098147D01*
X83180259Y-64074354D01*
X82984356Y-64052710D01*
X82811252Y-64033499D01*
X82663508Y-64017005D01*
X82543682Y-64003510D01*
X82454333Y-63993297D01*
X82398019Y-63986650D01*
X82377941Y-63983998D01*
X82325658Y-63974349D01*
X82135539Y-63974349D01*
X82135539Y-63205747D01*
X82329214Y-63205747D01*
X82329494Y-63377130D01*
X82330068Y-63527687D01*
X82330921Y-63654250D01*
X82332040Y-63753648D01*
X82333412Y-63822714D01*
X82335022Y-63858278D01*
X82335778Y-63862475D01*
X82355698Y-63865927D01*
X82410945Y-63873228D01*
X82499050Y-63884096D01*
X82617542Y-63898246D01*
X82763949Y-63915393D01*
X82935803Y-63935254D01*
X83130631Y-63957545D01*
X83345964Y-63981982D01*
X83579330Y-64008280D01*
X83828259Y-64036156D01*
X84090281Y-64065325D01*
X84355937Y-64094733D01*
X84628592Y-64124832D01*
X84890742Y-64153772D01*
X85139899Y-64181277D01*
X85373576Y-64207074D01*
X85589284Y-64230887D01*
X85784535Y-64252442D01*
X85956841Y-64271464D01*
X86103713Y-64287678D01*
X86222665Y-64300810D01*
X86311208Y-64310585D01*
X86366853Y-64316728D01*
X86387038Y-64318957D01*
X86402768Y-64303643D01*
X86417047Y-64262349D01*
X86421118Y-64241618D01*
X86435421Y-64181950D01*
X86460074Y-64105428D01*
X86486438Y-64036785D01*
X86537341Y-63915631D01*
X88703502Y-63915631D01*
X88704088Y-63942495D01*
X88718560Y-63989886D01*
X88738920Y-64042701D01*
X88766858Y-64119411D01*
X88789804Y-64194775D01*
X88801638Y-64246500D01*
X88811462Y-64295625D01*
X88825869Y-64316034D01*
X88854156Y-64316744D01*
X88870877Y-64313643D01*
X88920140Y-64305403D01*
X88953163Y-64302305D01*
X88970586Y-64289737D01*
X90183835Y-64289737D01*
X90195964Y-64303539D01*
X90233438Y-64340169D01*
X90293395Y-64396959D01*
X90372969Y-64471242D01*
X90469295Y-64560352D01*
X90579508Y-64661622D01*
X90700743Y-64772386D01*
X90771255Y-64836542D01*
X90907024Y-64959915D01*
X91041691Y-65082324D01*
X91170943Y-65199845D01*
X91290465Y-65308554D01*
X91395945Y-65404528D01*
X91483068Y-65483843D01*
X91547522Y-65542576D01*
X91560470Y-65554390D01*
X91755400Y-65732299D01*
X92340118Y-65908725D01*
X92482642Y-65951664D01*
X92613488Y-65990960D01*
X92728217Y-66025289D01*
X92822391Y-66053329D01*
X92891570Y-66073756D01*
X92931316Y-66085248D01*
X92939094Y-66087291D01*
X92941758Y-66069259D01*
X92944261Y-66016627D01*
X92946554Y-65932816D01*
X92948593Y-65821249D01*
X92950329Y-65685350D01*
X92951716Y-65528540D01*
X92952707Y-65354244D01*
X92953255Y-65165883D01*
X92953353Y-65043772D01*
X92953353Y-63998114D01*
X92905703Y-63998114D01*
X92877785Y-64000081D01*
X92816570Y-64005721D01*
X92725712Y-64014642D01*
X92608868Y-64026452D01*
X92469693Y-64040761D01*
X92311842Y-64057175D01*
X92138971Y-64075304D01*
X91954737Y-64094756D01*
X91762795Y-64115139D01*
X91566800Y-64136062D01*
X91370408Y-64157132D01*
X91177275Y-64177959D01*
X90991057Y-64198150D01*
X90815409Y-64217313D01*
X90653987Y-64235058D01*
X90510446Y-64250992D01*
X90388444Y-64264724D01*
X90291634Y-64275862D01*
X90223673Y-64284015D01*
X90188217Y-64288790D01*
X90183835Y-64289737D01*
X88970586Y-64289737D01*
X88972573Y-64288304D01*
X89011997Y-64249216D01*
X89067408Y-64189415D01*
X89134779Y-64113276D01*
X89210085Y-64025172D01*
X89228780Y-64002867D01*
X89304992Y-63912254D01*
X89373536Y-63832013D01*
X89430507Y-63766613D01*
X89472001Y-63720521D01*
X89494115Y-63698207D01*
X89496099Y-63696889D01*
X89515819Y-63706579D01*
X89557362Y-63737740D01*
X89614929Y-63785708D01*
X89682723Y-63845821D01*
X89693414Y-63855596D01*
X89772158Y-63927735D01*
X89850634Y-63999382D01*
X89919361Y-64061896D01*
X89965941Y-64104014D01*
X90058448Y-64187186D01*
X91501148Y-64033526D01*
X91731145Y-64008980D01*
X91949951Y-63985532D01*
X92154655Y-63963501D01*
X92342346Y-63943203D01*
X92510113Y-63924958D01*
X92655046Y-63909081D01*
X92774234Y-63895892D01*
X92864765Y-63885709D01*
X92923731Y-63878848D01*
X92948219Y-63875628D01*
X92948736Y-63875481D01*
X92949498Y-63856228D01*
X92950080Y-63802089D01*
X92950482Y-63716201D01*
X92950704Y-63601701D01*
X92950746Y-63461729D01*
X92950608Y-63299419D01*
X92950290Y-63117911D01*
X92949791Y-62920342D01*
X92949113Y-62709849D01*
X92948736Y-62608199D01*
X92943847Y-61345303D01*
X90843024Y-62615267D01*
X90583848Y-62771940D01*
X90333458Y-62923301D01*
X90093804Y-63068171D01*
X89866836Y-63205372D01*
X89654502Y-63333724D01*
X89458753Y-63452050D01*
X89281538Y-63559172D01*
X89124807Y-63653910D01*
X88990509Y-63735086D01*
X88880593Y-63801522D01*
X88797011Y-63852040D01*
X88741710Y-63885460D01*
X88716642Y-63900605D01*
X88715476Y-63901307D01*
X88703502Y-63915631D01*
X86537341Y-63915631D01*
X86539013Y-63911652D01*
X84437089Y-62628120D01*
X82335164Y-61344589D01*
X82330275Y-62598336D01*
X82329591Y-62813181D01*
X82329242Y-63016708D01*
X82329214Y-63205747D01*
X82135539Y-63205747D01*
X82135539Y-60347814D01*
X82325658Y-60347814D01*
X82325820Y-60780337D01*
X82325983Y-61212859D01*
X84459915Y-62516936D01*
X84720332Y-62675948D01*
X84971796Y-62829234D01*
X85212403Y-62975645D01*
X85440248Y-63114034D01*
X85653428Y-63243254D01*
X85850039Y-63362155D01*
X86028177Y-63469592D01*
X86185938Y-63564416D01*
X86321417Y-63645478D01*
X86432711Y-63711633D01*
X86517916Y-63761730D01*
X86575127Y-63794624D01*
X86602441Y-63809166D01*
X86604562Y-63809751D01*
X86621310Y-63790159D01*
X86654598Y-63749974D01*
X86694472Y-63701264D01*
X86756354Y-63634910D01*
X86830991Y-63568010D01*
X86878630Y-63531749D01*
X86931740Y-63492940D01*
X86969489Y-63461099D01*
X86973956Y-63455475D01*
X88242527Y-63455475D01*
X88328943Y-63518688D01*
X88416700Y-63591927D01*
X88494655Y-63665314D01*
X88551669Y-63728974D01*
X88552899Y-63730578D01*
X88593915Y-63782211D01*
X88621112Y-63807811D01*
X88642505Y-63812476D01*
X88665116Y-63801930D01*
X88685934Y-63789243D01*
X88737353Y-63758093D01*
X88817420Y-63709659D01*
X88924179Y-63645123D01*
X89055676Y-63565665D01*
X89209957Y-63472465D01*
X89385065Y-63366704D01*
X89579048Y-63249562D01*
X89789950Y-63122221D01*
X90015816Y-62985860D01*
X90254692Y-62841660D01*
X90504624Y-62690802D01*
X90763656Y-62534466D01*
X90828765Y-62495173D01*
X92953353Y-61212993D01*
X92953353Y-60780291D01*
X92953353Y-60347588D01*
X91429638Y-60352454D01*
X89905924Y-60357320D01*
X89071544Y-61904603D01*
X88950587Y-62129050D01*
X88835005Y-62343802D01*
X88726047Y-62546522D01*
X88624961Y-62734875D01*
X88532997Y-62906526D01*
X88451401Y-63059139D01*
X88381423Y-63190378D01*
X88324311Y-63297909D01*
X88281314Y-63379394D01*
X88253680Y-63432500D01*
X88242657Y-63454890D01*
X88242527Y-63455475D01*
X86973956Y-63455475D01*
X86983592Y-63443343D01*
X86974918Y-63424537D01*
X86949723Y-63374496D01*
X86909253Y-63295604D01*
X86854750Y-63190245D01*
X86787459Y-63060806D01*
X86708624Y-62909668D01*
X86619488Y-62739218D01*
X86521297Y-62551839D01*
X86415292Y-62349915D01*
X86302719Y-62135832D01*
X86184821Y-61911973D01*
X86171932Y-61887521D01*
X85360273Y-60347814D01*
X85478157Y-60347814D01*
X85543133Y-60466639D01*
X85561948Y-60501666D01*
X85597013Y-60567590D01*
X85646874Y-60661656D01*
X85710077Y-60781110D01*
X85785168Y-60923198D01*
X85870691Y-61085166D01*
X85965192Y-61264259D01*
X86067217Y-61457725D01*
X86175311Y-61662808D01*
X86288019Y-61876755D01*
X86346390Y-61987597D01*
X86459226Y-62201630D01*
X86567087Y-62405710D01*
X86668652Y-62597368D01*
X86762598Y-62774134D01*
X86847604Y-62933538D01*
X86922350Y-63073111D01*
X86985513Y-63190382D01*
X87035772Y-63282883D01*
X87071806Y-63348142D01*
X87092293Y-63383690D01*
X87096579Y-63389730D01*
X87119463Y-63383871D01*
X87167194Y-63368610D01*
X87221220Y-63350109D01*
X87306403Y-63325170D01*
X87400206Y-63304981D01*
X87448704Y-63297826D01*
X87477300Y-63294671D01*
X87661892Y-63294671D01*
X87736253Y-63294896D01*
X87822059Y-63303584D01*
X87925138Y-63326607D01*
X88029400Y-63360059D01*
X88067275Y-63375246D01*
X88112866Y-63390844D01*
X88142311Y-63393651D01*
X88145436Y-63392011D01*
X88155957Y-63373894D01*
X88183176Y-63324667D01*
X88225800Y-63246719D01*
X88282536Y-63142438D01*
X88352091Y-63014213D01*
X88433172Y-62864433D01*
X88524486Y-62695486D01*
X88624740Y-62509760D01*
X88732641Y-62309645D01*
X88846896Y-62097529D01*
X88966212Y-61875800D01*
X88967704Y-61873027D01*
X89086887Y-61651338D01*
X89200791Y-61439278D01*
X89308143Y-61239228D01*
X89407670Y-61053568D01*
X89498100Y-60884680D01*
X89578159Y-60734943D01*
X89646574Y-60606739D01*
X89702074Y-60502447D01*
X89743385Y-60424448D01*
X89769235Y-60375123D01*
X89778350Y-60356852D01*
X89778353Y-60356822D01*
X89759913Y-60355139D01*
X89706881Y-60353557D01*
X89622690Y-60352108D01*
X89510771Y-60350820D01*
X89374557Y-60349724D01*
X89217480Y-60348847D01*
X89042971Y-60348222D01*
X88854463Y-60347875D01*
X88732694Y-60347814D01*
X87687036Y-60347814D01*
X87687036Y-61247786D01*
X87686737Y-61456200D01*
X87685885Y-61675380D01*
X87684543Y-61897711D01*
X87682778Y-62115576D01*
X87680655Y-62321360D01*
X87678237Y-62507448D01*
X87675590Y-62666223D01*
X87674464Y-62721214D01*
X87661892Y-63294671D01*
X87477300Y-63294671D01*
X87563458Y-63285165D01*
X87568328Y-61816489D01*
X87573198Y-60347814D01*
X86525678Y-60347814D01*
X85478157Y-60347814D01*
X85360273Y-60347814D01*
X83842965Y-60347814D01*
X82325658Y-60347814D01*
X82135539Y-60347814D01*
X82135539Y-60157695D01*
X87639506Y-60157695D01*
X93143473Y-60157695D01*
X93143473Y-66408380D01*
G37*
D12*
%TO.C,Ultrasonic2*%
X86250000Y-78490000D02*
X83750000Y-78490000D01*
X83750000Y-78490000D02*
X83750000Y-80990000D01*
X88070000Y-78790000D02*
X84050000Y-78790000D01*
X86360000Y-78790000D02*
X86360000Y-79290000D01*
X85550000Y-78790000D02*
X85550000Y-79790000D01*
X84050000Y-78790000D02*
X84050000Y-91510000D01*
X87570000Y-79290000D02*
X87570000Y-91010000D01*
X86360000Y-79290000D02*
X87570000Y-79290000D01*
X85550000Y-79790000D02*
X84050000Y-79790000D01*
X85550000Y-90510000D02*
X84050000Y-90510000D01*
X87570000Y-91010000D02*
X86360000Y-91010000D01*
X86360000Y-91010000D02*
X86360000Y-91510000D01*
X88070000Y-91510000D02*
X88070000Y-78790000D01*
X85550000Y-91510000D02*
X85550000Y-90510000D01*
X84050000Y-91510000D02*
X88070000Y-91510000D01*
D13*
%TO.C,Out1*%
X72295000Y-61570000D02*
X72295000Y-111970000D01*
X67415000Y-61570000D02*
X72295000Y-61570000D01*
X72295000Y-111970000D02*
X67415000Y-111970000D01*
X67415000Y-111970000D02*
X67415000Y-61570000D01*
D14*
X73395000Y-62640000D02*
G75*
G03*
X73395000Y-62640000I-100000J0D01*
G01*
D13*
%TO.C,PI_to_Header1*%
X79650000Y-61570000D02*
X79650000Y-111970000D01*
X74770000Y-61570000D02*
X79650000Y-61570000D01*
X79650000Y-111970000D02*
X74770000Y-111970000D01*
X74770000Y-111970000D02*
X74770000Y-61570000D01*
D14*
X80750000Y-62640000D02*
G75*
G03*
X80750000Y-62640000I-100000J0D01*
G01*
D12*
%TO.C,Pi1_to_Pi2*%
X86250000Y-93610000D02*
X83750000Y-93610000D01*
X83750000Y-93610000D02*
X83750000Y-96110000D01*
X88070000Y-93910000D02*
X84050000Y-93910000D01*
X86360000Y-93910000D02*
X86360000Y-94410000D01*
X85550000Y-93910000D02*
X85550000Y-94910000D01*
X84050000Y-93910000D02*
X84050000Y-109130000D01*
X87570000Y-94410000D02*
X87570000Y-108630000D01*
X86360000Y-94410000D02*
X87570000Y-94410000D01*
X85550000Y-94910000D02*
X84050000Y-94910000D01*
X85550000Y-108130000D02*
X84050000Y-108130000D01*
X87570000Y-108630000D02*
X86360000Y-108630000D01*
X86360000Y-108630000D02*
X86360000Y-109130000D01*
X88070000Y-109130000D02*
X88070000Y-93910000D01*
X85550000Y-109130000D02*
X85550000Y-108130000D01*
X84050000Y-109130000D02*
X88070000Y-109130000D01*
%TD*%
M02*
