M48
; DRILL file {KiCad 7.0.5} date Tue Dec 19 10:58:41 2023
; FORMAT={-:-/ absolute / inch / decimal}
; #@! TF.CreationDate,2023-12-19T10:58:41-08:00
; #@! TF.GenerationSoftware,Kicad,Pcbnew,7.0.5
; #@! TF.FileFunction,Plated,1,2,PTH
FMAT,2
INCH
; #@! TA.AperFunction,Plated,PTH,ComponentDrill
T1C0.0350
; #@! TA.AperFunction,Plated,PTH,ComponentDrill
T2C0.0374
%
G90
G05
T1
X2.7002Y-2.4661
X2.7002Y-2.5661
X2.7002Y-2.6661
X2.7002Y-2.7661
X2.7002Y-2.8661
X2.7002Y-2.9661
X2.7002Y-3.0661
X2.7002Y-3.1661
X2.7002Y-3.2661
X2.7002Y-3.3661
X2.7002Y-3.4661
X2.7002Y-3.5661
X2.7002Y-3.6661
X2.7002Y-3.7661
X2.7002Y-3.8661
X2.7002Y-3.9661
X2.7002Y-4.0661
X2.7002Y-4.1661
X2.7002Y-4.2661
X2.7002Y-4.3661
X2.8002Y-2.4661
X2.8002Y-2.5661
X2.8002Y-2.6661
X2.8002Y-2.7661
X2.8002Y-2.8661
X2.8002Y-2.9661
X2.8002Y-3.0661
X2.8002Y-3.1661
X2.8002Y-3.2661
X2.8002Y-3.3661
X2.8002Y-3.4661
X2.8002Y-3.5661
X2.8002Y-3.6661
X2.8002Y-3.7661
X2.8002Y-3.8661
X2.8002Y-3.9661
X2.8002Y-4.0661
X2.8002Y-4.1661
X2.8002Y-4.2661
X2.8002Y-4.3661
X2.9898Y-2.4661
X2.9898Y-2.5661
X2.9898Y-2.6661
X2.9898Y-2.7661
X2.9898Y-2.8661
X2.9898Y-2.9661
X2.9898Y-3.0661
X2.9898Y-3.1661
X2.9898Y-3.2661
X2.9898Y-3.3661
X2.9898Y-3.4661
X2.9898Y-3.5661
X2.9898Y-3.6661
X2.9898Y-3.7661
X2.9898Y-3.8661
X2.9898Y-3.9661
X2.9898Y-4.0661
X2.9898Y-4.1661
X2.9898Y-4.2661
X2.9898Y-4.3661
X3.0898Y-2.4661
X3.0898Y-2.5661
X3.0898Y-2.6661
X3.0898Y-2.7661
X3.0898Y-2.8661
X3.0898Y-2.9661
X3.0898Y-3.0661
X3.0898Y-3.1661
X3.0898Y-3.2661
X3.0898Y-3.3661
X3.0898Y-3.4661
X3.0898Y-3.5661
X3.0898Y-3.6661
X3.0898Y-3.7661
X3.0898Y-3.8661
X3.0898Y-3.9661
X3.0898Y-4.0661
X3.0898Y-4.1661
X3.0898Y-4.2661
X3.0898Y-4.3661
T2
X3.4Y-3.2047
X3.4Y-3.3031
X3.4Y-3.4016
X3.4Y-3.5
X3.4Y-3.8
X3.4Y-3.8984
X3.4Y-3.9969
X3.4Y-4.0953
X3.4Y-4.1937
T0
M30
