%TF.GenerationSoftware,KiCad,Pcbnew,7.0.5*%
%TF.CreationDate,2023-12-19T10:58:39-08:00*%
%TF.ProjectId,Pi2_PiHat,5069325f-5069-4486-9174-2e6b69636164,rev?*%
%TF.SameCoordinates,Original*%
%TF.FileFunction,Copper,L1,Top*%
%TF.FilePolarity,Positive*%
%FSLAX46Y46*%
G04 Gerber Fmt 4.6, Leading zero omitted, Abs format (unit mm)*
G04 Created by KiCad (PCBNEW 7.0.5) date 2023-12-19 10:58:39*
%MOMM*%
%LPD*%
G01*
G04 APERTURE LIST*
G04 Aperture macros list*
%AMRoundRect*
0 Rectangle with rounded corners*
0 $1 Rounding radius*
0 $2 $3 $4 $5 $6 $7 $8 $9 X,Y pos of 4 corners*
0 Add a 4 corners polygon primitive as box body*
4,1,4,$2,$3,$4,$5,$6,$7,$8,$9,$2,$3,0*
0 Add four circle primitives for the rounded corners*
1,1,$1+$1,$2,$3*
1,1,$1+$1,$4,$5*
1,1,$1+$1,$6,$7*
1,1,$1+$1,$8,$9*
0 Add four rect primitives between the rounded corners*
20,1,$1+$1,$2,$3,$4,$5,0*
20,1,$1+$1,$4,$5,$6,$7,0*
20,1,$1+$1,$6,$7,$8,$9,0*
20,1,$1+$1,$8,$9,$2,$3,0*%
G04 Aperture macros list end*
%TA.AperFunction,ComponentPad*%
%ADD10RoundRect,0.250000X-0.725000X0.600000X-0.725000X-0.600000X0.725000X-0.600000X0.725000X0.600000X0*%
%TD*%
%TA.AperFunction,ComponentPad*%
%ADD11O,1.950000X1.700000*%
%TD*%
%TA.AperFunction,ComponentPad*%
%ADD12C,1.398000*%
%TD*%
%TA.AperFunction,ComponentPad*%
%ADD13R,1.398000X1.398000*%
%TD*%
%TA.AperFunction,Conductor*%
%ADD14C,0.250000*%
%TD*%
G04 APERTURE END LIST*
D10*
%TO.P,Ultrasonic2,1,Pin_1*%
%TO.N,Net-(Out1-Pin_2)*%
X86360000Y-81400000D03*
D11*
%TO.P,Ultrasonic2,2,Pin_2*%
%TO.N,Net-(Out1-Pin_13)*%
X86360000Y-83900000D03*
%TO.P,Ultrasonic2,3,Pin_3*%
%TO.N,Net-(Out1-Pin_11)*%
X86360000Y-86400000D03*
%TO.P,Ultrasonic2,4,Pin_4*%
%TO.N,Net-(Out1-Pin_9)*%
X86360000Y-88900000D03*
%TD*%
D12*
%TO.P,Out1,1,Pin_1*%
%TO.N,Net-(Out1-Pin_1)*%
X68585000Y-62640000D03*
D13*
%TO.P,Out1,2,Pin_2*%
%TO.N,Net-(Out1-Pin_2)*%
X71125000Y-62640000D03*
D12*
%TO.P,Out1,3,Pin_3*%
%TO.N,Net-(Out1-Pin_3)*%
X68585000Y-65180000D03*
%TO.P,Out1,4,Pin_4*%
%TO.N,Net-(Out1-Pin_4)*%
X71125000Y-65180000D03*
%TO.P,Out1,5,Pin_5*%
%TO.N,Net-(Out1-Pin_5)*%
X68585000Y-67720000D03*
%TO.P,Out1,6,Pin_6*%
%TO.N,Net-(Out1-Pin_6)*%
X71125000Y-67720000D03*
%TO.P,Out1,7,Pin_7*%
%TO.N,Net-(Out1-Pin_7)*%
X68585000Y-70260000D03*
%TO.P,Out1,8,Pin_8*%
%TO.N,Net-(Out1-Pin_8)*%
X71125000Y-70260000D03*
%TO.P,Out1,9,Pin_9*%
%TO.N,Net-(Out1-Pin_9)*%
X68585000Y-72800000D03*
%TO.P,Out1,10,Pin_10*%
%TO.N,Net-(Out1-Pin_10)*%
X71125000Y-72800000D03*
%TO.P,Out1,11,Pin_11*%
%TO.N,Net-(Out1-Pin_11)*%
X68585000Y-75340000D03*
%TO.P,Out1,12,Pin_12*%
%TO.N,Net-(Out1-Pin_12)*%
X71125000Y-75340000D03*
%TO.P,Out1,13,Pin_13*%
%TO.N,Net-(Out1-Pin_13)*%
X68585000Y-77880000D03*
%TO.P,Out1,14,Pin_14*%
%TO.N,Net-(Out1-Pin_14)*%
X71125000Y-77880000D03*
%TO.P,Out1,15,Pin_15*%
%TO.N,Net-(Out1-Pin_15)*%
X68585000Y-80420000D03*
%TO.P,Out1,16,Pin_16*%
%TO.N,Net-(Out1-Pin_16)*%
X71125000Y-80420000D03*
%TO.P,Out1,17,Pin_17*%
%TO.N,Net-(Out1-Pin_17)*%
X68585000Y-82960000D03*
%TO.P,Out1,18,Pin_18*%
%TO.N,Net-(Out1-Pin_18)*%
X71125000Y-82960000D03*
%TO.P,Out1,19,Pin_19*%
%TO.N,Net-(Out1-Pin_19)*%
X68585000Y-85500000D03*
%TO.P,Out1,20,Pin_20*%
%TO.N,Net-(Out1-Pin_20)*%
X71125000Y-85500000D03*
%TO.P,Out1,21,Pin_21*%
%TO.N,Net-(Out1-Pin_21)*%
X68585000Y-88040000D03*
%TO.P,Out1,22,Pin_22*%
%TO.N,Net-(Out1-Pin_22)*%
X71125000Y-88040000D03*
%TO.P,Out1,23,Pin_23*%
%TO.N,Net-(Out1-Pin_23)*%
X68585000Y-90580000D03*
%TO.P,Out1,24,Pin_24*%
%TO.N,Net-(Out1-Pin_24)*%
X71125000Y-90580000D03*
%TO.P,Out1,25,Pin_25*%
%TO.N,Net-(Out1-Pin_25)*%
X68585000Y-93120000D03*
%TO.P,Out1,26,Pin_26*%
%TO.N,Net-(Out1-Pin_26)*%
X71125000Y-93120000D03*
%TO.P,Out1,27,Pin_27*%
%TO.N,Net-(Out1-Pin_27)*%
X68585000Y-95660000D03*
%TO.P,Out1,28,Pin_28*%
%TO.N,Net-(Out1-Pin_28)*%
X71125000Y-95660000D03*
%TO.P,Out1,29,Pin_29*%
%TO.N,Net-(Out1-Pin_29)*%
X68585000Y-98200000D03*
%TO.P,Out1,30,Pin_30*%
%TO.N,Net-(Out1-Pin_30)*%
X71125000Y-98200000D03*
%TO.P,Out1,31,Pin_31*%
%TO.N,Net-(Out1-Pin_31)*%
X68585000Y-100740000D03*
%TO.P,Out1,32,Pin_32*%
%TO.N,Net-(Out1-Pin_32)*%
X71125000Y-100740000D03*
%TO.P,Out1,33,Pin_33*%
%TO.N,Net-(Out1-Pin_33)*%
X68585000Y-103280000D03*
%TO.P,Out1,34,Pin_34*%
%TO.N,Net-(Out1-Pin_34)*%
X71125000Y-103280000D03*
%TO.P,Out1,35,Pin_35*%
%TO.N,Net-(Out1-Pin_35)*%
X68585000Y-105820000D03*
%TO.P,Out1,36,Pin_36*%
%TO.N,Net-(Out1-Pin_36)*%
X71125000Y-105820000D03*
%TO.P,Out1,37,Pin_37*%
%TO.N,Net-(Out1-Pin_37)*%
X68585000Y-108360000D03*
%TO.P,Out1,38,Pin_38*%
%TO.N,Net-(Out1-Pin_38)*%
X71125000Y-108360000D03*
%TO.P,Out1,39,Pin_39*%
%TO.N,Net-(Out1-Pin_39)*%
X68585000Y-110900000D03*
%TO.P,Out1,40,Pin_40*%
%TO.N,Net-(Out1-Pin_40)*%
X71125000Y-110900000D03*
%TD*%
%TO.P,PI_to_Header1,1,Pin_1*%
%TO.N,Net-(Out1-Pin_1)*%
X75940000Y-62640000D03*
D13*
%TO.P,PI_to_Header1,2,Pin_2*%
%TO.N,Net-(Out1-Pin_2)*%
X78480000Y-62640000D03*
D12*
%TO.P,PI_to_Header1,3,Pin_3*%
%TO.N,Net-(Out1-Pin_3)*%
X75940000Y-65180000D03*
%TO.P,PI_to_Header1,4,Pin_4*%
%TO.N,Net-(Out1-Pin_4)*%
X78480000Y-65180000D03*
%TO.P,PI_to_Header1,5,Pin_5*%
%TO.N,Net-(Out1-Pin_5)*%
X75940000Y-67720000D03*
%TO.P,PI_to_Header1,6,Pin_6*%
%TO.N,Net-(Out1-Pin_6)*%
X78480000Y-67720000D03*
%TO.P,PI_to_Header1,7,Pin_7*%
%TO.N,Net-(Out1-Pin_7)*%
X75940000Y-70260000D03*
%TO.P,PI_to_Header1,8,Pin_8*%
%TO.N,Net-(Out1-Pin_8)*%
X78480000Y-70260000D03*
%TO.P,PI_to_Header1,9,Pin_9*%
%TO.N,Net-(Out1-Pin_9)*%
X75940000Y-72800000D03*
%TO.P,PI_to_Header1,10,Pin_10*%
%TO.N,Net-(Out1-Pin_10)*%
X78480000Y-72800000D03*
%TO.P,PI_to_Header1,11,Pin_11*%
%TO.N,Net-(Out1-Pin_11)*%
X75940000Y-75340000D03*
%TO.P,PI_to_Header1,12,Pin_12*%
%TO.N,Net-(Out1-Pin_12)*%
X78480000Y-75340000D03*
%TO.P,PI_to_Header1,13,Pin_13*%
%TO.N,Net-(Out1-Pin_13)*%
X75940000Y-77880000D03*
%TO.P,PI_to_Header1,14,Pin_14*%
%TO.N,Net-(Out1-Pin_14)*%
X78480000Y-77880000D03*
%TO.P,PI_to_Header1,15,Pin_15*%
%TO.N,Net-(Out1-Pin_15)*%
X75940000Y-80420000D03*
%TO.P,PI_to_Header1,16,Pin_16*%
%TO.N,Net-(Out1-Pin_16)*%
X78480000Y-80420000D03*
%TO.P,PI_to_Header1,17,Pin_17*%
%TO.N,Net-(Out1-Pin_17)*%
X75940000Y-82960000D03*
%TO.P,PI_to_Header1,18,Pin_18*%
%TO.N,Net-(Out1-Pin_18)*%
X78480000Y-82960000D03*
%TO.P,PI_to_Header1,19,Pin_19*%
%TO.N,Net-(Out1-Pin_19)*%
X75940000Y-85500000D03*
%TO.P,PI_to_Header1,20,Pin_20*%
%TO.N,Net-(Out1-Pin_20)*%
X78480000Y-85500000D03*
%TO.P,PI_to_Header1,21,Pin_21*%
%TO.N,Net-(Out1-Pin_21)*%
X75940000Y-88040000D03*
%TO.P,PI_to_Header1,22,Pin_22*%
%TO.N,Net-(Out1-Pin_22)*%
X78480000Y-88040000D03*
%TO.P,PI_to_Header1,23,Pin_23*%
%TO.N,Net-(Out1-Pin_23)*%
X75940000Y-90580000D03*
%TO.P,PI_to_Header1,24,Pin_24*%
%TO.N,Net-(Out1-Pin_24)*%
X78480000Y-90580000D03*
%TO.P,PI_to_Header1,25,Pin_25*%
%TO.N,Net-(Out1-Pin_25)*%
X75940000Y-93120000D03*
%TO.P,PI_to_Header1,26,Pin_26*%
%TO.N,Net-(Out1-Pin_26)*%
X78480000Y-93120000D03*
%TO.P,PI_to_Header1,27,Pin_27*%
%TO.N,Net-(Out1-Pin_27)*%
X75940000Y-95660000D03*
%TO.P,PI_to_Header1,28,Pin_28*%
%TO.N,Net-(Out1-Pin_28)*%
X78480000Y-95660000D03*
%TO.P,PI_to_Header1,29,Pin_29*%
%TO.N,Net-(Out1-Pin_29)*%
X75940000Y-98200000D03*
%TO.P,PI_to_Header1,30,Pin_30*%
%TO.N,Net-(Out1-Pin_30)*%
X78480000Y-98200000D03*
%TO.P,PI_to_Header1,31,Pin_31*%
%TO.N,Net-(Out1-Pin_31)*%
X75940000Y-100740000D03*
%TO.P,PI_to_Header1,32,Pin_32*%
%TO.N,Net-(Out1-Pin_32)*%
X78480000Y-100740000D03*
%TO.P,PI_to_Header1,33,Pin_33*%
%TO.N,Net-(Out1-Pin_33)*%
X75940000Y-103280000D03*
%TO.P,PI_to_Header1,34,Pin_34*%
%TO.N,Net-(Out1-Pin_34)*%
X78480000Y-103280000D03*
%TO.P,PI_to_Header1,35,Pin_35*%
%TO.N,Net-(Out1-Pin_35)*%
X75940000Y-105820000D03*
%TO.P,PI_to_Header1,36,Pin_36*%
%TO.N,Net-(Out1-Pin_36)*%
X78480000Y-105820000D03*
%TO.P,PI_to_Header1,37,Pin_37*%
%TO.N,Net-(Out1-Pin_37)*%
X75940000Y-108360000D03*
%TO.P,PI_to_Header1,38,Pin_38*%
%TO.N,Net-(Out1-Pin_38)*%
X78480000Y-108360000D03*
%TO.P,PI_to_Header1,39,Pin_39*%
%TO.N,Net-(Out1-Pin_39)*%
X75940000Y-110900000D03*
%TO.P,PI_to_Header1,40,Pin_40*%
%TO.N,Net-(Out1-Pin_40)*%
X78480000Y-110900000D03*
%TD*%
D10*
%TO.P,Pi1_to_Pi2,1,Pin_1*%
%TO.N,Net-(Out1-Pin_32)*%
X86360000Y-96520000D03*
D11*
%TO.P,Pi1_to_Pi2,2,Pin_2*%
%TO.N,Net-(Out1-Pin_36)*%
X86360000Y-99020000D03*
%TO.P,Pi1_to_Pi2,3,Pin_3*%
%TO.N,Net-(Out1-Pin_10)*%
X86360000Y-101520000D03*
%TO.P,Pi1_to_Pi2,4,Pin_4*%
%TO.N,Net-(Out1-Pin_6)*%
X86360000Y-104020000D03*
%TO.P,Pi1_to_Pi2,5,Pin_5*%
%TO.N,Net-(Out1-Pin_15)*%
X86360000Y-106520000D03*
%TD*%
D14*
%TO.N,Net-(Out1-Pin_2)*%
X86360000Y-81400000D02*
X86360000Y-70520000D01*
X86360000Y-70520000D02*
X78480000Y-62640000D01*
%TO.N,Net-(Out1-Pin_9)*%
X74466000Y-80394155D02*
X74466000Y-74274000D01*
X86360000Y-88900000D02*
X78904000Y-81444000D01*
X74466000Y-74274000D02*
X75940000Y-72800000D01*
X78904000Y-81444000D02*
X75515845Y-81444000D01*
X75515845Y-81444000D02*
X74466000Y-80394155D01*
%TO.N,Net-(Out1-Pin_11)*%
X86360000Y-86400000D02*
X79314000Y-79354000D01*
X79314000Y-79354000D02*
X75965845Y-79354000D01*
X74916000Y-76364000D02*
X75940000Y-75340000D01*
X75965845Y-79354000D02*
X74916000Y-78304155D01*
X74916000Y-78304155D02*
X74916000Y-76364000D01*
%TO.N,Net-(Out1-Pin_13)*%
X86360000Y-83900000D02*
X81364000Y-78904000D01*
X76964000Y-78904000D02*
X75940000Y-77880000D01*
X81364000Y-78904000D02*
X76964000Y-78904000D01*
%TO.N,Net-(Out1-Pin_6)*%
X78055845Y-106844000D02*
X76964000Y-105752155D01*
X76364155Y-83984000D02*
X75515845Y-83984000D01*
X75515845Y-83984000D02*
X73566000Y-82034155D01*
X76964000Y-84583845D02*
X76364155Y-83984000D01*
X73566000Y-82034155D02*
X73566000Y-73089449D01*
X76964000Y-70684155D02*
X76964000Y-69236000D01*
X75371449Y-71284000D02*
X76364155Y-71284000D01*
X83536000Y-106844000D02*
X78055845Y-106844000D01*
X76964000Y-105752155D02*
X76964000Y-84583845D01*
X76364155Y-71284000D02*
X76964000Y-70684155D01*
X86360000Y-104020000D02*
X83536000Y-106844000D01*
X73566000Y-73089449D02*
X75371449Y-71284000D01*
X76964000Y-69236000D02*
X78480000Y-67720000D01*
%TO.N,Net-(Out1-Pin_10)*%
X74016000Y-80580551D02*
X74016000Y-73275845D01*
X77456000Y-83384155D02*
X77456000Y-82535845D01*
X77456000Y-71776000D02*
X78480000Y-72800000D01*
X75515845Y-71776000D02*
X77456000Y-71776000D01*
X74016000Y-73275845D02*
X75515845Y-71776000D01*
X87660000Y-100220000D02*
X87660000Y-92739845D01*
X78055845Y-83984000D02*
X77456000Y-83384155D01*
X77456000Y-82535845D02*
X76814155Y-81894000D01*
X76814155Y-81894000D02*
X75329449Y-81894000D01*
X78904155Y-83984000D02*
X78055845Y-83984000D01*
X87660000Y-92739845D02*
X78904155Y-83984000D01*
X86360000Y-101520000D02*
X87660000Y-100220000D01*
X75329449Y-81894000D02*
X74016000Y-80580551D01*
%TO.N,Net-(Out1-Pin_15)*%
X74916000Y-85302845D02*
X71549155Y-81936000D01*
X70101000Y-81936000D02*
X68585000Y-80420000D01*
X86360000Y-106520000D02*
X85586000Y-107294000D01*
X74916000Y-106244155D02*
X74916000Y-85302845D01*
X71549155Y-81936000D02*
X70101000Y-81936000D01*
X85586000Y-107294000D02*
X75965845Y-107294000D01*
X75965845Y-107294000D02*
X74916000Y-106244155D01*
%TO.N,Net-(Out1-Pin_32)*%
X86360000Y-96520000D02*
X82700000Y-96520000D01*
X82700000Y-96520000D02*
X78480000Y-100740000D01*
%TO.N,Net-(Out1-Pin_36)*%
X85280000Y-99020000D02*
X78480000Y-105820000D01*
X86360000Y-99020000D02*
X85280000Y-99020000D01*
%TD*%
M02*
